<svg id="Layer_1" data-name="Layer 1" xmlns="http://www.w3.org/2000/svg" viewBox="0 0 32 32"><defs><style>.cls-1{fill:#0f0035;}</style></defs><title>camera</title><path class="cls-1" d="M27.79,12.07v11a3.15,3.15,0,0,1-3.14,3.14H7.35a3.15,3.15,0,0,1-3.14-3.14v-11A3.15,3.15,0,0,1,7.35,8.92H10.1l.63-1.67a2.46,2.46,0,0,1,2.13-1.47h6.29a2.46,2.46,0,0,1,2.13,1.47l.63,1.67h2.75A3.15,3.15,0,0,1,27.79,12.07Zm-6.29,5.5a5.5,5.5,0,1,0-5.5,5.5A5.51,5.51,0,0,0,21.5,17.57Zm-2,0A3.54,3.54,0,1,1,16,14,3.54,3.54,0,0,1,19.54,17.57Z"/></svg>