<svg id="Layer_1" data-name="Layer 1" xmlns="http://www.w3.org/2000/svg" viewBox="0 0 683 441"><defs><style>.cls-1{fill:#f5f4f7;}.cls-2{fill:#0f0035;}.cls-3{fill:none;stroke:#01eaa4;stroke-miterlimit:10;stroke-width:12px;}.cls-4{font-size:24px;fill:#474454;font-family:Roboto-BlackItalic, Roboto;font-style:italic;}.cls-5{letter-spacing:-0.01em;}</style></defs><title>critical-root-zone</title><rect class="cls-1" width="683" height="441"/><rect class="cls-2" x="50" y="329" width="148" height="12"/><path class="cls-2" d="M163.92,62.24a31,31,0,0,1,3.31.18,30.13,30.13,0,0,1,20.42,11.19l5.28,6.59,8-2.75a30.08,30.08,0,0,1,9.82-1.65A30.72,30.72,0,0,1,214,76a30.34,30.34,0,0,1,26.91,33.41c-.08.73-.2,1.54-.38,2.47l-1.61,8.45,7.48,4.24a30.37,30.37,0,0,1,13,38.36l-2.91,6.81,4.78,5.66a30.33,30.33,0,0,1-23.1,49.92,31,31,0,0,1-3.31-.18,30,30,0,0,1-13.17-4.66L214.79,216l-6.64,4.79a30.06,30.06,0,0,1-17.68,5.73,30.9,30.9,0,0,1-3.3-.18,30.29,30.29,0,0,1-14.8-5.78l-10.71-8-6.78,11.48a30.44,30.44,0,0,1-26.09,14.94,30.93,30.93,0,0,1-3.3-.18,30.37,30.37,0,0,1-26.91-33.41c.11-1,.27-2,.48-3l2.69-12.82-13-1.55a30.32,30.32,0,0,1-11.26-56.55l7.74-4.37-1.92-8.68a30.34,30.34,0,0,1,29.56-36.9,30.94,30.94,0,0,1,3.31.18A30.52,30.52,0,0,1,123,83.31l9.54,3.35,4.92-8.83a30.34,30.34,0,0,1,26.46-15.58h0m0-12A42.37,42.37,0,0,0,127,72a42.33,42.33,0,0,0-55.39,49.08A42.32,42.32,0,0,0,87.31,200q-.43,2.06-.67,4.2a42.34,42.34,0,0,0,37.55,46.63,42.28,42.28,0,0,0,41-20.59,42.13,42.13,0,0,0,20.67,8.08,42.8,42.8,0,0,0,4.59.25,42.17,42.17,0,0,0,24.7-8,42.14,42.14,0,0,0,18.39,6.51,42.81,42.81,0,0,0,4.59.25,42.33,42.33,0,0,0,32.26-69.67,42.37,42.37,0,0,0-18.07-53.52c.21-1.13.4-2.27.52-3.43A42.33,42.33,0,0,0,197,66.11a42.2,42.2,0,0,0-28.49-15.62,42.84,42.84,0,0,0-4.59-.25Z"/><polygon class="cls-1" points="144.05 335 144.05 211.88 131.33 186.51 76.24 160.95 77.18 158.58 121.25 164.93 96.65 117.16 106.27 111.74 127.91 135.3 153.17 89.68 155.11 90.9 139.62 155.09 163.45 194.82 190.74 176.62 189.79 115.18 192.55 114.57 210.64 163.11 237.22 146.44 243.07 153.62 224.23 174.65 249.16 178.03 249.45 190.25 205.09 192.14 178.79 221.12 178.79 335 144.05 335"/><path class="cls-2" d="M105.07,119.31l12.79,13.92,11.27,12.27,8.07-14.57,3.7-6.68-6.53,27-1.15,4.78,2.53,4.21,19.33,32.22,6.47,10.79,10.47-7,19.33-12.89,5.44-3.63-.1-6.54-.49-31.73,6.25,16.77,5.14,13.8,12.48-7.82,12.31-7.72-5.07,5.66-15.1,16.85,22.42,3,8.65,1.17,0,1.22-36,1.53-5,.21L199,190l-23.06,25.41-3.11,3.43V329H150V210.46l-1.27-2.54L137.63,185.7l-1.88-3.75-3.8-1.76L108,169.09l.82.12,23,3.32-10.65-20.69-16.62-32.29.44-.25M151,81.22l-24.31,43.9-19.22-20.93-18.8,10.59,21.91,42.56L73.34,152l-4.76,12,58.32,27.06L138,213.3V341h46.75V223.44L207.85,198l47.73-2L255,172.78l-18.79-2.55L251,153.8l-12.44-15.26-24.83,15.57-17.34-46.52-12.64,2.78,1,63.07-19.33,12.89L146,154.11l15.92-66L151,81.22Z"/><line class="cls-3" x1="198" y1="335" x2="600" y2="335"/><text class="cls-4" transform="translate(211.72 281.66)">20 inches</text><text class="cls-4" transform="translate(362.52 390.66)">10 <tspan class="cls-5" x="33.11" y="0">f</tspan><tspan x="41.38" y="0">eet</tspan></text><text class="cls-4" transform="translate(270.32 390.66)">5 <tspan class="cls-5" x="19.51" y="0">f</tspan><tspan x="27.79" y="0">eet</tspan></text><text class="cls-4" transform="translate(556.18 390.66)">20 <tspan class="cls-5" x="33.11" y="0">f</tspan><tspan x="41.38" y="0">eet</tspan></text><line class="cls-3" x1="594" y1="329" x2="594" y2="359"/><line class="cls-3" x1="399" y1="329" x2="399" y2="359"/><line class="cls-3" x1="301.5" y1="329" x2="301.5" y2="359"/><line class="cls-3" x1="191" y1="257.89" x2="191" y2="287.89"/><line class="cls-3" x1="132" y1="257.89" x2="132" y2="287.89"/><line class="cls-3" x1="136.5" y1="272.89" x2="187.5" y2="272.89"/></svg>