<svg id="Layer_1" data-name="Layer 1" xmlns="http://www.w3.org/2000/svg" viewBox="0 0 980 489"><defs><style>.cls-1,.cls-5,.cls-6{fill:none;stroke-width:12px;}.cls-1{stroke:#ff715b;}.cls-1,.cls-5,.cls-6,.cls-8{stroke-miterlimit:10;}.cls-2{fill:#0f0035;}.cls-3{fill:#f5f4f7;}.cls-4{fill:#474454;}.cls-5{stroke:#f9c642;}.cls-6{stroke:#01eaa4;}.cls-7,.cls-8{fill:#fff;}.cls-8{stroke:#716c87;stroke-width:3px;}</style></defs><title>critical-root-zone</title><line class="cls-1" x1="516.92" y1="336.15" x2="614.92" y2="336.15"/><path class="cls-2" d="M493.84,63.39a30.93,30.93,0,0,1,3.3.18,30.13,30.13,0,0,1,20.42,11.19l5.28,6.59,8-2.75A30.08,30.08,0,0,1,540.65,77a30.72,30.72,0,0,1,3.29.18,30.34,30.34,0,0,1,26.91,33.41c-.08.73-.2,1.54-.38,2.47l-1.61,8.45,7.48,4.24a30.37,30.37,0,0,1,13,38.36l-2.91,6.81,4.78,5.66a30.33,30.33,0,0,1-23.1,49.92,31,31,0,0,1-3.3-.18,30,30,0,0,1-13.17-4.66l-6.88-4.44L538.06,222a30.06,30.06,0,0,1-17.68,5.73,30.91,30.91,0,0,1-3.3-.18,30.28,30.28,0,0,1-14.8-5.78l-10.71-8-6.78,11.48A30.44,30.44,0,0,1,458.7,240.2a30.93,30.93,0,0,1-3.3-.18,30.37,30.37,0,0,1-26.91-33.41c.11-1,.27-2,.48-3l2.69-12.82-13-1.55a30.32,30.32,0,0,1-11.26-56.55l7.74-4.37-1.92-8.68a30.34,30.34,0,0,1,29.56-36.9,30.91,30.91,0,0,1,3.31.18,30.51,30.51,0,0,1,6.83,1.55l9.54,3.35L467.37,79a30.34,30.34,0,0,1,26.46-15.58m0-12a42.37,42.37,0,0,0-36.95,21.74A42.41,42.41,0,0,0,447.37,71a42.91,42.91,0,0,0-4.59-.25,42.34,42.34,0,0,0-41.28,51.49,42.32,42.32,0,0,0,15.73,78.92q-.43,2.06-.67,4.2A42.34,42.34,0,0,0,454.11,252a42.28,42.28,0,0,0,41-20.59,42.12,42.12,0,0,0,20.67,8.08,42.8,42.8,0,0,0,4.59.25,42.17,42.17,0,0,0,24.7-8,42.14,42.14,0,0,0,18.39,6.51,42.81,42.81,0,0,0,4.59.25,42.33,42.33,0,0,0,32.26-69.67,42.37,42.37,0,0,0-18.07-53.52c.21-1.13.4-2.27.52-3.43a42.33,42.33,0,0,0-55.85-44.58,42.2,42.2,0,0,0-28.49-15.62,42.83,42.83,0,0,0-4.59-.25Z"/><polygon class="cls-3" points="473.96 336.15 473.96 213.03 461.25 187.66 406.16 162.09 407.1 159.73 451.16 166.08 426.56 118.31 436.19 112.89 457.82 136.45 483.09 90.83 485.02 92.05 469.54 156.24 493.37 195.96 520.66 177.77 519.7 116.32 522.47 115.71 540.56 164.25 567.14 147.59 572.99 154.76 554.15 175.79 579.08 179.18 579.36 191.4 535.01 193.28 508.71 222.27 508.71 336.15 473.96 336.15"/><path class="cls-2" d="M435,120.45l12.79,13.92L459,146.64l8.07-14.57,3.7-6.68-6.53,27-1.15,4.78,2.53,4.21L485,193.65l6.47,10.79,10.47-7,19.33-12.89,5.44-3.63-.1-6.54-.49-31.73,6.25,16.78,5.14,13.8L550,165.42l12.31-7.72-5.07,5.66-15.1,16.85,22.42,3,8.65,1.17,0,1.22-36,1.53-5,.21-3.37,3.71-23.06,25.41-3.11,3.43v110.2H480V211.61l-1.27-2.54-11.14-22.23-1.88-3.75-3.8-1.76L438,170.24l.82.12,23,3.32L451.17,153,434.55,120.7l.44-.25m45.93-38.09-24.31,43.9-19.22-20.93-18.8,10.59,21.91,42.56-37.24-5.37-4.76,12,58.32,27.06L468,214.45v127.7h46.75V224.58l23.06-25.41,47.73-2L585,173.92l-18.79-2.55,14.71-16.42-12.44-15.26-24.83,15.57-17.34-46.52-12.64,2.78,1,63.07-19.33,12.89-19.33-32.22,15.92-66-10.95-6.91Z"/><path class="cls-4" d="M712.24,318.14H709.4V304.43l-4.18,1.43v-2.39l6.66-2.45h.36Z"/><path class="cls-4" d="M729.29,311a9.31,9.31,0,0,1-1.38,5.55,4.86,4.86,0,0,1-4.19,1.87,4.93,4.93,0,0,1-4.17-1.82,8.91,8.91,0,0,1-1.44-5.4v-3a9.17,9.17,0,0,1,1.38-5.52,5.74,5.74,0,0,1,8.38,0,8.89,8.89,0,0,1,1.41,5.37Zm-2.85-3.19a7.22,7.22,0,0,0-.66-3.52,2.51,2.51,0,0,0-4.14-.06,6.67,6.67,0,0,0-.69,3.31v3.87a7.41,7.41,0,0,0,.67,3.56,2.24,2.24,0,0,0,2.1,1.17,2.2,2.2,0,0,0,2-1.08,7,7,0,0,0,.69-3.39Z"/><path class="cls-4" d="M733.66,301.61l-.3,4.58h-1.86v-6h2.17Z"/><path class="cls-4" d="M610.11,309.68l.93-8.6h9.16v2.46h-6.8l-.47,4.08a5.27,5.27,0,0,1,2.67-.68,4.75,4.75,0,0,1,3.79,1.56,6.18,6.18,0,0,1,1.35,4.2,5.68,5.68,0,0,1-1.5,4.14,5.47,5.47,0,0,1-4.11,1.54,5.73,5.73,0,0,1-3.88-1.33,4.81,4.81,0,0,1-1.67-3.51h2.75a3,3,0,0,0,.89,1.9,2.71,2.71,0,0,0,1.9.66,2.45,2.45,0,0,0,2-.94,4,4,0,0,0,.73-2.55,3.58,3.58,0,0,0-.81-2.47,2.83,2.83,0,0,0-2.23-.91,3.11,3.11,0,0,0-2.48,1Z"/><path class="cls-4" d="M624.84,301.61l-.3,4.58h-1.86v-6h2.17Z"/><path class="cls-4" d="M606.66,285.84H607a2.1,2.1,0,0,0,2.36-1.72l2.5-11.77a3.57,3.57,0,0,0,.09-.67q0-1-1.73-1h-.3l.21-1h6.73a7,7,0,0,1,5,1.69,6.38,6.38,0,0,1,1.77,4.83,11.17,11.17,0,0,1-2.61,7.6,8.79,8.79,0,0,1-7,3h-7.56Zm6.84-.21A6.53,6.53,0,0,0,619,283a11.26,11.26,0,0,0,2-7q0-5.06-4.56-5.06h-1.9l-3.14,14.72Z"/><path class="cls-4" d="M625.87,275l.21-1h4.3l-1.63,7.71a13.9,13.9,0,0,0-.36,2.66q0,1.22.8,1.22a3.56,3.56,0,0,0,1.72-.62l.43.7a5.05,5.05,0,0,1-3.25,1.43,1.8,1.8,0,0,1-1.44-.64,2.42,2.42,0,0,1-.55-1.63,22.71,22.71,0,0,1,.54-3.77l.93-4.41a3.18,3.18,0,0,0,.08-.63q0-1-1.46-1Zm3.89-3.41a1.18,1.18,0,0,1-1.35-1.31,1.83,1.83,0,0,1,.39-1.22,1.31,1.31,0,0,1,1-.46,1.18,1.18,0,0,1,1.35,1.32,1.75,1.75,0,0,1-.4,1.25A1.36,1.36,0,0,1,629.76,271.58Z"/><path class="cls-4" d="M640.36,277.53a3.05,3.05,0,0,0-.57-1.93,1.9,1.9,0,0,0-1.59-.73,2.41,2.41,0,0,0-1.71.58,1.93,1.93,0,0,0-.63,1.48,1.8,1.8,0,0,0,.6,1.36,6.64,6.64,0,0,0,1.85,1.11q2.88,1.29,2.88,3.73a3.49,3.49,0,0,1-1.36,2.86,5.6,5.6,0,0,1-3.61,1.09,5,5,0,0,1-2.89-.73,2.28,2.28,0,0,1-1.07-2,1.54,1.54,0,0,1,.43-1.18,1.52,1.52,0,0,1,1.08-.4,3.41,3.41,0,0,0,.72,2.31,2.54,2.54,0,0,0,2,.83q2.59,0,2.59-2.23a2,2,0,0,0-.55-1.45,6.08,6.08,0,0,0-1.87-1.2,5.75,5.75,0,0,1-2.31-1.69,3.52,3.52,0,0,1-.59-2,3.12,3.12,0,0,1,1.28-2.57,5.28,5.28,0,0,1,3.35-1,5,5,0,0,1,2.76.66,1.91,1.91,0,0,1,1,1.62Q642.17,277.53,640.36,277.53Z"/><path class="cls-4" d="M650,285l.41.89a5.56,5.56,0,0,1-3.23,1.15q-2.61,0-2.61-2.8a9.87,9.87,0,0,1,.23-2l1.46-6.91h-1.83l.22-1q2.34,0,3.67-3.36h1.1l-.62,3h2.91l-.29,1.37h-2.91l-1.45,6.84a11,11,0,0,0-.29,2.06,1.14,1.14,0,0,0,1.28,1.31A4.12,4.12,0,0,0,650,285Z"/><path class="cls-4" d="M660.41,283.22h-.15q-1.72,3.86-4.49,3.86a2.63,2.63,0,0,1-2.28-1.15,5.53,5.53,0,0,1-.81-3.23,10.2,10.2,0,0,1,2.06-6.13,6.12,6.12,0,0,1,5.09-2.82,4.63,4.63,0,0,1,2.81.87l1.05-.61h.77l-1.64,7.69a13.44,13.44,0,0,0-.35,2.66q0,1.22.79,1.22a3.68,3.68,0,0,0,1.73-.62l.43.7a5.35,5.35,0,0,1-3.39,1.43q-1.87,0-1.87-2A8.79,8.79,0,0,1,660.41,283.22Zm1.36-7.54a2,2,0,0,0-1.82-.87q-2.05,0-3.44,2.61a11.27,11.27,0,0,0-1.39,5.36q0,2.78,1.51,2.78,1.2,0,2.51-1.77a9.6,9.6,0,0,0,1.73-3.87Z"/><path class="cls-4" d="M668.84,286.85H666.6l2-9.64a5.5,5.5,0,0,0,.14-1.08q0-1.14-1.68-1.14h-.19l.21-1h4.44l-.64,3h.23q1.95-3.23,4.37-3.23t2.57,2.66a13.79,13.79,0,0,1-.43,2.64L677,281.9a12,12,0,0,0-.32,2.52q0,1.15.84,1.15a2.88,2.88,0,0,0,1.54-.55l.43.7a4.64,4.64,0,0,1-2.93,1.36,2.05,2.05,0,0,1-1.59-.64,2.48,2.48,0,0,1-.59-1.75,17,17,0,0,1,.46-3.25l.55-2.48a10.3,10.3,0,0,0,.35-2.24q0-1.42-1.1-1.42-1.34,0-2.74,1.8a9.16,9.16,0,0,0-1.8,3.6Z"/><path class="cls-4" d="M689.55,283.85a.65.65,0,0,1,.25.6,2.31,2.31,0,0,1-1.13,1.8,5,5,0,0,1-3,.84,4.51,4.51,0,0,1-3.39-1.32,5,5,0,0,1-1.29-3.63,9.2,9.2,0,0,1,2-5.76,6.22,6.22,0,0,1,5.12-2.62,4.4,4.4,0,0,1,2.58.66,2,2,0,0,1,.93,1.64,1.5,1.5,0,0,1-.58,1.21,2.36,2.36,0,0,1-1.55.48,3.81,3.81,0,0,0-.49-2.06,1.53,1.53,0,0,0-1.36-.78q-1.68,0-2.92,2.51a11,11,0,0,0-1.25,4.91q0,3.26,2.64,3.26A4.22,4.22,0,0,0,689.55,283.85Z"/><path class="cls-4" d="M701.23,283.85a.65.65,0,0,1,.25.6,2.31,2.31,0,0,1-1.13,1.8,5,5,0,0,1-3,.84,4.51,4.51,0,0,1-3.39-1.32,5,5,0,0,1-1.29-3.63,9.2,9.2,0,0,1,2-5.76,6.22,6.22,0,0,1,5.12-2.62,3.49,3.49,0,0,1,2.36.73,2.54,2.54,0,0,1,.84,2,4.13,4.13,0,0,1-2,3.39,8.29,8.29,0,0,1-4.94,1.44h-.41l-.43,0a7.83,7.83,0,0,0,0,1q0,3.26,2.64,3.26A4.3,4.3,0,0,0,701.23,283.85Zm-5.82-3.64h.23a5.68,5.68,0,0,0,3.5-1,3.19,3.19,0,0,0,1.38-2.67q0-1.61-1.39-1.61a2.76,2.76,0,0,0-2.17,1.46A11,11,0,0,0,695.41,280.2Z"/><path class="cls-4" d="M718.11,275.35h-2.7L712.91,287a9.31,9.31,0,0,1-1.82,4.24,4.3,4.3,0,0,1-3.39,1.34,5.18,5.18,0,0,1-1.39-.2l.22-1.1a4.18,4.18,0,0,0,1.1.16,2.09,2.09,0,0,0,1.83-1,10.6,10.6,0,0,0,1.2-3.42l2.52-11.71H711l.14-.87,2.31-.5.26-1.31q.84-4.3,4.56-4.3a4.43,4.43,0,0,1,2.31.49,1.47,1.47,0,0,1,.78,1.29q0,1.56-2,1.56,0-2.24-1.22-2.24a1.55,1.55,0,0,0-1.37.73,6.19,6.19,0,0,0-.77,2.25L715.7,274h2.66Z"/><path class="cls-4" d="M726.67,277.22q0-1.9-1-1.9-1.11,0-2.36,2.19a17.36,17.36,0,0,0-1.85,5l-.9,4.37h-2.24l2-9.64a5.5,5.5,0,0,0,.14-1.08q0-1.14-1.91-1.14h-.2l.22-1h4.24l-.5,3.46h.25a8.19,8.19,0,0,1,1.9-2.92,3.32,3.32,0,0,1,2.18-.77q2,0,2,1.65Q728.66,277.22,726.67,277.22Z"/><path class="cls-4" d="M736.71,273.74a4.4,4.4,0,0,1,3.34,1.28,5.14,5.14,0,0,1,1.22,3.69,9.34,9.34,0,0,1-2,5.78,6.15,6.15,0,0,1-5.14,2.58,4.39,4.39,0,0,1-3.39-1.31,5.15,5.15,0,0,1-1.22-3.64,9.29,9.29,0,0,1,2-5.81A6.22,6.22,0,0,1,736.71,273.74Zm-2.27,12.16q2,0,3.16-2.35a11.46,11.46,0,0,0,1.18-5.21q0-3.34-2.34-3.34-2,0-3.16,2.36a11.32,11.32,0,0,0-1.21,5.24Q732.06,285.91,734.44,285.91Z"/><path class="cls-4" d="M753.1,286.85h-2.29a22.08,22.08,0,0,1,.3-2.49q.3-2,.52-2.91l.55-2.48a10.3,10.3,0,0,0,.35-2.24q0-1.42-1.1-1.42-1.34,0-2.75,1.82a9,9,0,0,0-1.79,3.58l-1.29,6.14h-2.24l2-9.64a5.5,5.5,0,0,0,.14-1.08q0-1.14-1.68-1.14h-.19l.21-1h4.44l-.64,3h.23q1.95-3.23,4.37-3.23t2.57,2.66a3.49,3.49,0,0,1,0,.57H755q2-3.23,4.37-3.23,2.57,0,2.57,2.66a13.79,13.79,0,0,1-.43,2.64l-.62,2.84a11.91,11.91,0,0,0-.3,2.52q0,1.15.83,1.15A2.88,2.88,0,0,0,763,285l.43.7a4.51,4.51,0,0,1-2.93,1.36,2.06,2.06,0,0,1-1.58-.64,2.47,2.47,0,0,1-.6-1.75,17,17,0,0,1,.46-3.25l.41-1.87a20.06,20.06,0,0,0,.5-2.85q0-1.42-1.11-1.42a3.54,3.54,0,0,0-2.54,1.58,9.51,9.51,0,0,0-1.84,3.3l-.39,1.72q-.15.66-.42,2.57T753.1,286.85Z"/><path class="cls-4" d="M777.27,285l.41.89a5.56,5.56,0,0,1-3.23,1.15q-2.61,0-2.61-2.8a9.87,9.87,0,0,1,.23-2l1.46-6.91h-1.83l.22-1q2.34,0,3.67-3.36h1.1l-.62,3H779l-.29,1.37h-2.91l-1.45,6.84a11,11,0,0,0-.29,2.06,1.14,1.14,0,0,0,1.28,1.31A4.12,4.12,0,0,0,777.27,285Z"/><path class="cls-4" d="M788.25,277.22q0-1.9-1-1.9-1.11,0-2.36,2.19a17.36,17.36,0,0,0-1.85,5l-.9,4.37h-2.24l2-9.64a5.5,5.5,0,0,0,.14-1.08q0-1.14-1.91-1.14H780l.22-1h4.24l-.5,3.46h.25a8.19,8.19,0,0,1,1.9-2.92,3.32,3.32,0,0,1,2.18-.77q2,0,2,1.65Q790.25,277.22,788.25,277.22Z"/><path class="cls-4" d="M799.74,283.85a.65.65,0,0,1,.25.6,2.31,2.31,0,0,1-1.13,1.8,5,5,0,0,1-3,.84,4.51,4.51,0,0,1-3.39-1.32,5,5,0,0,1-1.29-3.63,9.2,9.2,0,0,1,2-5.76,6.22,6.22,0,0,1,5.12-2.62,3.49,3.49,0,0,1,2.36.73,2.54,2.54,0,0,1,.84,2,4.13,4.13,0,0,1-2,3.39,8.29,8.29,0,0,1-4.94,1.44h-.41l-.43,0a7.83,7.83,0,0,0,0,1q0,3.26,2.64,3.26A4.3,4.3,0,0,0,799.74,283.85Zm-5.82-3.64h.23a5.68,5.68,0,0,0,3.5-1A3.19,3.19,0,0,0,799,276.5q0-1.61-1.39-1.61a2.76,2.76,0,0,0-2.17,1.46A11,11,0,0,0,793.91,280.2Z"/><path class="cls-4" d="M811.57,283.85a.65.65,0,0,1,.25.6,2.31,2.31,0,0,1-1.13,1.8,5,5,0,0,1-3,.84,4.51,4.51,0,0,1-3.39-1.32,5,5,0,0,1-1.29-3.63,9.2,9.2,0,0,1,2-5.76,6.22,6.22,0,0,1,5.12-2.62,3.49,3.49,0,0,1,2.36.73,2.54,2.54,0,0,1,.84,2,4.13,4.13,0,0,1-2,3.39,8.29,8.29,0,0,1-4.94,1.44H806l-.43,0a7.83,7.83,0,0,0,0,1q0,3.26,2.64,3.26A4.3,4.3,0,0,0,811.57,283.85Zm-5.82-3.64H806a5.68,5.68,0,0,0,3.5-1,3.19,3.19,0,0,0,1.38-2.67q0-1.61-1.39-1.61a2.76,2.76,0,0,0-2.17,1.46A11,11,0,0,0,805.75,280.2Z"/><path class="cls-4" d="M411.55,428.34a.91.91,0,0,1,.32.8,2.51,2.51,0,0,1-1.34,2,6.54,6.54,0,0,1-3.68.9A6.77,6.77,0,0,1,402,430.4a6.26,6.26,0,0,1-1.75-4.75,11.73,11.73,0,0,1,2.84-7.87,8.91,8.91,0,0,1,7.05-3.32,6.24,6.24,0,0,1,3.27.72,2.2,2.2,0,0,1,1.17,2,1.64,1.64,0,0,1-.64,1.36,2.7,2.7,0,0,1-1.71.5q0-3.26-2.39-3.26-3,0-5,3.23a13.16,13.16,0,0,0-2,7.06q0,4.49,4.27,4.49A5.31,5.31,0,0,0,411.55,428.34Z"/><path class="cls-4" d="M423.39,422.22q0-1.9-1-1.9-1.11,0-2.36,2.19a17.36,17.36,0,0,0-1.85,5l-.9,4.37h-2.24l2-9.64a5.5,5.5,0,0,0,.14-1.08q0-1.14-1.91-1.14h-.2l.22-1h4.24l-.5,3.46h.25a8.19,8.19,0,0,1,1.9-2.92,3.32,3.32,0,0,1,2.18-.77q2,0,2,1.65Q425.38,422.22,423.39,422.22Z"/><path class="cls-4" d="M426.74,420l.21-1h4.3l-1.63,7.71a13.9,13.9,0,0,0-.36,2.66q0,1.22.8,1.22a3.56,3.56,0,0,0,1.72-.62l.43.7a5.05,5.05,0,0,1-3.25,1.43,1.8,1.8,0,0,1-1.44-.64,2.42,2.42,0,0,1-.55-1.63,22.71,22.71,0,0,1,.54-3.77l.93-4.41a3.18,3.18,0,0,0,.08-.63q0-1-1.46-1Zm3.89-3.41a1.18,1.18,0,0,1-1.35-1.31,1.83,1.83,0,0,1,.39-1.22,1.31,1.31,0,0,1,1-.46,1.18,1.18,0,0,1,1.35,1.32,1.75,1.75,0,0,1-.4,1.25A1.36,1.36,0,0,1,430.63,416.58Z"/><path class="cls-4" d="M439.77,430l.41.89a5.56,5.56,0,0,1-3.23,1.15q-2.61,0-2.61-2.8a9.87,9.87,0,0,1,.23-2l1.46-6.91H434.2l.22-1q2.34,0,3.67-3.36h1.1l-.62,3h2.91l-.29,1.37h-2.91l-1.45,6.84a11,11,0,0,0-.29,2.06,1.14,1.14,0,0,0,1.28,1.31A4.12,4.12,0,0,0,439.77,430Z"/><path class="cls-4" d="M442.88,420l.21-1h4.3l-1.63,7.71a13.9,13.9,0,0,0-.36,2.66q0,1.22.8,1.22a3.56,3.56,0,0,0,1.72-.62l.43.7a5.05,5.05,0,0,1-3.25,1.43,1.8,1.8,0,0,1-1.44-.64,2.42,2.42,0,0,1-.55-1.63,22.71,22.71,0,0,1,.54-3.77l.93-4.41a3.18,3.18,0,0,0,.08-.63q0-1-1.46-1Zm3.89-3.41a1.18,1.18,0,0,1-1.35-1.31,1.83,1.83,0,0,1,.39-1.22,1.31,1.31,0,0,1,1-.46,1.18,1.18,0,0,1,1.35,1.32,1.75,1.75,0,0,1-.4,1.25A1.36,1.36,0,0,1,446.77,416.58Z"/><path class="cls-4" d="M458.31,428.85a.65.65,0,0,1,.25.6,2.31,2.31,0,0,1-1.13,1.8,5,5,0,0,1-3,.84,4.51,4.51,0,0,1-3.39-1.32,5,5,0,0,1-1.29-3.63,9.2,9.2,0,0,1,2-5.76,6.22,6.22,0,0,1,5.12-2.62,4.4,4.4,0,0,1,2.58.66,2,2,0,0,1,.93,1.64,1.5,1.5,0,0,1-.58,1.21,2.36,2.36,0,0,1-1.55.48,3.81,3.81,0,0,0-.49-2.06,1.53,1.53,0,0,0-1.36-.78q-1.68,0-2.92,2.51a11,11,0,0,0-1.25,4.91q0,3.26,2.64,3.26A4.22,4.22,0,0,0,458.31,428.85Z"/><path class="cls-4" d="M469.14,428.22H469q-1.72,3.86-4.49,3.86a2.63,2.63,0,0,1-2.28-1.15,5.53,5.53,0,0,1-.81-3.23,10.2,10.2,0,0,1,2.06-6.13,6.12,6.12,0,0,1,5.09-2.82,4.63,4.63,0,0,1,2.81.87l1.05-.61h.77l-1.64,7.69a13.44,13.44,0,0,0-.35,2.66q0,1.22.79,1.22a3.68,3.68,0,0,0,1.73-.62l.43.7a5.35,5.35,0,0,1-3.39,1.43q-1.87,0-1.87-2A8.79,8.79,0,0,1,469.14,428.22Zm1.36-7.54a2,2,0,0,0-1.82-.87q-2.05,0-3.44,2.61a11.27,11.27,0,0,0-1.39,5.36q0,2.78,1.51,2.78,1.2,0,2.51-1.77a9.6,9.6,0,0,0,1.73-3.87Z"/><path class="cls-4" d="M476.7,414.62l.21-1h4.54l-2.78,13.08a13.75,13.75,0,0,0-.36,2.66q0,1.22.8,1.22a3.56,3.56,0,0,0,1.72-.62l.43.7a5.05,5.05,0,0,1-3.25,1.43,1.81,1.81,0,0,1-1.42-.63,2.39,2.39,0,0,1-.56-1.64,22.15,22.15,0,0,1,.53-3.77l2-9.21a5.68,5.68,0,0,0,.15-1.08q0-1.12-1.69-1.12Z"/><path class="cls-4" d="M497.17,422.22q0-1.9-1-1.9-1.11,0-2.36,2.19a17.36,17.36,0,0,0-1.85,5l-.9,4.37h-2.24l2-9.64a5.5,5.5,0,0,0,.14-1.08q0-1.14-1.91-1.14h-.2l.22-1h4.24l-.5,3.46h.25a8.19,8.19,0,0,1,1.9-2.92,3.32,3.32,0,0,1,2.18-.77q2,0,2,1.65Q499.16,422.22,497.17,422.22Z"/><path class="cls-4" d="M507.21,418.74a4.4,4.4,0,0,1,3.34,1.28,5.14,5.14,0,0,1,1.22,3.69,9.34,9.34,0,0,1-2,5.78,6.15,6.15,0,0,1-5.14,2.58,4.39,4.39,0,0,1-3.39-1.31,5.15,5.15,0,0,1-1.22-3.64,9.29,9.29,0,0,1,2-5.81A6.22,6.22,0,0,1,507.21,418.74Zm-2.27,12.16q2,0,3.16-2.35a11.46,11.46,0,0,0,1.18-5.21q0-3.34-2.34-3.34-2,0-3.16,2.36a11.32,11.32,0,0,0-1.21,5.24Q502.56,430.91,504.94,430.91Z"/><path class="cls-4" d="M521,418.74a4.4,4.4,0,0,1,3.34,1.28,5.14,5.14,0,0,1,1.22,3.69,9.34,9.34,0,0,1-2,5.78,6.15,6.15,0,0,1-5.14,2.58,4.39,4.39,0,0,1-3.39-1.31,5.15,5.15,0,0,1-1.22-3.64,9.29,9.29,0,0,1,2-5.81A6.22,6.22,0,0,1,521,418.74Zm-2.27,12.16q2,0,3.16-2.35a11.46,11.46,0,0,0,1.18-5.21q0-3.34-2.34-3.34-2,0-3.16,2.36a11.32,11.32,0,0,0-1.21,5.24Q516.34,430.91,518.72,430.91Z"/><path class="cls-4" d="M533.81,430l.41.89a5.56,5.56,0,0,1-3.23,1.15q-2.61,0-2.61-2.8a9.87,9.87,0,0,1,.23-2l1.46-6.91h-1.83l.22-1q2.34,0,3.67-3.36h1.1l-.62,3h2.91l-.29,1.37h-2.91l-1.45,6.84a11,11,0,0,0-.29,2.06,1.14,1.14,0,0,0,1.28,1.31A4.12,4.12,0,0,0,533.81,430Z"/><path class="cls-4" d="M548.88,430.47a1.69,1.69,0,0,0,1-.36,4.14,4.14,0,0,0,1-1.61l.23-.55h1l-.94,3.89h-9.6l.19-1L550,420.35h-3a1.88,1.88,0,0,0-1.28.4,4.85,4.85,0,0,0-1,1.55l0,.09h-1l1-3.41H553l-.2,1-8.18,10.51Z"/><path class="cls-4" d="M562.11,418.74a4.4,4.4,0,0,1,3.34,1.28,5.14,5.14,0,0,1,1.22,3.69,9.34,9.34,0,0,1-2,5.78,6.15,6.15,0,0,1-5.14,2.58,4.39,4.39,0,0,1-3.39-1.31,5.15,5.15,0,0,1-1.22-3.64,9.29,9.29,0,0,1,2-5.81A6.22,6.22,0,0,1,562.11,418.74Zm-2.27,12.16q2,0,3.16-2.35a11.46,11.46,0,0,0,1.18-5.21q0-3.34-2.34-3.34-2,0-3.16,2.36a11.32,11.32,0,0,0-1.21,5.24Q557.46,430.91,559.84,430.91Z"/><path class="cls-4" d="M571,431.85h-2.24l2-9.64a5.5,5.5,0,0,0,.14-1.08q0-1.14-1.68-1.14h-.19l.21-1h4.44l-.64,3h.23q1.95-3.23,4.37-3.23t2.57,2.66a13.79,13.79,0,0,1-.43,2.64l-.62,2.84a12,12,0,0,0-.32,2.52q0,1.15.84,1.15a2.88,2.88,0,0,0,1.54-.55l.43.7a4.64,4.64,0,0,1-2.93,1.36,2.05,2.05,0,0,1-1.59-.64,2.48,2.48,0,0,1-.59-1.75,17,17,0,0,1,.46-3.25l.55-2.48a10.3,10.3,0,0,0,.35-2.24q0-1.42-1.1-1.42-1.34,0-2.74,1.8a9.16,9.16,0,0,0-1.8,3.6Z"/><path class="cls-4" d="M591.71,428.85a.65.65,0,0,1,.25.6,2.31,2.31,0,0,1-1.13,1.8,5,5,0,0,1-3,.84,4.51,4.51,0,0,1-3.39-1.32,5,5,0,0,1-1.29-3.63,9.2,9.2,0,0,1,2-5.76,6.22,6.22,0,0,1,5.12-2.62,3.49,3.49,0,0,1,2.36.73,2.54,2.54,0,0,1,.84,2,4.13,4.13,0,0,1-2,3.39,8.29,8.29,0,0,1-4.94,1.44h-.41l-.43,0a7.83,7.83,0,0,0,0,1q0,3.26,2.64,3.26A4.3,4.3,0,0,0,591.71,428.85Zm-5.82-3.64h.23a5.68,5.68,0,0,0,3.5-1A3.19,3.19,0,0,0,591,421.5q0-1.61-1.39-1.61a2.76,2.76,0,0,0-2.17,1.46A11,11,0,0,0,585.89,425.2Z"/><path class="cls-4" d="M423.2,287.14H411.72v-2l5.68-6.2a14.15,14.15,0,0,0,1.75-2.29,3.71,3.71,0,0,0,.52-1.85,2.8,2.8,0,0,0-.69-2,2.38,2.38,0,0,0-1.85-.75A2.74,2.74,0,0,0,415,273a3.32,3.32,0,0,0-.76,2.31h-2.85a5.58,5.58,0,0,1,.71-2.81,4.88,4.88,0,0,1,2-1.94,6.45,6.45,0,0,1,3-.69,5.77,5.77,0,0,1,3.92,1.25,4.33,4.33,0,0,1,1.44,3.45,5.86,5.86,0,0,1-.72,2.68,15.23,15.23,0,0,1-2.36,3.18l-4.17,4.46h7.92Z"/><path class="cls-4" d="M436.48,280a9.31,9.31,0,0,1-1.38,5.55,4.86,4.86,0,0,1-4.19,1.87,4.93,4.93,0,0,1-4.17-1.82,8.91,8.91,0,0,1-1.44-5.4v-3a9.17,9.17,0,0,1,1.38-5.52,5.74,5.74,0,0,1,8.38,0,8.89,8.89,0,0,1,1.41,5.37Zm-2.85-3.19a7.22,7.22,0,0,0-.66-3.52,2.51,2.51,0,0,0-4.14-.06,6.67,6.67,0,0,0-.69,3.31v3.87a7.41,7.41,0,0,0,.67,3.56,2.24,2.24,0,0,0,2.1,1.17,2.2,2.2,0,0,0,2-1.08,7,7,0,0,0,.69-3.39Z"/><path class="cls-4" d="M440.95,270.75l-.41,4.54h-1.63v-6.14h2Zm3.53,0-.41,4.54h-1.63v-6.14h2Z"/><path class="cls-4" d="M297.66,285.84H298a2.1,2.1,0,0,0,2.36-1.72l2.5-11.77a3.57,3.57,0,0,0,.09-.67q0-1-1.73-1h-.3l.21-1h6.73a7,7,0,0,1,5,1.69,6.38,6.38,0,0,1,1.77,4.83,11.17,11.17,0,0,1-2.61,7.6,8.79,8.79,0,0,1-7,3h-7.56Zm6.84-.21A6.53,6.53,0,0,0,310,283a11.26,11.26,0,0,0,2-7q0-5.06-4.56-5.06h-1.9l-3.14,14.72Z"/><path class="cls-4" d="M316.87,275l.21-1h4.3l-1.63,7.71a13.9,13.9,0,0,0-.36,2.66q0,1.22.8,1.22a3.56,3.56,0,0,0,1.72-.62l.43.7a5.05,5.05,0,0,1-3.25,1.43,1.8,1.8,0,0,1-1.44-.64,2.42,2.42,0,0,1-.55-1.63,22.71,22.71,0,0,1,.54-3.77l.93-4.41a3.18,3.18,0,0,0,.08-.63q0-1-1.46-1Zm3.89-3.41a1.18,1.18,0,0,1-1.35-1.31,1.83,1.83,0,0,1,.39-1.22,1.31,1.31,0,0,1,1-.46,1.18,1.18,0,0,1,1.35,1.32,1.75,1.75,0,0,1-.4,1.25A1.36,1.36,0,0,1,320.76,271.58Z"/><path class="cls-4" d="M331.45,283.22h-.15q-1.72,3.86-4.49,3.86a2.63,2.63,0,0,1-2.28-1.15,5.53,5.53,0,0,1-.81-3.23,10.2,10.2,0,0,1,2.06-6.13,6.12,6.12,0,0,1,5.09-2.82,4.63,4.63,0,0,1,2.81.87l1.05-.61h.77l-1.64,7.69a13.44,13.44,0,0,0-.35,2.66q0,1.22.79,1.22a3.68,3.68,0,0,0,1.73-.62l.43.7a5.35,5.35,0,0,1-3.39,1.43q-1.87,0-1.87-2A8.79,8.79,0,0,1,331.45,283.22Zm1.36-7.54a2,2,0,0,0-1.82-.87q-2.05,0-3.44,2.61a11.27,11.27,0,0,0-1.39,5.36q0,2.78,1.51,2.78,1.2,0,2.51-1.77a9.6,9.6,0,0,0,1.73-3.87Z"/><path class="cls-4" d="M347.36,286.85h-2.29a22.08,22.08,0,0,1,.3-2.49q.3-2,.52-2.91l.55-2.48a10.3,10.3,0,0,0,.35-2.24q0-1.42-1.1-1.42-1.34,0-2.75,1.82a9,9,0,0,0-1.79,3.58l-1.29,6.14h-2.24l2-9.64a5.5,5.5,0,0,0,.14-1.08q0-1.14-1.68-1.14h-.19l.21-1h4.44l-.64,3h.23q1.95-3.23,4.37-3.23t2.57,2.66a3.49,3.49,0,0,1,0,.57h.23q2-3.23,4.37-3.23,2.57,0,2.57,2.66a13.79,13.79,0,0,1-.43,2.64l-.62,2.84a11.91,11.91,0,0,0-.3,2.52q0,1.15.83,1.15a2.88,2.88,0,0,0,1.54-.55l.43.7a4.51,4.51,0,0,1-2.93,1.36,2.06,2.06,0,0,1-1.58-.64,2.47,2.47,0,0,1-.6-1.75,17,17,0,0,1,.46-3.25l.41-1.87a20.06,20.06,0,0,0,.5-2.85q0-1.42-1.11-1.42a3.54,3.54,0,0,0-2.54,1.58,9.51,9.51,0,0,0-1.84,3.3l-.39,1.72q-.15.66-.42,2.57T347.36,286.85Z"/><path class="cls-4" d="M367.7,283.85a.65.65,0,0,1,.25.6,2.31,2.31,0,0,1-1.13,1.8,5,5,0,0,1-3,.84,4.51,4.51,0,0,1-3.39-1.32,5,5,0,0,1-1.29-3.63,9.2,9.2,0,0,1,2-5.76,6.22,6.22,0,0,1,5.12-2.62,3.49,3.49,0,0,1,2.36.73,2.54,2.54,0,0,1,.84,2,4.13,4.13,0,0,1-2,3.39,8.29,8.29,0,0,1-4.94,1.44h-.41l-.43,0a7.83,7.83,0,0,0,0,1q0,3.26,2.64,3.26A4.3,4.3,0,0,0,367.7,283.85Zm-5.82-3.64h.23a5.68,5.68,0,0,0,3.5-1A3.19,3.19,0,0,0,367,276.5q0-1.61-1.39-1.61a2.76,2.76,0,0,0-2.17,1.46A11,11,0,0,0,361.88,280.2Z"/><path class="cls-4" d="M377.14,285l.41.89a5.56,5.56,0,0,1-3.23,1.15q-2.61,0-2.61-2.8a9.87,9.87,0,0,1,.23-2l1.46-6.91h-1.83l.22-1q2.34,0,3.67-3.36h1.1l-.62,3h2.91l-.29,1.37h-2.91l-1.45,6.84a11,11,0,0,0-.29,2.06,1.14,1.14,0,0,0,1.28,1.31A4.12,4.12,0,0,0,377.14,285Z"/><path class="cls-4" d="M388.38,283.85a.65.65,0,0,1,.25.6,2.31,2.31,0,0,1-1.13,1.8,5,5,0,0,1-3,.84,4.51,4.51,0,0,1-3.39-1.32,5,5,0,0,1-1.29-3.63,9.2,9.2,0,0,1,2-5.76,6.22,6.22,0,0,1,5.12-2.62,3.49,3.49,0,0,1,2.36.73,2.54,2.54,0,0,1,.84,2,4.13,4.13,0,0,1-2,3.39,8.29,8.29,0,0,1-4.94,1.44h-.41l-.43,0a7.83,7.83,0,0,0,0,1q0,3.26,2.64,3.26A4.3,4.3,0,0,0,388.38,283.85Zm-5.82-3.64h.23a5.68,5.68,0,0,0,3.5-1,3.19,3.19,0,0,0,1.38-2.67q0-1.61-1.39-1.61a2.76,2.76,0,0,0-2.17,1.46A11,11,0,0,0,382.55,280.2Z"/><path class="cls-4" d="M400,277.22q0-1.9-1-1.9-1.11,0-2.36,2.19a17.36,17.36,0,0,0-1.85,5l-.9,4.37h-2.24l2-9.64a5.5,5.5,0,0,0,.14-1.08q0-1.14-1.91-1.14h-.2l.22-1h4.24l-.5,3.46h.25a8.19,8.19,0,0,1,1.9-2.92,3.32,3.32,0,0,1,2.18-.77q2,0,2,1.65Q401.95,277.22,400,277.22Z"/><path class="cls-4" d="M917,318.14H905.53v-2l5.68-6.2a14.15,14.15,0,0,0,1.75-2.29,3.71,3.71,0,0,0,.52-1.85,2.8,2.8,0,0,0-.69-2,2.38,2.38,0,0,0-1.85-.75,2.74,2.74,0,0,0-2.14.84,3.32,3.32,0,0,0-.76,2.31H905.2a5.58,5.58,0,0,1,.71-2.81,4.88,4.88,0,0,1,2-1.94,6.45,6.45,0,0,1,3-.69,5.77,5.77,0,0,1,3.92,1.25,4.33,4.33,0,0,1,1.44,3.45,5.86,5.86,0,0,1-.72,2.68,15.23,15.23,0,0,1-2.36,3.18l-4.17,4.46H917Z"/><path class="cls-4" d="M930.29,311a9.31,9.31,0,0,1-1.38,5.55,4.86,4.86,0,0,1-4.19,1.87,4.93,4.93,0,0,1-4.17-1.82,8.91,8.91,0,0,1-1.44-5.4v-3a9.17,9.17,0,0,1,1.38-5.52,5.74,5.74,0,0,1,8.38,0,8.89,8.89,0,0,1,1.41,5.37Zm-2.85-3.19a7.22,7.22,0,0,0-.66-3.52,2.51,2.51,0,0,0-4.14-.06,6.67,6.67,0,0,0-.69,3.31v3.87a7.41,7.41,0,0,0,.67,3.56,2.24,2.24,0,0,0,2.1,1.17,2.2,2.2,0,0,0,2-1.08,7,7,0,0,0,.69-3.39Z"/><path class="cls-4" d="M934.66,301.61l-.3,4.58h-1.86v-6h2.17Z"/><line class="cls-5" x1="616.92" y1="336.15" x2="716.92" y2="336.15"/><line class="cls-6" x1="718.92" y1="336.15" x2="918.92" y2="336.15"/><line class="cls-1" x1="465.92" y1="336.15" x2="363.92" y2="336.15"/><line class="cls-5" x1="361.92" y1="336.15" x2="261.92" y2="336.15"/><line class="cls-6" x1="259.92" y1="336.15" x2="59.92" y2="336.15"/><path class="cls-4" d="M658.64,368.8h-2.17v-6.69l-2.36.56V361l4.3-1.39h.22Z"/><path class="cls-4" d="M663.49,375.4l-1.46-.84,8.33-13.34,1.46.84Z"/><path class="cls-4" d="M680.42,376.68h-7.17v-1.46l3.34-3.06q1.32-1.21,1.32-2a1.08,1.08,0,0,0-.32-.8,1.27,1.27,0,0,0-.93-.31,1.44,1.44,0,0,0-1.07.39,1.38,1.38,0,0,0-.39,1H673a2.91,2.91,0,0,1,1-2.26,3.69,3.69,0,0,1,2.57-.9,4,4,0,0,1,2.59.75,2.56,2.56,0,0,1,.91,2.1,3.44,3.44,0,0,1-1.24,2.45l-1.15,1-1.64,1.32h4.35Z"/><path class="cls-4" d="M303.64,368.8h-2.17v-6.69l-2.36.56V361l4.3-1.39h.22Z"/><path class="cls-4" d="M308.49,375.4l-1.46-.84,8.33-13.34,1.46.84Z"/><path class="cls-4" d="M325.42,376.68h-7.17v-1.46l3.34-3.06q1.32-1.21,1.32-2a1.08,1.08,0,0,0-.32-.8,1.27,1.27,0,0,0-.93-.31,1.44,1.44,0,0,0-1.07.39,1.38,1.38,0,0,0-.39,1H318a2.91,2.91,0,0,1,1-2.26,3.69,3.69,0,0,1,2.57-.9,4,4,0,0,1,2.59.75,2.56,2.56,0,0,1,.91,2.1,3.44,3.44,0,0,1-1.24,2.45l-1.15,1-1.64,1.32h4.35Z"/><path class="cls-4" d="M488.64,368.8h-2.17v-6.69l-2.36.56V361l4.3-1.39h.22Z"/><path class="cls-4" d="M493.49,375.4l-1.46-.84,8.33-13.34,1.46.84Z"/><path class="cls-4" d="M509.44,373h1.11v1.77h-1.11v1.91h-2.19v-1.91h-4.2l-.11-1.42,4.28-5.92h2.21Zm-4.37,0h2.18v-2.84l-.16.26Z"/><rect class="cls-7" x="486.92" y="252.46" width="9" height="55" transform="translate(771.38 -211.45) rotate(90)"/><line class="cls-8" x1="463.42" y1="279.96" x2="519.42" y2="279.96"/><line class="cls-8" x1="519.42" y1="269.96" x2="519.42" y2="289.96"/><line class="cls-8" x1="463.42" y1="269.96" x2="463.42" y2="289.96"/><line class="cls-8" x1="58.42" y1="391.96" x2="921.42" y2="391.96"/><line class="cls-8" x1="919.92" y1="381.96" x2="919.92" y2="392.05"/><line class="cls-8" x1="59.92" y1="381.96" x2="59.92" y2="392.05"/><line class="cls-8" x1="364.42" y1="382.06" x2="364.42" y2="392.15"/><line class="cls-8" x1="617.42" y1="382.06" x2="617.42" y2="392.15"/><line class="cls-8" x1="719.42" y1="382.06" x2="719.42" y2="392.15"/><line class="cls-8" x1="261.42" y1="382.06" x2="261.42" y2="392.15"/></svg>