<svg id="Layer_1" data-name="Layer 1" xmlns="http://www.w3.org/2000/svg" viewBox="0 0 683 399"><defs><style>.cls-1{fill:#474454;}.cls-2,.cls-5{fill:#716c87;}.cls-3{fill:#01eaa4;}.cls-4,.cls-6{fill:#fff;}.cls-5{stroke:#fff;stroke-miterlimit:10;stroke-width:12px;}.cls-6,.cls-7{font-size:24px;font-family:Roboto-Bold, Roboto;font-weight:700;}.cls-10,.cls-7{fill:#0f0035;}.cls-8{letter-spacing:-0.01em;}.cls-9{fill:#d6d4dc;}.cls-11{letter-spacing:0.01em;}.cls-12{letter-spacing:-0.01em;}.cls-13{letter-spacing:-0.01em;}</style></defs><title>easement-setback-impervious-cover</title><rect class="cls-1" x="8" y="315.16" width="667" height="75.84"/><rect class="cls-2" x="8" y="10" width="667" height="305.46"/><rect class="cls-3" x="78.77" y="79.36" width="526.12" height="169.72"/><path class="cls-4" d="M598.9,85.36V243.08H84.77V85.36H598.9m12-12H72.77V255.08H610.9V73.36Z"/><line class="cls-5" x1="8.29" y1="315.46" x2="675.38" y2="315.46"/><text class="cls-6" transform="translate(432.55 363.25)">easement</text><text class="cls-6" transform="translate(442.91 51.39)">setback</text><text class="cls-7" transform="translate(410.05 167.75)">buildable a<tspan class="cls-8" x="117.75" y="0">r</tspan><tspan x="126.28" y="0">ea</tspan></text><polygon class="cls-9" points="218.29 393.52 218.29 206.87 136.22 206.87 136.22 109.84 358.7 109.84 358.7 206.87 276.63 206.87 276.63 393.52 218.29 393.52"/><path class="cls-4" d="M352.7,115.84v85H270.63V387.52H224.29V200.87H142.22v-85H352.7m12-12H130.22v109h82.07V399.52h70.34V212.87H364.7v-109Z"/><path class="cls-10" d="M671,11.5V387.28H11.5V11.5H671m12-12H-.5V399.28H683V-.5Z"/><text class="cls-7" transform="translate(187.57 154.86)">impe<tspan class="cls-11" x="53.63" y="0">r</tspan><tspan x="62.59" y="0">vious</tspan><tspan x="30.4" y="25.79">c</tspan><tspan class="cls-12" x="42.92" y="25.79">o</tspan><tspan class="cls-13" x="56.31" y="25.79">v</tspan><tspan x="68.29" y="25.79">er</tspan></text></svg>