<svg id="Layer_1" data-name="Layer 1" xmlns="http://www.w3.org/2000/svg" viewBox="0 0 683 399"><defs><style>.cls-1,.cls-5{fill:#fff;}.cls-2{fill:#716c87;}.cls-3,.cls-4{fill:none;stroke:#716c87;}.cls-3,.cls-4,.cls-5{stroke-miterlimit:10;stroke-width:3px;}.cls-4{stroke-dasharray:12.2 12.2;}.cls-5{stroke:#474454;}.cls-6{fill:#474454;}</style></defs><title>easement-setback-impervious-cover</title><rect class="cls-1" x="73.77" y="73.36" width="538.12" height="181.72"/><path class="cls-2" d="M611.9,73.36h-12v3h12v-3Zm-24,0h-12v3h12v-3Zm-24,0h-12v3h12v-3Zm-24,0h-12v3h12v-3Zm-24,0h-12v3h12v-3Zm-24,0h-12v3h12v-3Zm-24,0h-12v3h12v-3Zm-24,0h-12v3h12v-3Zm-24,0h-12v3h12v-3Zm-24,0h-12v3h12v-3Zm-24,0h-12v3h12v-3Zm-24,0h-12v3h12v-3Zm-24,0h-12v3h12v-3Zm-24,0h-12v3h12v-3Zm-24,0h-12v3h12v-3Zm-24,0h-12v3h12v-3Zm-24,0h-12v3h12v-3Zm-24,0h-12v3h12v-3Zm-24,0h-12v3h12v-3Zm-24,0h-12v3h12v-3Zm-24,0h-12v3h12v-3Zm-24,0h-12v3h12v-3Zm-24,0H73.77v3H83.9v-3ZM76.77,87.24h-3v12h3v-12Zm0,24h-3v12h3v-12Zm0,24h-3v12h3v-12Zm0,24h-3v12h3v-12Zm0,24h-3v12h3v-12Zm0,24h-3v12h3v-12Zm0,24h-3v12h3v-12Zm9.16,20.84h-12v3h12v-3Zm24,0h-12v3h12v-3Zm24,0h-12v3h12v-3Zm24,0h-12v3h12v-3Zm24,0h-12v3h12v-3Zm24,0h-12v3h12v-3Zm24,0h-12v3h12v-3Zm24,0h-12v3h12v-3Zm24,0h-12v3h12v-3Zm24,0h-12v3h12v-3Zm24,0h-12v3h12v-3Zm24,0h-12v3h12v-3Zm24,0h-12v3h12v-3Zm24,0h-12v3h12v-3Zm24,0h-12v3h12v-3Zm24,0h-12v3h12v-3Zm24,0h-12v3h12v-3Zm24,0h-12v3h12v-3Zm24,0h-12v3h12v-3Zm24,0h-12v3h12v-3Zm24,0h-12v3h12v-3Zm24,0h-12v3h12v-3Zm22,0h-10v3h10v-3Zm0-23h-3v12h3V229Zm0-24h-3v12h3V205Zm0-24h-3v12h3V181Zm0-24h-3v12h3V157Zm0-24h-3v12h3V133Zm0-24h-3v12h3V109Zm0-24h-3V97h3V85Z"/><line class="cls-3" x1="4.5" y1="332.5" x2="10.5" y2="332.5"/><line class="cls-4" x1="22.7" y1="332.5" x2="675.4" y2="332.5"/><line class="cls-3" x1="681.5" y1="332.5" x2="687.5" y2="332.5"/><polyline class="cls-5" points="263.63 399 263.63 218.87 365.7 218.87 365.7 109.84 131.22 109.84 131.22 218.87 233.29 218.87 233.29 399"/><path class="cls-6" d="M159.31,171.62l.21-1.06h.26a4.72,4.72,0,0,0,.61,0,1.63,1.63,0,0,0,.54-.17,1.27,1.27,0,0,0,.42-.36,1.49,1.49,0,0,0,.26-.62l2.08-9.82a1.48,1.48,0,0,0,.06-.24,1.27,1.27,0,0,0,0-.21.55.55,0,0,0-.11-.35.67.67,0,0,0-.3-.21,1.72,1.72,0,0,0-.46-.1l-.58,0h-.25l.21-1.05h6.9L169,158.4h-.25a4.52,4.52,0,0,0-.64,0,1.82,1.82,0,0,0-.56.17,1.26,1.26,0,0,0-.44.37,1.52,1.52,0,0,0-.26.63l-2.06,9.8,0,.24a1.09,1.09,0,0,0,0,.21.53.53,0,0,0,.11.35.69.69,0,0,0,.3.21,1.78,1.78,0,0,0,.46.1l.58,0h.26l-.22,1.06Z"/><path class="cls-6" d="M183.78,171.76a2.56,2.56,0,0,1-1.76-.55,1.92,1.92,0,0,1-.62-1.51,8.52,8.52,0,0,1,.07-1q.07-.6.24-1.36l.34-1.58c0-.13.07-.29.11-.48s.08-.39.12-.59.07-.41.09-.62a4.37,4.37,0,0,0,0-.55,2.42,2.42,0,0,0,0-.39,1.21,1.21,0,0,0-.12-.37.75.75,0,0,0-.24-.27.69.69,0,0,0-.4-.11,1.1,1.1,0,0,0-.64.22,3.27,3.27,0,0,0-.62.59,5.76,5.76,0,0,0-.57.84q-.27.47-.49,1a10.31,10.31,0,0,0-.38,1,6.55,6.55,0,0,0-.22.87l-.16.84c0,.14-.06.32-.09.56l-.11.77-.12.84q-.06.43-.1.8t-.07.63c0,.18,0,.29,0,.34h-3.11c0-.08,0-.21,0-.41s.05-.42.09-.69.08-.55.14-.85l.16-.92c.05-.31.1-.6.16-.87s.1-.52.15-.72l.3-1.4.09-.47.11-.59c0-.21.07-.41.09-.62a4.48,4.48,0,0,0,0-.56c0-.12,0-.25,0-.38a1.33,1.33,0,0,0-.08-.36.61.61,0,0,0-.2-.26.57.57,0,0,0-.36-.1,1.23,1.23,0,0,0-.66.21,2.94,2.94,0,0,0-.63.55,5.79,5.79,0,0,0-.58.78,9,9,0,0,0-.49.9,9.79,9.79,0,0,0-.38.92,6.44,6.44,0,0,0-.24.83l-1.12,5h-3l1.68-8c0-.08,0-.17.05-.26l0-.26,0-.21a1.21,1.21,0,0,0,0-.13,1.35,1.35,0,0,0-.06-.44.5.5,0,0,0-.19-.25.76.76,0,0,0-.33-.12,3.41,3.41,0,0,0-.48,0h-.36l.18-1.06h4.64l-.38,2h.15a6.58,6.58,0,0,1,.81-1,4.18,4.18,0,0,1,.87-.69,3.53,3.53,0,0,1,1-.39,4.77,4.77,0,0,1,1.11-.12,2.72,2.72,0,0,1,1,.18,1.73,1.73,0,0,1,.67.48,1.88,1.88,0,0,1,.37.69,3,3,0,0,1,.11.83V163h.12a7.87,7.87,0,0,1,.77-1,4.17,4.17,0,0,1,.85-.75,3.62,3.62,0,0,1,1-.45,4.34,4.34,0,0,1,1.18-.15,2.56,2.56,0,0,1,1,.19,1.83,1.83,0,0,1,.68.5,1.91,1.91,0,0,1,.38.73,3.32,3.32,0,0,1,.11.87,4,4,0,0,1,0,.54c0,.19-.06.39-.09.58s-.08.39-.12.59-.08.38-.11.56l-.46,2.14q-.13.54-.21,1a5.63,5.63,0,0,0-.08.9,1,1,0,0,0,.19.67.63.63,0,0,0,.52.23,1.37,1.37,0,0,0,.57-.12,5,5,0,0,0,.61-.34l.48.68a6.36,6.36,0,0,1-.55.5,3.85,3.85,0,0,1-1.51.76A4.06,4.06,0,0,1,183.78,171.76Z"/><path class="cls-6" d="M186.57,176.42l2.71-12.76c0-.08,0-.17.05-.26l0-.26,0-.21a1.21,1.21,0,0,0,0-.13,1.35,1.35,0,0,0-.06-.44.5.5,0,0,0-.19-.25.76.76,0,0,0-.33-.12,3.41,3.41,0,0,0-.48,0H188l.18-1.06h4.31l-.52,2.67h.14a13.35,13.35,0,0,1,.7-1.15,4.74,4.74,0,0,1,.8-.91,3.27,3.27,0,0,1,1-.59,3.67,3.67,0,0,1,1.3-.21,3,3,0,0,1,1.2.23,2.44,2.44,0,0,1,.92.69,3.27,3.27,0,0,1,.59,1.13,5.24,5.24,0,0,1,.21,1.55,7.77,7.77,0,0,1-.17,1.56,9.41,9.41,0,0,1-.51,1.67,9.16,9.16,0,0,1-.85,1.61,6.54,6.54,0,0,1-1.21,1.36,5.78,5.78,0,0,1-1.56.95,5.25,5.25,0,0,1-3,.23,3.59,3.59,0,0,1-.91-.34,3,3,0,0,1,0,.32c0,.09,0,.19,0,.31s0,.23-.07.34l-.28,1.34c0,.08,0,.17-.05.26l0,.26,0,.21a1.21,1.21,0,0,0,0,.13,1.35,1.35,0,0,0,.06.44.5.5,0,0,0,.19.25.76.76,0,0,0,.33.12,3.41,3.41,0,0,0,.48,0h.76l-.18,1.06Zm9.24-12a5.72,5.72,0,0,0-.05-.8,2.94,2.94,0,0,0-.18-.69,1.27,1.27,0,0,0-.33-.49.76.76,0,0,0-.52-.19,1.3,1.3,0,0,0-.66.19,2.92,2.92,0,0,0-.63.51,4.86,4.86,0,0,0-.58.74,8.5,8.5,0,0,0-.49.87,8.74,8.74,0,0,0-.38.91,6.14,6.14,0,0,0-.24.86L191,170a1.85,1.85,0,0,0,.57.37,2.67,2.67,0,0,0,.41.13,1.91,1.91,0,0,0,.45.05,1.84,1.84,0,0,0,1-.29,3.26,3.26,0,0,0,.84-.78,5.9,5.9,0,0,0,.67-1.12,9,9,0,0,0,.49-1.3,10.64,10.64,0,0,0,.3-1.34A8.19,8.19,0,0,0,195.81,164.46Z"/><path class="cls-6" d="M205.66,170.3a3,3,0,0,0,.93-.14,3.84,3.84,0,0,0,1.49-.89,4.28,4.28,0,0,0,.51-.59,1.1,1.1,0,0,1,.19.38,1.67,1.67,0,0,1,.07.48,1.52,1.52,0,0,1-.23.76,2.39,2.39,0,0,1-.72.74,4.24,4.24,0,0,1-1.23.56,6.32,6.32,0,0,1-1.77.22,5.74,5.74,0,0,1-1.73-.25,4.09,4.09,0,0,1-1.42-.77,3.58,3.58,0,0,1-1-1.29,4.38,4.38,0,0,1-.35-1.82,6.65,6.65,0,0,1,.2-1.55,7.51,7.51,0,0,1,.58-1.59,7.8,7.8,0,0,1,1-1.47,6.6,6.6,0,0,1,1.32-1.23,6.4,6.4,0,0,1,1.68-.83,6.47,6.47,0,0,1,2-.31,3.53,3.53,0,0,1,2.23.62,2.08,2.08,0,0,1,.79,1.73,3,3,0,0,1-.45,1.55,4.4,4.4,0,0,1-1.24,1.3,6.47,6.47,0,0,1-1.88.89,8.18,8.18,0,0,1-2.38.33h-.36l-.38,0a3.13,3.13,0,0,0,0,.4c0,.13,0,.26,0,.37a2.67,2.67,0,0,0,.54,1.79A2,2,0,0,0,205.66,170.3Zm.7-8.4a1.43,1.43,0,0,0-.93.37,3.7,3.7,0,0,0-.79,1,7.06,7.06,0,0,0-.61,1.31,8.64,8.64,0,0,0-.37,1.44h.18a4.7,4.7,0,0,0,1.38-.2,3.44,3.44,0,0,0,1.11-.56,2.68,2.68,0,0,0,.74-.87,2.41,2.41,0,0,0,.27-1.14,1.55,1.55,0,0,0-.26-1A.86.86,0,0,0,206.37,161.9Z"/><path class="cls-6" d="M212.89,162.66a.59.59,0,0,0-.24-.53,1.53,1.53,0,0,0-.81-.16h-.36l.18-1.06h4.42l-.42,2.74h.1a11.7,11.7,0,0,1,.69-1.27,4.35,4.35,0,0,1,.76-.92,2.85,2.85,0,0,1,.94-.56,3.62,3.62,0,0,1,1.23-.19,2.57,2.57,0,0,1,1.58.4,1.38,1.38,0,0,1,.52,1.16,1.9,1.9,0,0,1-.61,1.54,2.67,2.67,0,0,1-1.76.51,6.89,6.89,0,0,0,0-.82,2.24,2.24,0,0,0-.16-.62.93.93,0,0,0-.3-.4.79.79,0,0,0-.47-.14,1,1,0,0,0-.6.23,3.26,3.26,0,0,0-.62.63,6.81,6.81,0,0,0-.61,1q-.3.55-.57,1.2t-.5,1.36q-.22.71-.38,1.45l-.76,3.46h-3l1.7-8,.07-.44A3.11,3.11,0,0,0,212.89,162.66Z"/><path class="cls-6" d="M223.25,163a1.74,1.74,0,0,0-.17-.52.91.91,0,0,0-.28-.32,1.11,1.11,0,0,0-.41-.17,2.58,2.58,0,0,0-.53,0h-.2l.23-1.06h3.93l.92,5.92q.15,1,.21,1.81t.11,1.29h.06a17.46,17.46,0,0,0,1.31-1.51,15.62,15.62,0,0,0,1.1-1.63,9.9,9.9,0,0,0,.76-1.58,4,4,0,0,0,.28-1.38,1.2,1.2,0,0,0-.38-1,1.43,1.43,0,0,0-.94-.31,1.86,1.86,0,0,1,.45-1.31,1.57,1.57,0,0,1,1.21-.49,1.66,1.66,0,0,1,.59.1,1.22,1.22,0,0,1,.48.33,1.59,1.59,0,0,1,.32.58,2.7,2.7,0,0,1,.12.85,5.7,5.7,0,0,1-.25,1.63,11.33,11.33,0,0,1-.67,1.7,15.36,15.36,0,0,1-1,1.68q-.54.83-1.11,1.56t-1.13,1.37q-.56.63-1,1.08l-2.64.2Z"/><path class="cls-6" d="M239.13,160.9l-1.39,6.5q-.12.55-.2,1a5.54,5.54,0,0,0-.08.89,1.09,1.09,0,0,0,.18.67.61.61,0,0,0,.51.23,1.4,1.4,0,0,0,.58-.12,4.32,4.32,0,0,0,.61-.34l.48.67a5.33,5.33,0,0,1-.54.5,3.82,3.82,0,0,1-.68.44,3.94,3.94,0,0,1-1.84.43,2.59,2.59,0,0,1-1.77-.54,1.91,1.91,0,0,1-.62-1.51,8.11,8.11,0,0,1,.08-1q.08-.6.24-1.36l.78-3.72c0-.08,0-.17.05-.26l0-.26,0-.21a1.21,1.21,0,0,0,0-.13,1.35,1.35,0,0,0-.06-.44.5.5,0,0,0-.19-.25.76.76,0,0,0-.33-.12,3.41,3.41,0,0,0-.48,0h-.36l.18-1.06Zm-1.39-1.8a2.45,2.45,0,0,1-.62-.07,1.41,1.41,0,0,1-.49-.23,1.13,1.13,0,0,1-.33-.39,1.17,1.17,0,0,1-.12-.55,1.68,1.68,0,0,1,.15-.75,1.45,1.45,0,0,1,.41-.51,1.65,1.65,0,0,1,.6-.29,2.7,2.7,0,0,1,.71-.09,2.65,2.65,0,0,1,.61.07,1.44,1.44,0,0,1,.51.22,1.13,1.13,0,0,1,.48,1,1.53,1.53,0,0,1-.16.72,1.48,1.48,0,0,1-.43.51,1.87,1.87,0,0,1-.61.3A2.55,2.55,0,0,1,237.74,159.1Z"/><path class="cls-6" d="M240.95,167.62a7.23,7.23,0,0,1,.18-1.55,7.67,7.67,0,0,1,.53-1.57,7.42,7.42,0,0,1,.89-1.46,6,6,0,0,1,1.26-1.21,6.11,6.11,0,0,1,1.65-.82,6.54,6.54,0,0,1,2-.3,5.37,5.37,0,0,1,1.62.24,3.44,3.44,0,0,1,2.23,2.05,4.94,4.94,0,0,1,.33,1.91,7.39,7.39,0,0,1-.17,1.51,7.54,7.54,0,0,1-1.39,3,6,6,0,0,1-2.9,2.07,6.34,6.34,0,0,1-2.05.31,5.44,5.44,0,0,1-1.72-.26,3.44,3.44,0,0,1-2.21-2.09A5,5,0,0,1,240.95,167.62Zm4.6,2.76a1.64,1.64,0,0,0,1-.31,3.21,3.21,0,0,0,.78-.81,5.66,5.66,0,0,0,.6-1.15,9.73,9.73,0,0,0,.42-1.33,12.93,12.93,0,0,0,.24-1.34,9.52,9.52,0,0,0,.08-1.19,2.78,2.78,0,0,0-.41-1.7,1.33,1.33,0,0,0-1.11-.52,1.63,1.63,0,0,0-.94.29,3.11,3.11,0,0,0-.78.78,5.77,5.77,0,0,0-.61,1.12,10.19,10.19,0,0,0-.44,1.3,10.49,10.49,0,0,0-.27,1.34,9.47,9.47,0,0,0-.09,1.23,2.89,2.89,0,0,0,.41,1.75A1.36,1.36,0,0,0,245.55,170.38Z"/><path class="cls-6" d="M260.25,169.9c0-.06,0-.13,0-.21s0-.16,0-.24l0-.24a1.81,1.81,0,0,1,0-.19h-.17q-.44.62-.86,1.13a5.69,5.69,0,0,1-.9.87,3.82,3.82,0,0,1-1,.57,3.74,3.74,0,0,1-1.27.2,2.86,2.86,0,0,1-1.08-.18,1.76,1.76,0,0,1-1.08-1.19,3,3,0,0,1-.12-.84,5.7,5.7,0,0,1,.12-1.09q.12-.6.22-1.1l.72-3.53c.05-.27.09-.52.13-.74a3.81,3.81,0,0,0,0-.5.54.54,0,0,0-.24-.53A1.88,1.88,0,0,0,254,162h-.36l.18-1.06h4.8l-1.32,6q-.06.23-.12.53t-.11.59c0,.2-.06.38-.08.56a3.64,3.64,0,0,0,0,.45,1.17,1.17,0,0,0,.19.7.78.78,0,0,0,.67.26,1.41,1.41,0,0,0,.9-.4,5,5,0,0,0,.89-1,8.48,8.48,0,0,0,.76-1.41,9.2,9.2,0,0,0,.51-1.53L262,160.9h3l-1.36,6.5q-.13.55-.21,1a5.54,5.54,0,0,0-.08.89,1.09,1.09,0,0,0,.18.67.62.62,0,0,0,.52.23,1.37,1.37,0,0,0,.57-.12,4.48,4.48,0,0,0,.6-.34l.49.67a6.36,6.36,0,0,1-.55.5,3.85,3.85,0,0,1-1.51.76,4.06,4.06,0,0,1-1,.12,3.47,3.47,0,0,1-1.11-.15,1.94,1.94,0,0,1-.72-.41,1.47,1.47,0,0,1-.39-.61A2.32,2.32,0,0,1,260.25,169.9Z"/><path class="cls-6" d="M270.43,170.62a2.71,2.71,0,0,0,.76-.1,1.87,1.87,0,0,0,.61-.29,1.39,1.39,0,0,0,.4-.47,1.35,1.35,0,0,0,.15-.64,1.34,1.34,0,0,0-.13-.61,1.54,1.54,0,0,0-.41-.49,4.2,4.2,0,0,0-.7-.45l-1-.51a8.22,8.22,0,0,1-1.06-.59,4,4,0,0,1-.81-.69,2.82,2.82,0,0,1-.51-.85,2.92,2.92,0,0,1-.18-1.05,2.76,2.76,0,0,1,.31-1.32,2.88,2.88,0,0,1,.9-1,4.35,4.35,0,0,1,1.42-.63,7.44,7.44,0,0,1,1.89-.22,8,8,0,0,1,1.7.16,3.89,3.89,0,0,1,1.13.42,1.66,1.66,0,0,1,.63.6,1.43,1.43,0,0,1,.19.7,1.25,1.25,0,0,1-.62,1.16,3.32,3.32,0,0,1-1.68.36,4.27,4.27,0,0,0-.08-.81,2.43,2.43,0,0,0-.26-.74,1.6,1.6,0,0,0-.48-.54,1.23,1.23,0,0,0-.72-.21,2,2,0,0,0-.7.11,1.67,1.67,0,0,0-.53.3,1.31,1.31,0,0,0-.34.44,1.29,1.29,0,0,0-.12.55,1.2,1.2,0,0,0,.13.58,1.48,1.48,0,0,0,.41.46,4.17,4.17,0,0,0,.71.42l1,.47a7,7,0,0,1,1.11.62,3.67,3.67,0,0,1,.78.71,2.71,2.71,0,0,1,.46.84,3.19,3.19,0,0,1,.15,1,3.34,3.34,0,0,1-.31,1.46,2.88,2.88,0,0,1-.92,1.09,4.51,4.51,0,0,1-1.52.69,8.32,8.32,0,0,1-2.11.24,7.61,7.61,0,0,1-1.56-.15,4.05,4.05,0,0,1-1.19-.43,2.19,2.19,0,0,1-.76-.69,1.66,1.66,0,0,1-.27-.93,1.49,1.49,0,0,1,.67-1.31,2.1,2.1,0,0,1,.68-.29,3.34,3.34,0,0,1,.79-.09,4.78,4.78,0,0,0,.11,1,2.72,2.72,0,0,0,.34.86,1.75,1.75,0,0,0,.61.6A1.8,1.8,0,0,0,270.43,170.62Z"/><path class="cls-6" d="M287.51,170.3a3,3,0,0,0,1-.14,3,3,0,0,0,.77-.38,3.4,3.4,0,0,0,.61-.53,5.54,5.54,0,0,0,.47-.6.9.9,0,0,1,.21.35,1.48,1.48,0,0,1,.09.53,1.61,1.61,0,0,1-.23.8,2.24,2.24,0,0,1-.71.73,4.24,4.24,0,0,1-1.23.54,6.54,6.54,0,0,1-1.77.21,5.66,5.66,0,0,1-1.71-.25,3.94,3.94,0,0,1-1.41-.77,3.7,3.7,0,0,1-1-1.29,4.35,4.35,0,0,1-.35-1.82,6.88,6.88,0,0,1,.19-1.55,7.67,7.67,0,0,1,.56-1.58,7.76,7.76,0,0,1,.92-1.47,6.39,6.39,0,0,1,1.28-1.23,6.3,6.3,0,0,1,1.64-.84,6.08,6.08,0,0,1,2-.31,5.27,5.27,0,0,1,1.43.17,3,3,0,0,1,1,.46,1.81,1.81,0,0,1,.76,1.49,1.49,1.49,0,0,1-.13.61,1.46,1.46,0,0,1-.42.54,2.26,2.26,0,0,1-.76.39,3.78,3.78,0,0,1-1.13.15,5.23,5.23,0,0,0-.09-1,3,3,0,0,0-.28-.83,1.66,1.66,0,0,0-.45-.56,1,1,0,0,0-.63-.21,1.3,1.3,0,0,0-.81.29,3.07,3.07,0,0,0-.69.76,5.83,5.83,0,0,0-.55,1.08,11.51,11.51,0,0,0-.41,1.26,10.94,10.94,0,0,0-.26,1.28,8.36,8.36,0,0,0-.09,1.15,2.92,2.92,0,0,0,.56,1.9A2,2,0,0,0,287.51,170.3Z"/><path class="cls-6" d="M292.8,167.62a7.23,7.23,0,0,1,.18-1.55,7.67,7.67,0,0,1,.53-1.57,7.42,7.42,0,0,1,.89-1.46,6,6,0,0,1,1.26-1.21,6.11,6.11,0,0,1,1.65-.82,6.54,6.54,0,0,1,2-.3,5.37,5.37,0,0,1,1.62.24,3.44,3.44,0,0,1,2.23,2.05,4.94,4.94,0,0,1,.33,1.91,7.39,7.39,0,0,1-.17,1.51,7.54,7.54,0,0,1-1.39,3,6,6,0,0,1-2.9,2.07,6.34,6.34,0,0,1-2.05.31,5.44,5.44,0,0,1-1.72-.26,3.44,3.44,0,0,1-2.21-2.09A5,5,0,0,1,292.8,167.62Zm4.6,2.76a1.64,1.64,0,0,0,1-.31,3.21,3.21,0,0,0,.78-.81,5.66,5.66,0,0,0,.6-1.15,9.73,9.73,0,0,0,.42-1.33,12.93,12.93,0,0,0,.24-1.34,9.52,9.52,0,0,0,.08-1.19,2.78,2.78,0,0,0-.41-1.7A1.33,1.33,0,0,0,299,162a1.63,1.63,0,0,0-.94.29,3.11,3.11,0,0,0-.78.78,5.77,5.77,0,0,0-.61,1.12,10.19,10.19,0,0,0-.44,1.3,10.49,10.49,0,0,0-.27,1.34,9.47,9.47,0,0,0-.09,1.23,2.89,2.89,0,0,0,.41,1.75A1.36,1.36,0,0,0,297.4,170.38Z"/><path class="cls-6" d="M306.27,163a1.74,1.74,0,0,0-.17-.52.91.91,0,0,0-.28-.32,1.11,1.11,0,0,0-.41-.17,2.58,2.58,0,0,0-.53,0h-.2l.23-1.06h3.93l.92,5.92q.15,1,.21,1.81t.11,1.29h.06a17.46,17.46,0,0,0,1.31-1.51,15.62,15.62,0,0,0,1.1-1.63,9.9,9.9,0,0,0,.76-1.58,4,4,0,0,0,.28-1.38,1.2,1.2,0,0,0-.38-1,1.43,1.43,0,0,0-.94-.31,1.86,1.86,0,0,1,.45-1.31,1.57,1.57,0,0,1,1.21-.49,1.66,1.66,0,0,1,.59.1,1.22,1.22,0,0,1,.48.33,1.59,1.59,0,0,1,.32.58,2.7,2.7,0,0,1,.12.85,5.7,5.7,0,0,1-.25,1.63,11.33,11.33,0,0,1-.67,1.7,15.36,15.36,0,0,1-1,1.68q-.54.83-1.11,1.56t-1.13,1.37q-.56.63-1,1.08l-2.64.2Z"/><path class="cls-6" d="M322.12,170.3a3,3,0,0,0,.93-.14,3.84,3.84,0,0,0,1.49-.89,4.28,4.28,0,0,0,.51-.59,1.1,1.1,0,0,1,.19.38,1.67,1.67,0,0,1,.07.48,1.52,1.52,0,0,1-.23.76,2.39,2.39,0,0,1-.72.74,4.24,4.24,0,0,1-1.23.56,6.32,6.32,0,0,1-1.77.22,5.74,5.74,0,0,1-1.73-.25,4.09,4.09,0,0,1-1.42-.77,3.58,3.58,0,0,1-1-1.29,4.38,4.38,0,0,1-.35-1.82,6.65,6.65,0,0,1,.2-1.55,7.51,7.51,0,0,1,.58-1.59,7.8,7.8,0,0,1,1-1.47,6.6,6.6,0,0,1,1.32-1.23,6.4,6.4,0,0,1,1.68-.83,6.47,6.47,0,0,1,2-.31,3.53,3.53,0,0,1,2.23.62,2.08,2.08,0,0,1,.79,1.73,3,3,0,0,1-.45,1.55,4.4,4.4,0,0,1-1.24,1.3,6.47,6.47,0,0,1-1.88.89,8.18,8.18,0,0,1-2.38.33h-.36l-.38,0a3.13,3.13,0,0,0,0,.4c0,.13,0,.26,0,.37a2.67,2.67,0,0,0,.54,1.79A2,2,0,0,0,322.12,170.3Zm.7-8.4a1.43,1.43,0,0,0-.93.37,3.7,3.7,0,0,0-.79,1,7.06,7.06,0,0,0-.61,1.31,8.64,8.64,0,0,0-.37,1.44h.18a4.7,4.7,0,0,0,1.38-.2,3.44,3.44,0,0,0,1.11-.56,2.68,2.68,0,0,0,.74-.87,2.41,2.41,0,0,0,.27-1.14,1.55,1.55,0,0,0-.26-1A.86.86,0,0,0,322.82,161.9Z"/><path class="cls-6" d="M329.35,162.66a.59.59,0,0,0-.24-.53,1.53,1.53,0,0,0-.81-.16h-.36l.18-1.06h4.42l-.42,2.74h.1a11.7,11.7,0,0,1,.69-1.27,4.35,4.35,0,0,1,.76-.92,2.85,2.85,0,0,1,.94-.56,3.62,3.62,0,0,1,1.23-.19,2.57,2.57,0,0,1,1.58.4,1.38,1.38,0,0,1,.52,1.16,1.9,1.9,0,0,1-.61,1.54,2.67,2.67,0,0,1-1.76.51,6.89,6.89,0,0,0,0-.82,2.24,2.24,0,0,0-.16-.62.93.93,0,0,0-.3-.4.79.79,0,0,0-.47-.14,1,1,0,0,0-.6.23,3.26,3.26,0,0,0-.62.63,6.81,6.81,0,0,0-.61,1q-.3.55-.57,1.2t-.5,1.36q-.22.71-.38,1.45l-.76,3.46h-3l1.7-8,.07-.44A3.11,3.11,0,0,0,329.35,162.66Z"/><path class="cls-6" d="M452.5,298.05a9.27,9.27,0,0,1-2.17-.22,5.13,5.13,0,0,1-1.54-.62,2.71,2.71,0,0,1-.92-.92,2.27,2.27,0,0,1-.31-1.16,1.7,1.7,0,0,1,.19-.82,1.65,1.65,0,0,1,.54-.59,2.55,2.55,0,0,1,.82-.35,4.37,4.37,0,0,1,1-.12,5.77,5.77,0,0,0,.2,1.59,3.23,3.23,0,0,0,.55,1.12,2.18,2.18,0,0,0,.84.66,2.64,2.64,0,0,0,1.07.21,2.91,2.91,0,0,0,1-.16,2.26,2.26,0,0,0,.75-.44,1.86,1.86,0,0,0,.47-.65,2,2,0,0,0,.16-.81,2.75,2.75,0,0,0-.1-.77,1.92,1.92,0,0,0-.38-.68,3.94,3.94,0,0,0-.75-.67,12.29,12.29,0,0,0-1.23-.75,10.78,10.78,0,0,1-1.37-.88,5.13,5.13,0,0,1-1-1,3.87,3.87,0,0,1-.6-1.16,4.67,4.67,0,0,1-.2-1.42,3.76,3.76,0,0,1,.36-1.65,3.71,3.71,0,0,1,1-1.29,4.9,4.9,0,0,1,1.63-.84,7.21,7.21,0,0,1,2.15-.3,9.47,9.47,0,0,1,1.94.18,5.07,5.07,0,0,1,1.38.48,2.28,2.28,0,0,1,.83.71,1.55,1.55,0,0,1,.27.88,1.51,1.51,0,0,1-.62,1.27,3.39,3.39,0,0,1-2,.46,5.3,5.3,0,0,0-.09-.94,2.89,2.89,0,0,0-.31-.89,2,2,0,0,0-.61-.67,1.66,1.66,0,0,0-1-.26,2.6,2.6,0,0,0-.8.13,2.15,2.15,0,0,0-.71.38,1.94,1.94,0,0,0-.51.64,2,2,0,0,0-.2.91,2,2,0,0,0,.66,1.59,4.69,4.69,0,0,0,.83.62q.5.3,1.17.66a6.6,6.6,0,0,1,2.24,1.81,3.76,3.76,0,0,1,.72,2.27,4.45,4.45,0,0,1-.39,1.89,3.79,3.79,0,0,1-1.1,1.4,5.07,5.07,0,0,1-1.73.86A8.07,8.07,0,0,1,452.5,298.05Z"/><path class="cls-6" d="M465,296.54a3,3,0,0,0,.93-.14,3.84,3.84,0,0,0,1.49-.89,4.28,4.28,0,0,0,.51-.59,1.1,1.1,0,0,1,.19.38,1.67,1.67,0,0,1,.07.48,1.52,1.52,0,0,1-.23.76,2.39,2.39,0,0,1-.72.74,4.24,4.24,0,0,1-1.23.56,6.32,6.32,0,0,1-1.77.22,5.74,5.74,0,0,1-1.73-.25,4.09,4.09,0,0,1-1.42-.77,3.58,3.58,0,0,1-1-1.29,4.38,4.38,0,0,1-.35-1.82,6.65,6.65,0,0,1,.2-1.55,7.51,7.51,0,0,1,.58-1.59,7.8,7.8,0,0,1,1-1.47,6.6,6.6,0,0,1,1.32-1.23,6.4,6.4,0,0,1,1.68-.83,6.47,6.47,0,0,1,2-.31,3.53,3.53,0,0,1,2.23.62,2.08,2.08,0,0,1,.79,1.73,3,3,0,0,1-.45,1.55,4.4,4.4,0,0,1-1.24,1.3A6.47,6.47,0,0,1,466,293a8.18,8.18,0,0,1-2.38.33h-.36l-.38,0a3.13,3.13,0,0,0,0,.4c0,.13,0,.26,0,.37a2.67,2.67,0,0,0,.54,1.79A2,2,0,0,0,465,296.54Zm.7-8.4a1.43,1.43,0,0,0-.93.37,3.7,3.7,0,0,0-.79,1,7.06,7.06,0,0,0-.61,1.31,8.64,8.64,0,0,0-.37,1.44h.18a4.7,4.7,0,0,0,1.38-.2,3.44,3.44,0,0,0,1.11-.56,2.68,2.68,0,0,0,.74-.87,2.41,2.41,0,0,0,.27-1.14,1.55,1.55,0,0,0-.26-1A.86.86,0,0,0,465.73,288.14Z"/><path class="cls-6" d="M475.09,296.42a2.22,2.22,0,0,0,.85-.16,4.36,4.36,0,0,0,.71-.37l.46.76q-.33.28-.7.54a4.82,4.82,0,0,1-.8.44,5,5,0,0,1-.92.3,4.83,4.83,0,0,1-1.07.11,3.55,3.55,0,0,1-1-.14,2.35,2.35,0,0,1-.83-.43,2,2,0,0,1-.55-.73,2.47,2.47,0,0,1-.2-1q0-.18,0-.39t0-.44c0-.15,0-.3.07-.44s.05-.28.08-.41l1.2-5.54H470.9l.21-1a3.4,3.4,0,0,0,.94-.15,4.15,4.15,0,0,0,1-.48,6,6,0,0,0,1.06-.87,7.06,7.06,0,0,0,1-1.31h1.16l-.52,2.46h2.41l-.27,1.37H475.5l-1.2,5.48a7.05,7.05,0,0,0-.15.8,5.28,5.28,0,0,0,0,.64,1,1,0,0,0,.27.75A1,1,0,0,0,475.09,296.42Z"/><path class="cls-6" d="M481.11,285.42l.06-.26c0-.09,0-.18,0-.26l0-.21a1.21,1.21,0,0,0,0-.13,1.35,1.35,0,0,0-.06-.44.5.5,0,0,0-.19-.25.77.77,0,0,0-.33-.12,3.51,3.51,0,0,0-.49,0h-.46l.19-1.05h4.85l-.8,3.8c0,.12-.07.28-.12.47l-.19.62q-.1.33-.22.68l-.23.66-.2.57-.14.39h.1a9,9,0,0,1,.75-1.27,4.46,4.46,0,0,1,.85-.9,3.3,3.3,0,0,1,1-.54,3.75,3.75,0,0,1,1.2-.18,2.9,2.9,0,0,1,1.17.23,2.51,2.51,0,0,1,.92.69,3.3,3.3,0,0,1,.61,1.13,5.06,5.06,0,0,1,.22,1.56,7.67,7.67,0,0,1-.2,1.68,8.66,8.66,0,0,1-.58,1.7,8.79,8.79,0,0,1-.93,1.58,6.74,6.74,0,0,1-1.27,1.31,6.08,6.08,0,0,1-1.59.89,5.43,5.43,0,0,1-2.67.27,5.3,5.3,0,0,1-.71-.16,4.22,4.22,0,0,1-.6-.22,2.37,2.37,0,0,1-.45-.27l-1.13.58h-1.12Zm5.55,5.28a5.15,5.15,0,0,0-.08-1,2.23,2.23,0,0,0-.23-.66,1,1,0,0,0-.34-.37.78.78,0,0,0-.41-.12,1.3,1.3,0,0,0-.71.22,3.1,3.1,0,0,0-.65.57,5.37,5.37,0,0,0-.57.79,9.33,9.33,0,0,0-.46.87q-.2.43-.34.82t-.2.63l-.82,3.78a1.65,1.65,0,0,0,.55.4,1.75,1.75,0,0,0,.75.16,2,2,0,0,0,1.07-.31,3.44,3.44,0,0,0,.88-.81,5.56,5.56,0,0,0,.68-1.15,10.06,10.06,0,0,0,.48-1.32,10.31,10.31,0,0,0,.29-1.32A7.88,7.88,0,0,0,486.66,290.7Z"/><path class="cls-6" d="M500,298.05a2.31,2.31,0,0,1-1.43-.41,1.39,1.39,0,0,1-.54-1.19q0-.31,0-.61t.11-.69H498a14,14,0,0,1-.74,1.24,4.17,4.17,0,0,1-.82.91,3.25,3.25,0,0,1-1,.56,3.94,3.94,0,0,1-1.28.19,2.68,2.68,0,0,1-1.25-.28A2.53,2.53,0,0,1,492,297a3.48,3.48,0,0,1-.54-1.16,5.56,5.56,0,0,1-.18-1.45,7.93,7.93,0,0,1,.18-1.64,8.69,8.69,0,0,1,.54-1.68,8.89,8.89,0,0,1,.89-1.58,6.56,6.56,0,0,1,1.23-1.32,5.84,5.84,0,0,1,1.56-.9,5.27,5.27,0,0,1,2.67-.27,7.84,7.84,0,0,1,.78.16,7.25,7.25,0,0,1,.7.22,4,4,0,0,1,.55.25l1.05-.48h1.06l-1.32,6.24-.1.44q-.06.27-.11.58c0,.21-.07.4-.09.6a3.64,3.64,0,0,0,0,.48,1.18,1.18,0,0,0,.2.74.62.62,0,0,0,.51.24,1.26,1.26,0,0,0,.54-.12l.57-.3.44.8q-.25.2-.58.41a5.11,5.11,0,0,1-.72.39,5,5,0,0,1-.86.29A4.26,4.26,0,0,1,500,298.05Zm-5.62-3.63a4.72,4.72,0,0,0,.08,1,2.11,2.11,0,0,0,.22.63.86.86,0,0,0,.34.34.94.94,0,0,0,.43.1,1.46,1.46,0,0,0,.91-.38,4.4,4.4,0,0,0,.88-1,8.43,8.43,0,0,0,.74-1.4,8.63,8.63,0,0,0,.49-1.58l.7-3.32a1.15,1.15,0,0,0-.54-.42,2,2,0,0,0-1.81.17,3.36,3.36,0,0,0-.87.81,6,6,0,0,0-.69,1.15,9.47,9.47,0,0,0-.5,1.34,10.21,10.21,0,0,0-.3,1.37A8.59,8.59,0,0,0,494.33,294.42Z"/><path class="cls-6" d="M509.86,296.54a3,3,0,0,0,1-.14,3,3,0,0,0,.77-.38,3.4,3.4,0,0,0,.61-.53,5.54,5.54,0,0,0,.47-.6.9.9,0,0,1,.21.35,1.48,1.48,0,0,1,.09.53,1.61,1.61,0,0,1-.23.8,2.24,2.24,0,0,1-.71.73,4.24,4.24,0,0,1-1.23.54,6.54,6.54,0,0,1-1.77.21,5.66,5.66,0,0,1-1.71-.25,3.94,3.94,0,0,1-1.41-.77,3.7,3.7,0,0,1-1-1.29,4.35,4.35,0,0,1-.35-1.82,6.88,6.88,0,0,1,.19-1.55,7.67,7.67,0,0,1,.56-1.58,7.76,7.76,0,0,1,.92-1.47,6.39,6.39,0,0,1,1.28-1.23,6.3,6.3,0,0,1,1.64-.84,6.08,6.08,0,0,1,2-.31,5.27,5.27,0,0,1,1.43.17,3,3,0,0,1,1,.46,1.81,1.81,0,0,1,.76,1.49,1.49,1.49,0,0,1-.13.61,1.46,1.46,0,0,1-.42.54,2.26,2.26,0,0,1-.76.39,3.78,3.78,0,0,1-1.13.15,5.23,5.23,0,0,0-.09-1,3,3,0,0,0-.28-.83,1.66,1.66,0,0,0-.45-.56,1,1,0,0,0-.63-.21,1.3,1.3,0,0,0-.81.29,3.07,3.07,0,0,0-.69.76,5.83,5.83,0,0,0-.55,1.08,11.51,11.51,0,0,0-.41,1.26,10.94,10.94,0,0,0-.26,1.28,8.36,8.36,0,0,0-.09,1.15,2.92,2.92,0,0,0,.56,1.9A2,2,0,0,0,509.86,296.54Z"/><path class="cls-6" d="M518.63,293.87l-.86,4h-3l2.64-12.44.06-.26c0-.09,0-.18,0-.26l0-.21a1.21,1.21,0,0,0,0-.13,1.35,1.35,0,0,0-.06-.44.5.5,0,0,0-.19-.25.77.77,0,0,0-.33-.12,3.51,3.51,0,0,0-.49,0h-.42l.19-1.05h4.83L520,287.53q-.18.79-.31,1.41t-.26,1.18q-.13.56-.27,1.11l-.32,1.22,3.12-2.82a4.35,4.35,0,0,0,.39-.38,3.07,3.07,0,0,0,.23-.29.85.85,0,0,0,.11-.21.57.57,0,0,0,0-.17.35.35,0,0,0-.24-.33,1.71,1.71,0,0,0-.69-.11l.2-1h5l-.2,1a3.11,3.11,0,0,0-1.46.41,8.76,8.76,0,0,0-1.73,1.29l-1.59,1.47,1.49,3.26a7.21,7.21,0,0,0,.63,1.13,4.3,4.3,0,0,0,.57.67,1.54,1.54,0,0,0,.49.33,1.18,1.18,0,0,0,.4.08h.08l-.21,1.06h-1a7.52,7.52,0,0,1-1.31-.1,3.52,3.52,0,0,1-1-.33,2.56,2.56,0,0,1-.75-.59,3,3,0,0,1-.52-.86l-1.18-2.79Z"/><path class="cls-6" d="M410.83,170.56h.26a4.63,4.63,0,0,0,.61,0,1.6,1.6,0,0,0,.54-.17,1.27,1.27,0,0,0,.42-.36,1.49,1.49,0,0,0,.26-.62l2-9.63c0-.13.06-.26.09-.39a1.52,1.52,0,0,0,0-.27.56.56,0,0,0-.11-.35.68.68,0,0,0-.3-.21,1.74,1.74,0,0,0-.46-.1l-.58,0h-.25l.21-1.05h6.2a6.55,6.55,0,0,1,3.5.76,2.49,2.49,0,0,1,1.18,2.24,3.88,3.88,0,0,1-.25,1.45,3.27,3.27,0,0,1-.69,1.08,3.69,3.69,0,0,1-1,.75,5.78,5.78,0,0,1-1.29.45l0,.08a3.46,3.46,0,0,1,1,.33,2.6,2.6,0,0,1,1.27,1.46,3.29,3.29,0,0,1,.18,1.12,4.82,4.82,0,0,1-.37,1.94,3.72,3.72,0,0,1-1.09,1.43,5,5,0,0,1-1.8.88,9.26,9.26,0,0,1-2.5.3h-7.28Zm5-.16h1.39a4.05,4.05,0,0,0,1.44-.22,2.3,2.3,0,0,0,1-.66,2.75,2.75,0,0,0,.54-1.09,5.9,5.9,0,0,0,.17-1.5,2.31,2.31,0,0,0-.5-1.63,2,2,0,0,0-1.54-.53h-1.26Zm1.46-6.87h1.12a2.55,2.55,0,0,0,2-.74,3.15,3.15,0,0,0,.63-2.1,2.3,2.3,0,0,0-.48-1.59,1.79,1.79,0,0,0-1.4-.53h-.89Z"/><path class="cls-6" d="M432.26,169.9c0-.06,0-.13,0-.21s0-.16,0-.24l0-.24a1.86,1.86,0,0,1,0-.19h-.17q-.44.63-.86,1.13a5.66,5.66,0,0,1-.9.87,3.81,3.81,0,0,1-1,.57,3.73,3.73,0,0,1-1.27.2,2.85,2.85,0,0,1-1.08-.18,1.76,1.76,0,0,1-1.08-1.19,3,3,0,0,1-.12-.84,5.7,5.7,0,0,1,.12-1.09q.12-.59.22-1.1l.72-3.53c.05-.27.09-.52.13-.74a3.8,3.8,0,0,0,0-.5.54.54,0,0,0-.24-.53A1.89,1.89,0,0,0,426,162h-.36l.18-1.06h4.8l-1.32,6q-.06.23-.12.53t-.11.59c0,.2-.06.38-.08.56a3.65,3.65,0,0,0,0,.45,1.17,1.17,0,0,0,.19.7.78.78,0,0,0,.67.26,1.41,1.41,0,0,0,.9-.4,5,5,0,0,0,.89-1,8.48,8.48,0,0,0,.76-1.41,9.19,9.19,0,0,0,.51-1.53L434,160.9h3l-1.36,6.5q-.13.55-.21,1a5.55,5.55,0,0,0-.08.89,1.09,1.09,0,0,0,.18.67.62.62,0,0,0,.52.23,1.37,1.37,0,0,0,.57-.12,4.42,4.42,0,0,0,.6-.34l.49.67a6.28,6.28,0,0,1-.55.5,3.85,3.85,0,0,1-1.51.76,4.06,4.06,0,0,1-1,.12,3.46,3.46,0,0,1-1.11-.15,1.93,1.93,0,0,1-.72-.41,1.46,1.46,0,0,1-.39-.61A2.31,2.31,0,0,1,432.26,169.9Z"/><path class="cls-6" d="M444,160.9l-1.39,6.5q-.12.55-.2,1a5.55,5.55,0,0,0-.08.89,1.09,1.09,0,0,0,.18.67.61.61,0,0,0,.51.23,1.4,1.4,0,0,0,.58-.12,4.27,4.27,0,0,0,.61-.34l.48.67a5.27,5.27,0,0,1-.54.5,3.8,3.8,0,0,1-.68.44,3.94,3.94,0,0,1-1.84.43,2.59,2.59,0,0,1-1.77-.54,1.91,1.91,0,0,1-.62-1.51,8.12,8.12,0,0,1,.08-1q.08-.59.24-1.36l.78-3.72c0-.08,0-.17.05-.26l0-.26,0-.21a1.2,1.2,0,0,0,0-.13,1.36,1.36,0,0,0-.06-.44.5.5,0,0,0-.19-.25A.76.76,0,0,0,440,162a3.41,3.41,0,0,0-.48,0h-.36l.18-1.06Zm-1.39-1.8A2.45,2.45,0,0,1,442,159a1.4,1.4,0,0,1-.49-.23,1.13,1.13,0,0,1-.33-.39,1.17,1.17,0,0,1-.12-.55,1.68,1.68,0,0,1,.15-.75,1.46,1.46,0,0,1,.41-.51,1.67,1.67,0,0,1,.6-.29,2.72,2.72,0,0,1,.71-.09,2.67,2.67,0,0,1,.61.07,1.45,1.45,0,0,1,.51.22,1.13,1.13,0,0,1,.48,1,1.53,1.53,0,0,1-.16.72,1.48,1.48,0,0,1-.43.51,1.85,1.85,0,0,1-.61.3A2.53,2.53,0,0,1,442.65,159.1Z"/><path class="cls-6" d="M449.83,170.22a1.4,1.4,0,0,0,.58-.12,4.27,4.27,0,0,0,.61-.34l.48.67a5.27,5.27,0,0,1-.54.5,3.85,3.85,0,0,1-1.51.76,4.06,4.06,0,0,1-1,.12,2.59,2.59,0,0,1-1.77-.54,1.91,1.91,0,0,1-.62-1.51,12.32,12.32,0,0,1,.32-2.38l1.74-8.2.06-.26c0-.09,0-.18,0-.26l0-.21a1.2,1.2,0,0,0,0-.13,1.36,1.36,0,0,0-.06-.44.5.5,0,0,0-.19-.25.77.77,0,0,0-.33-.12,3.51,3.51,0,0,0-.49,0h-.42l.19-1.05h4.83l-2.38,11q-.12.55-.2,1a5.55,5.55,0,0,0-.08.89,1.09,1.09,0,0,0,.18.67A.61.61,0,0,0,449.83,170.22Z"/><path class="cls-6" d="M462.79,167.32l-.08.42c0,.18-.07.37-.1.56s-.06.39-.08.58a4.14,4.14,0,0,0,0,.47.93.93,0,0,0,.21.68.67.67,0,0,0,.49.21,1.39,1.39,0,0,0,.56-.14,5.07,5.07,0,0,0,.55-.28l.44.78a6.5,6.5,0,0,1-.6.43,5.28,5.28,0,0,1-.73.39,4.77,4.77,0,0,1-.85.28,4.24,4.24,0,0,1-1,.11,2.93,2.93,0,0,1-.8-.1,1.85,1.85,0,0,1-.62-.3,1.31,1.31,0,0,1-.4-.49,1.6,1.6,0,0,1-.14-.7c0-.12,0-.23,0-.33s0-.19,0-.29,0-.2,0-.3,0-.23.06-.38h-.12a7.87,7.87,0,0,1-.78,1.32,4.48,4.48,0,0,1-.87.9,3.16,3.16,0,0,1-1,.51,3.94,3.94,0,0,1-1.15.16,2.79,2.79,0,0,1-1.32-.29,2.59,2.59,0,0,1-.91-.79,3.38,3.38,0,0,1-.52-1.16,5.79,5.79,0,0,1-.17-1.41,7.94,7.94,0,0,1,.18-1.64,9,9,0,0,1,1.42-3.27,6.59,6.59,0,0,1,1.21-1.32,5.74,5.74,0,0,1,1.52-.9,4.82,4.82,0,0,1,1.82-.34,4.53,4.53,0,0,1,1.09.13,3.52,3.52,0,0,1,.9.35c0-.08,0-.18.06-.3l.06-.34.07-.32.05-.24.18-.8.06-.26c0-.09,0-.18,0-.26l0-.21a1.2,1.2,0,0,0,0-.13,1.36,1.36,0,0,0-.06-.44.5.5,0,0,0-.19-.25.77.77,0,0,0-.33-.12,3.51,3.51,0,0,0-.49,0h-.46l.19-1.05h4.81Zm-6.83.86a4.66,4.66,0,0,0,.08,1,2.1,2.1,0,0,0,.22.63.86.86,0,0,0,.78.45,1.44,1.44,0,0,0,.9-.38,4.51,4.51,0,0,0,.87-1,8.22,8.22,0,0,0,.74-1.4,9.12,9.12,0,0,0,.5-1.59l.7-3.32a1.34,1.34,0,0,0-.59-.42,2.06,2.06,0,0,0-.73-.14,1.89,1.89,0,0,0-1,.31,3.43,3.43,0,0,0-.86.81,6,6,0,0,0-.68,1.15,9.31,9.31,0,0,0-.49,1.34,11.14,11.14,0,0,0-.3,1.37A8.29,8.29,0,0,0,456,168.18Z"/><path class="cls-6" d="M474.89,171.82a2.31,2.31,0,0,1-1.43-.41,1.39,1.39,0,0,1-.54-1.19q0-.31,0-.61t.11-.69h-.14a13.91,13.91,0,0,1-.74,1.24,4.17,4.17,0,0,1-.82.91,3.25,3.25,0,0,1-1,.56,3.94,3.94,0,0,1-1.28.19,2.68,2.68,0,0,1-1.25-.28,2.52,2.52,0,0,1-.89-.77,3.47,3.47,0,0,1-.54-1.16,5.55,5.55,0,0,1-.18-1.45,7.94,7.94,0,0,1,.18-1.64,8.72,8.72,0,0,1,.54-1.68,8.93,8.93,0,0,1,.89-1.58,6.59,6.59,0,0,1,1.23-1.32,5.85,5.85,0,0,1,1.56-.9,5.1,5.1,0,0,1,1.88-.34,5.18,5.18,0,0,1,.8.06q.41.06.78.16c.25.07.48.14.7.22a4.07,4.07,0,0,1,.55.25l1.05-.48h1.06l-1.32,6.24-.1.44q-.06.27-.11.58c0,.21-.07.4-.09.6a3.66,3.66,0,0,0,0,.48,1.18,1.18,0,0,0,.2.74.62.62,0,0,0,.51.24,1.25,1.25,0,0,0,.54-.12l.57-.3.44.8q-.25.2-.58.41a5.06,5.06,0,0,1-.72.39,5,5,0,0,1-.86.29A4.23,4.23,0,0,1,474.89,171.82Zm-5.62-3.63a4.72,4.72,0,0,0,.08,1,2.1,2.1,0,0,0,.22.63.86.86,0,0,0,.34.34.94.94,0,0,0,.43.1,1.46,1.46,0,0,0,.91-.38,4.39,4.39,0,0,0,.88-1,8.39,8.39,0,0,0,.74-1.4,8.6,8.6,0,0,0,.49-1.58l.7-3.32a1.16,1.16,0,0,0-.54-.42,2,2,0,0,0-1.81.17,3.37,3.37,0,0,0-.87.81,6,6,0,0,0-.69,1.15,9.5,9.5,0,0,0-.5,1.34,10.23,10.23,0,0,0-.3,1.37A8.59,8.59,0,0,0,469.27,168.18Z"/><path class="cls-6" d="M481.81,159.18l.06-.26c0-.09,0-.18,0-.26l0-.21a1.2,1.2,0,0,0,0-.13,1.36,1.36,0,0,0-.06-.44.5.5,0,0,0-.19-.25.77.77,0,0,0-.33-.12,3.51,3.51,0,0,0-.49,0h-.46l.19-1.05h4.85l-.8,3.8c0,.12-.07.28-.12.47l-.19.62q-.1.33-.22.68l-.23.66-.2.57-.14.39h.1a9,9,0,0,1,.75-1.27,4.47,4.47,0,0,1,.85-.9,3.33,3.33,0,0,1,1-.54,3.77,3.77,0,0,1,1.2-.18,2.9,2.9,0,0,1,1.17.23,2.51,2.51,0,0,1,.92.69,3.3,3.3,0,0,1,.61,1.13,5.06,5.06,0,0,1,.22,1.56,7.67,7.67,0,0,1-.2,1.68,8.65,8.65,0,0,1-.58,1.7,8.79,8.79,0,0,1-.93,1.58,6.72,6.72,0,0,1-1.27,1.31,6,6,0,0,1-1.59.89,5.38,5.38,0,0,1-3.37.12,4.1,4.1,0,0,1-.6-.22,2.35,2.35,0,0,1-.45-.27l-1.13.58h-1.12Zm5.55,5.28a5.15,5.15,0,0,0-.08-1,2.23,2.23,0,0,0-.23-.66,1,1,0,0,0-.34-.37.78.78,0,0,0-.41-.12,1.3,1.3,0,0,0-.71.22,3.1,3.1,0,0,0-.65.57,5.39,5.39,0,0,0-.57.79,9.45,9.45,0,0,0-.46.87q-.2.44-.34.82t-.2.63l-.82,3.78a1.64,1.64,0,0,0,.55.4,1.74,1.74,0,0,0,.75.16,2,2,0,0,0,1.07-.31,3.43,3.43,0,0,0,.88-.81,5.55,5.55,0,0,0,.68-1.15A10.06,10.06,0,0,0,487,167a10.29,10.29,0,0,0,.29-1.32A7.87,7.87,0,0,0,487.36,164.46Z"/><path class="cls-6" d="M496,170.22a1.4,1.4,0,0,0,.58-.12,4.27,4.27,0,0,0,.61-.34l.48.67a5.27,5.27,0,0,1-.54.5,3.85,3.85,0,0,1-1.51.76,4.06,4.06,0,0,1-1,.12,2.59,2.59,0,0,1-1.77-.54,1.91,1.91,0,0,1-.62-1.51,12.32,12.32,0,0,1,.32-2.38l1.74-8.2.06-.26c0-.09,0-.18,0-.26l0-.21a1.2,1.2,0,0,0,0-.13,1.36,1.36,0,0,0-.06-.44.5.5,0,0,0-.19-.25.77.77,0,0,0-.33-.12,3.51,3.51,0,0,0-.49,0h-.42l.19-1.05h4.83l-2.38,11q-.12.55-.2,1a5.55,5.55,0,0,0-.08.89,1.09,1.09,0,0,0,.18.67A.61.61,0,0,0,496,170.22Z"/><path class="cls-6" d="M504.31,170.3a3,3,0,0,0,.93-.14,3.84,3.84,0,0,0,1.49-.89,4.23,4.23,0,0,0,.51-.59,1.11,1.11,0,0,1,.19.38,1.68,1.68,0,0,1,.07.48,1.51,1.51,0,0,1-.23.76,2.39,2.39,0,0,1-.72.74,4.24,4.24,0,0,1-1.23.56,6.32,6.32,0,0,1-1.77.22,5.73,5.73,0,0,1-1.73-.25,4.08,4.08,0,0,1-1.42-.77,3.58,3.58,0,0,1-1-1.29,4.38,4.38,0,0,1-.35-1.82,6.65,6.65,0,0,1,.2-1.55,7.52,7.52,0,0,1,.58-1.59,7.82,7.82,0,0,1,1-1.47,6.61,6.61,0,0,1,1.32-1.23,6.4,6.4,0,0,1,1.68-.83,6.47,6.47,0,0,1,2-.31,3.53,3.53,0,0,1,2.23.62,2.08,2.08,0,0,1,.79,1.73,3,3,0,0,1-.45,1.55,4.39,4.39,0,0,1-1.24,1.3,6.45,6.45,0,0,1-1.88.89,8.16,8.16,0,0,1-2.38.33h-.36l-.38,0a3.15,3.15,0,0,0,0,.4c0,.13,0,.26,0,.37a2.67,2.67,0,0,0,.54,1.79A2,2,0,0,0,504.31,170.3Zm.7-8.4a1.43,1.43,0,0,0-.93.37,3.7,3.7,0,0,0-.79,1,7.08,7.08,0,0,0-.61,1.31,8.66,8.66,0,0,0-.37,1.44h.18a4.69,4.69,0,0,0,1.38-.2,3.43,3.43,0,0,0,1.11-.56,2.68,2.68,0,0,0,.74-.87,2.41,2.41,0,0,0,.27-1.14,1.56,1.56,0,0,0-.26-1A.86.86,0,0,0,505,161.9Z"/><path class="cls-6" d="M523.63,171.82a2.31,2.31,0,0,1-1.43-.41,1.39,1.39,0,0,1-.54-1.19q0-.31,0-.61t.11-.69h-.14a13.91,13.91,0,0,1-.74,1.24,4.17,4.17,0,0,1-.82.91,3.25,3.25,0,0,1-1,.56,3.94,3.94,0,0,1-1.28.19,2.68,2.68,0,0,1-1.25-.28,2.52,2.52,0,0,1-.89-.77,3.47,3.47,0,0,1-.54-1.16,5.55,5.55,0,0,1-.18-1.45,7.94,7.94,0,0,1,.18-1.64,8.72,8.72,0,0,1,.54-1.68,8.93,8.93,0,0,1,.89-1.58,6.59,6.59,0,0,1,1.23-1.32,5.85,5.85,0,0,1,1.56-.9,5.1,5.1,0,0,1,1.88-.34,5.18,5.18,0,0,1,.8.06q.41.06.78.16c.25.07.48.14.7.22a4.07,4.07,0,0,1,.55.25l1.05-.48h1.06l-1.32,6.24-.1.44q-.06.27-.11.58c0,.21-.07.4-.09.6a3.66,3.66,0,0,0,0,.48,1.18,1.18,0,0,0,.2.74.62.62,0,0,0,.51.24,1.25,1.25,0,0,0,.54-.12l.57-.3.44.8q-.25.2-.58.41a5.06,5.06,0,0,1-.72.39,5,5,0,0,1-.86.29A4.23,4.23,0,0,1,523.63,171.82ZM518,168.18a4.72,4.72,0,0,0,.08,1,2.1,2.1,0,0,0,.22.63.86.86,0,0,0,.34.34.94.94,0,0,0,.43.1,1.46,1.46,0,0,0,.91-.38,4.39,4.39,0,0,0,.88-1,8.39,8.39,0,0,0,.74-1.4,8.6,8.6,0,0,0,.49-1.58l.7-3.32a1.16,1.16,0,0,0-.54-.42,2,2,0,0,0-1.81.17,3.37,3.37,0,0,0-.87.81,6,6,0,0,0-.69,1.15,9.5,9.5,0,0,0-.5,1.34,10.23,10.23,0,0,0-.3,1.37A8.59,8.59,0,0,0,518,168.18Z"/><path class="cls-6" d="M530,162.66a.59.59,0,0,0-.24-.53A1.53,1.53,0,0,0,529,162h-.36l.18-1.06h4.42l-.42,2.74h.1a11.8,11.8,0,0,1,.69-1.27,4.37,4.37,0,0,1,.76-.92,2.86,2.86,0,0,1,.94-.56,3.62,3.62,0,0,1,1.23-.19,2.57,2.57,0,0,1,1.58.4,1.38,1.38,0,0,1,.52,1.16,1.9,1.9,0,0,1-.61,1.54,2.67,2.67,0,0,1-1.76.51,6.89,6.89,0,0,0,0-.82,2.24,2.24,0,0,0-.16-.62.94.94,0,0,0-.3-.4.79.79,0,0,0-.47-.14,1,1,0,0,0-.6.23,3.29,3.29,0,0,0-.62.63,6.87,6.87,0,0,0-.61,1q-.3.55-.57,1.2t-.5,1.36q-.22.71-.38,1.45l-.76,3.46h-3l1.7-8,.07-.44A3.1,3.1,0,0,0,530,162.66Z"/><path class="cls-6" d="M544.52,170.3a3,3,0,0,0,.93-.14,3.84,3.84,0,0,0,1.49-.89,4.23,4.23,0,0,0,.51-.59,1.11,1.11,0,0,1,.19.38,1.68,1.68,0,0,1,.07.48,1.51,1.51,0,0,1-.23.76,2.39,2.39,0,0,1-.72.74,4.24,4.24,0,0,1-1.23.56,6.32,6.32,0,0,1-1.77.22,5.73,5.73,0,0,1-1.73-.25,4.08,4.08,0,0,1-1.42-.77,3.58,3.58,0,0,1-1-1.29,4.38,4.38,0,0,1-.35-1.82,6.65,6.65,0,0,1,.2-1.55,7.52,7.52,0,0,1,.58-1.59,7.82,7.82,0,0,1,1-1.47,6.61,6.61,0,0,1,1.32-1.23A6.4,6.4,0,0,1,544,161a6.47,6.47,0,0,1,2-.31,3.53,3.53,0,0,1,2.23.62,2.08,2.08,0,0,1,.79,1.73,3,3,0,0,1-.45,1.55,4.39,4.39,0,0,1-1.24,1.3,6.45,6.45,0,0,1-1.88.89,8.16,8.16,0,0,1-2.38.33h-.36l-.38,0a3.15,3.15,0,0,0,0,.4c0,.13,0,.26,0,.37a2.67,2.67,0,0,0,.54,1.79A2,2,0,0,0,544.52,170.3Zm.7-8.4a1.43,1.43,0,0,0-.93.37,3.7,3.7,0,0,0-.79,1,7.08,7.08,0,0,0-.61,1.31,8.66,8.66,0,0,0-.37,1.44h.18a4.69,4.69,0,0,0,1.38-.2,3.43,3.43,0,0,0,1.11-.56,2.68,2.68,0,0,0,.74-.87,2.41,2.41,0,0,0,.27-1.14,1.56,1.56,0,0,0-.26-1A.86.86,0,0,0,545.23,161.9Z"/><path class="cls-6" d="M558.65,171.82a2.31,2.31,0,0,1-1.43-.41,1.39,1.39,0,0,1-.54-1.19q0-.31,0-.61t.11-.69h-.14a13.91,13.91,0,0,1-.74,1.24,4.17,4.17,0,0,1-.82.91,3.25,3.25,0,0,1-1,.56,3.94,3.94,0,0,1-1.28.19,2.68,2.68,0,0,1-1.25-.28,2.52,2.52,0,0,1-.89-.77,3.47,3.47,0,0,1-.54-1.16,5.55,5.55,0,0,1-.18-1.45,7.94,7.94,0,0,1,.18-1.64,8.72,8.72,0,0,1,.54-1.68,8.93,8.93,0,0,1,.89-1.58,6.59,6.59,0,0,1,1.23-1.32,5.85,5.85,0,0,1,1.56-.9,5.1,5.1,0,0,1,1.88-.34,5.18,5.18,0,0,1,.8.06q.41.06.78.16c.25.07.48.14.7.22a4.07,4.07,0,0,1,.55.25l1.05-.48h1.06l-1.32,6.24-.1.44q-.06.27-.11.58c0,.21-.07.4-.09.6a3.66,3.66,0,0,0,0,.48,1.18,1.18,0,0,0,.2.74.62.62,0,0,0,.51.24,1.25,1.25,0,0,0,.54-.12l.57-.3.44.8q-.25.2-.58.41a5.06,5.06,0,0,1-.72.39,5,5,0,0,1-.86.29A4.23,4.23,0,0,1,558.65,171.82ZM553,168.18a4.72,4.72,0,0,0,.08,1,2.1,2.1,0,0,0,.22.63.86.86,0,0,0,.34.34.94.94,0,0,0,.43.1,1.46,1.46,0,0,0,.91-.38,4.39,4.39,0,0,0,.88-1,8.39,8.39,0,0,0,.74-1.4,8.6,8.6,0,0,0,.49-1.58l.7-3.32a1.16,1.16,0,0,0-.54-.42,2,2,0,0,0-1.81.17,3.37,3.37,0,0,0-.87.81,6,6,0,0,0-.69,1.15,9.5,9.5,0,0,0-.5,1.34,10.23,10.23,0,0,0-.3,1.37A8.59,8.59,0,0,0,553,168.18Z"/><path class="cls-6" d="M437.14,371.79h.26a4.72,4.72,0,0,0,.61,0,1.63,1.63,0,0,0,.54-.17,1.27,1.27,0,0,0,.42-.36,1.49,1.49,0,0,0,.26-.62l2.08-9.82a1.48,1.48,0,0,0,.06-.24,1.27,1.27,0,0,0,0-.21.55.55,0,0,0-.11-.35.67.67,0,0,0-.3-.21,1.72,1.72,0,0,0-.46-.1l-.58,0h-.25l.21-1.05h10.86l-.7,3.72h-1.42s0-.13,0-.24l0-.37,0-.35c0-.11,0-.17,0-.2a1.7,1.7,0,0,0-.08-.52,1.17,1.17,0,0,0-.24-.43,1.1,1.1,0,0,0-.43-.29,1.85,1.85,0,0,0-.66-.1h-2.66l-1.06,5h4.54l-.26,1.2h-4.54l-1.2,5.63h3.16a2.5,2.5,0,0,0,.84-.13,2.13,2.13,0,0,0,.64-.36,2.21,2.21,0,0,0,.46-.52,3.06,3.06,0,0,0,.31-.63l.32-.86h1.43l-.93,3.72H436.92Z"/><path class="cls-6" d="M459.5,373.05a2.31,2.31,0,0,1-1.43-.41,1.39,1.39,0,0,1-.54-1.19q0-.31,0-.61t.11-.69h-.14a14,14,0,0,1-.74,1.24,4.17,4.17,0,0,1-.82.91,3.25,3.25,0,0,1-1,.56,3.94,3.94,0,0,1-1.28.19,2.68,2.68,0,0,1-1.25-.28,2.53,2.53,0,0,1-.89-.77,3.48,3.48,0,0,1-.54-1.16,5.56,5.56,0,0,1-.18-1.45,7.93,7.93,0,0,1,.18-1.64,8.69,8.69,0,0,1,.54-1.68,8.89,8.89,0,0,1,.89-1.58,6.56,6.56,0,0,1,1.23-1.32,5.84,5.84,0,0,1,1.56-.9,5.27,5.27,0,0,1,2.67-.27,7.84,7.84,0,0,1,.78.16,7.25,7.25,0,0,1,.7.22,4,4,0,0,1,.55.25l1.05-.48h1.06l-1.32,6.24-.1.44q-.06.27-.11.58c0,.21-.07.4-.09.6a3.64,3.64,0,0,0,0,.48,1.18,1.18,0,0,0,.2.74.62.62,0,0,0,.51.24,1.26,1.26,0,0,0,.54-.12l.57-.3.44.8q-.25.2-.58.41a5.11,5.11,0,0,1-.72.39,5,5,0,0,1-.86.29A4.26,4.26,0,0,1,459.5,373.05Zm-5.62-3.63a4.72,4.72,0,0,0,.08,1,2.11,2.11,0,0,0,.22.63.86.86,0,0,0,.34.34.94.94,0,0,0,.43.1,1.46,1.46,0,0,0,.91-.38,4.4,4.4,0,0,0,.88-1,8.43,8.43,0,0,0,.74-1.4,8.63,8.63,0,0,0,.49-1.58l.7-3.32a1.15,1.15,0,0,0-.54-.42,2,2,0,0,0-1.81.17,3.36,3.36,0,0,0-.87.81,6,6,0,0,0-.69,1.15,9.47,9.47,0,0,0-.5,1.34,10.21,10.21,0,0,0-.3,1.37A8.59,8.59,0,0,0,453.87,369.42Z"/><path class="cls-6" d="M467.8,371.86a2.71,2.71,0,0,0,.76-.1,1.87,1.87,0,0,0,.61-.29,1.39,1.39,0,0,0,.4-.47,1.35,1.35,0,0,0,.15-.64,1.34,1.34,0,0,0-.13-.61,1.54,1.54,0,0,0-.41-.49,4.2,4.2,0,0,0-.7-.45l-1-.51a8.22,8.22,0,0,1-1.06-.59,4,4,0,0,1-.81-.69,2.82,2.82,0,0,1-.51-.85,2.92,2.92,0,0,1-.18-1.05,2.76,2.76,0,0,1,.31-1.32,2.88,2.88,0,0,1,.9-1,4.35,4.35,0,0,1,1.42-.63,7.44,7.44,0,0,1,1.89-.22,8,8,0,0,1,1.7.16,3.89,3.89,0,0,1,1.13.42,1.66,1.66,0,0,1,.63.6,1.43,1.43,0,0,1,.19.7,1.25,1.25,0,0,1-.62,1.16,3.32,3.32,0,0,1-1.68.36,4.27,4.27,0,0,0-.08-.81,2.43,2.43,0,0,0-.26-.74,1.6,1.6,0,0,0-.48-.54,1.23,1.23,0,0,0-.72-.21,2,2,0,0,0-.7.11,1.67,1.67,0,0,0-.53.3,1.31,1.31,0,0,0-.34.44,1.29,1.29,0,0,0-.12.55,1.2,1.2,0,0,0,.13.58,1.48,1.48,0,0,0,.41.46,4.17,4.17,0,0,0,.71.42l1,.47a7,7,0,0,1,1.11.62,3.67,3.67,0,0,1,.78.71,2.71,2.71,0,0,1,.46.84,3.19,3.19,0,0,1,.15,1A3.34,3.34,0,0,1,472,371a2.88,2.88,0,0,1-.92,1.09,4.51,4.51,0,0,1-1.52.69,8.32,8.32,0,0,1-2.11.24,7.61,7.61,0,0,1-1.56-.15,4.05,4.05,0,0,1-1.19-.43,2.19,2.19,0,0,1-.76-.69,1.66,1.66,0,0,1-.27-.93,1.49,1.49,0,0,1,.67-1.31,2.1,2.1,0,0,1,.68-.29,3.34,3.34,0,0,1,.79-.09,4.78,4.78,0,0,0,.11,1,2.72,2.72,0,0,0,.34.86,1.75,1.75,0,0,0,.61.6A1.8,1.8,0,0,0,467.8,371.86Z"/><path class="cls-6" d="M479.66,371.54a3,3,0,0,0,.93-.14,3.84,3.84,0,0,0,1.49-.89,4.28,4.28,0,0,0,.51-.59,1.1,1.1,0,0,1,.19.38,1.67,1.67,0,0,1,.07.48,1.52,1.52,0,0,1-.23.76,2.39,2.39,0,0,1-.72.74,4.24,4.24,0,0,1-1.23.56,6.32,6.32,0,0,1-1.77.22,5.74,5.74,0,0,1-1.73-.25,4.09,4.09,0,0,1-1.42-.77,3.58,3.58,0,0,1-1-1.29,4.38,4.38,0,0,1-.35-1.82,6.65,6.65,0,0,1,.2-1.55,7.51,7.51,0,0,1,.58-1.59,7.8,7.8,0,0,1,1-1.47,6.6,6.6,0,0,1,1.32-1.23,6.4,6.4,0,0,1,1.68-.83,6.47,6.47,0,0,1,2-.31,3.53,3.53,0,0,1,2.23.62,2.08,2.08,0,0,1,.79,1.73,3,3,0,0,1-.45,1.55,4.4,4.4,0,0,1-1.24,1.3,6.47,6.47,0,0,1-1.88.89,8.18,8.18,0,0,1-2.38.33h-.36l-.38,0a3.13,3.13,0,0,0,0,.4c0,.13,0,.26,0,.37a2.67,2.67,0,0,0,.54,1.79A2,2,0,0,0,479.66,371.54Zm.7-8.4a1.43,1.43,0,0,0-.93.37,3.7,3.7,0,0,0-.79,1,7.06,7.06,0,0,0-.61,1.31,8.64,8.64,0,0,0-.37,1.44h.18a4.7,4.7,0,0,0,1.38-.2,3.44,3.44,0,0,0,1.11-.56,2.68,2.68,0,0,0,.74-.87,2.41,2.41,0,0,0,.27-1.14,1.55,1.55,0,0,0-.26-1A.86.86,0,0,0,480.36,363.14Z"/><path class="cls-6" d="M500.32,373a2.56,2.56,0,0,1-1.76-.55,1.92,1.92,0,0,1-.62-1.51,8.52,8.52,0,0,1,.07-1q.07-.6.24-1.36l.34-1.58c0-.13.07-.29.11-.48s.08-.39.12-.59.07-.41.09-.62a4.37,4.37,0,0,0,0-.55,2.42,2.42,0,0,0,0-.39,1.21,1.21,0,0,0-.12-.37.75.75,0,0,0-.24-.27.69.69,0,0,0-.4-.11,1.1,1.1,0,0,0-.64.22,3.27,3.27,0,0,0-.62.59,5.76,5.76,0,0,0-.57.84q-.27.47-.49,1a10.31,10.31,0,0,0-.38,1,6.55,6.55,0,0,0-.22.87l-.16.84c0,.14-.06.32-.09.56l-.11.77-.12.84q-.06.43-.1.8t-.07.63c0,.18,0,.29,0,.34h-3.11c0-.08,0-.21,0-.41s.05-.42.09-.69.08-.55.14-.85l.16-.92c.05-.31.1-.6.16-.87s.1-.52.15-.72l.3-1.4.09-.47.11-.59c0-.21.07-.41.09-.62a4.48,4.48,0,0,0,0-.56c0-.12,0-.25,0-.38a1.33,1.33,0,0,0-.08-.36.61.61,0,0,0-.2-.26.57.57,0,0,0-.36-.1,1.23,1.23,0,0,0-.66.21,2.94,2.94,0,0,0-.63.55,5.79,5.79,0,0,0-.58.78,9,9,0,0,0-.49.9,9.79,9.79,0,0,0-.38.92,6.44,6.44,0,0,0-.24.83l-1.12,5h-3l1.68-8c0-.08,0-.17.05-.26l0-.26,0-.21a1.21,1.21,0,0,0,0-.13,1.35,1.35,0,0,0-.06-.44.5.5,0,0,0-.19-.25.76.76,0,0,0-.33-.12,3.41,3.41,0,0,0-.48,0h-.36l.18-1.06h4.64l-.38,2H490a6.58,6.58,0,0,1,.81-1,4.18,4.18,0,0,1,.87-.69,3.53,3.53,0,0,1,1-.39,4.77,4.77,0,0,1,1.11-.12,2.72,2.72,0,0,1,1,.18,1.73,1.73,0,0,1,.67.48,1.88,1.88,0,0,1,.37.69,3,3,0,0,1,.11.83v.16h.12a7.87,7.87,0,0,1,.77-1,4.17,4.17,0,0,1,.85-.75,3.62,3.62,0,0,1,1-.45,4.34,4.34,0,0,1,1.18-.15,2.56,2.56,0,0,1,1,.19,1.83,1.83,0,0,1,.68.5,1.91,1.91,0,0,1,.38.73,3.32,3.32,0,0,1,.11.87,4,4,0,0,1,0,.54c0,.19-.06.39-.09.58s-.08.39-.12.59-.08.38-.11.56l-.46,2.14q-.13.54-.21,1a5.63,5.63,0,0,0-.08.9,1,1,0,0,0,.19.67.63.63,0,0,0,.52.23,1.37,1.37,0,0,0,.57-.12,5,5,0,0,0,.61-.34l.48.68a6.36,6.36,0,0,1-.55.5,3.85,3.85,0,0,1-1.51.76A4.06,4.06,0,0,1,500.32,373Z"/><path class="cls-6" d="M509.74,371.54a3,3,0,0,0,.93-.14,3.84,3.84,0,0,0,1.49-.89,4.28,4.28,0,0,0,.51-.59,1.1,1.1,0,0,1,.19.38,1.67,1.67,0,0,1,.07.48,1.52,1.52,0,0,1-.23.76,2.39,2.39,0,0,1-.72.74,4.24,4.24,0,0,1-1.23.56,6.32,6.32,0,0,1-1.77.22,5.74,5.74,0,0,1-1.73-.25,4.09,4.09,0,0,1-1.42-.77,3.58,3.58,0,0,1-1-1.29,4.38,4.38,0,0,1-.35-1.82,6.65,6.65,0,0,1,.2-1.55,7.51,7.51,0,0,1,.58-1.59,7.8,7.8,0,0,1,1-1.47,6.6,6.6,0,0,1,1.32-1.23,6.4,6.4,0,0,1,1.68-.83,6.47,6.47,0,0,1,2-.31,3.53,3.53,0,0,1,2.23.62,2.08,2.08,0,0,1,.79,1.73,3,3,0,0,1-.45,1.55,4.4,4.4,0,0,1-1.24,1.3,6.47,6.47,0,0,1-1.88.89,8.18,8.18,0,0,1-2.38.33H508l-.38,0a3.13,3.13,0,0,0,0,.4c0,.13,0,.26,0,.37a2.67,2.67,0,0,0,.54,1.79A2,2,0,0,0,509.74,371.54Zm.7-8.4a1.43,1.43,0,0,0-.93.37,3.7,3.7,0,0,0-.79,1,7.06,7.06,0,0,0-.61,1.31,8.64,8.64,0,0,0-.37,1.44h.18a4.7,4.7,0,0,0,1.38-.2,3.44,3.44,0,0,0,1.11-.56,2.68,2.68,0,0,0,.74-.87,2.41,2.41,0,0,0,.27-1.14,1.55,1.55,0,0,0-.26-1A.86.86,0,0,0,510.45,363.14Z"/><path class="cls-6" d="M522.09,371a12.31,12.31,0,0,1,.32-2.38l.32-1.58.1-.48.12-.59q.06-.31.1-.62a3.94,3.94,0,0,0,0-.55,2.42,2.42,0,0,0,0-.39,1.14,1.14,0,0,0-.13-.37.78.78,0,0,0-.25-.27.75.75,0,0,0-.42-.11,1.2,1.2,0,0,0-.68.23,3.18,3.18,0,0,0-.65.61,6.4,6.4,0,0,0-.6.86,10.75,10.75,0,0,0-.51,1q-.23.51-.4,1a8.81,8.81,0,0,0-.25.88l-1,4.64h-3l1.68-8c0-.08,0-.17.05-.26l0-.26,0-.21a1.21,1.21,0,0,0,0-.13,1.35,1.35,0,0,0-.06-.44.5.5,0,0,0-.19-.25.76.76,0,0,0-.33-.12,3.41,3.41,0,0,0-.48,0h-.36l.18-1.06h4.44l-.22,2.14h.13a7.4,7.4,0,0,1,.79-1,4.14,4.14,0,0,1,.87-.73,3.68,3.68,0,0,1,1-.43,4.9,4.9,0,0,1,1.22-.14,2.73,2.73,0,0,1,1.07.19,1.85,1.85,0,0,1,.7.5,1.93,1.93,0,0,1,.39.73,3.2,3.2,0,0,1,.12.87,4.68,4.68,0,0,1,0,.54q0,.29-.09.58t-.12.59c0,.2-.08.38-.11.56l-.45,2.14q-.12.55-.2,1a5.54,5.54,0,0,0-.08.89,1.09,1.09,0,0,0,.18.67.62.62,0,0,0,.52.23,1.37,1.37,0,0,0,.57-.12,4.48,4.48,0,0,0,.6-.34l.48.67a5.33,5.33,0,0,1-.54.5,3.85,3.85,0,0,1-1.51.76,4.06,4.06,0,0,1-1,.12,2.59,2.59,0,0,1-1.77-.54A1.91,1.91,0,0,1,522.09,371Z"/><path class="cls-6" d="M533.25,371.42a2.22,2.22,0,0,0,.85-.16,4.36,4.36,0,0,0,.71-.37l.46.76q-.33.28-.7.54a4.82,4.82,0,0,1-.8.44,5,5,0,0,1-.92.3,4.83,4.83,0,0,1-1.07.11,3.55,3.55,0,0,1-1-.14,2.35,2.35,0,0,1-.83-.43,2,2,0,0,1-.55-.73,2.47,2.47,0,0,1-.2-1q0-.18,0-.39t0-.44c0-.15,0-.3.07-.44s.05-.28.08-.41l1.2-5.54H529l.21-1a3.4,3.4,0,0,0,.94-.15,4.15,4.15,0,0,0,1-.48,6,6,0,0,0,1.06-.87,7.06,7.06,0,0,0,1-1.31h1.16l-.52,2.46h2.41l-.27,1.37h-2.44l-1.2,5.48a7.05,7.05,0,0,0-.15.8,5.28,5.28,0,0,0,0,.64,1,1,0,0,0,.27.75A1,1,0,0,0,533.25,371.42Z"/></svg>