<svg id="Layer_1" data-name="Layer 1" xmlns="http://www.w3.org/2000/svg" viewBox="0 0 583 341"><defs><style>.cls-1{fill:#0f0035;}.cls-2{fill:#fff;}.cls-3{fill:none;stroke:#01eaa4;stroke-miterlimit:10;stroke-width:12px;}.cls-4{font-size:24px;fill:#474454;font-family:Roboto-BlackItalic, Roboto;font-style:italic;}.cls-5{letter-spacing:-0.01em;}</style></defs><title>critical-root-zone</title><rect class="cls-1" y="279" width="148" height="12"/><path class="cls-1" d="M113.92,12.24a31,31,0,0,1,3.31.18,30.13,30.13,0,0,1,20.42,11.19l5.28,6.59,8-2.75a30.08,30.08,0,0,1,9.82-1.65A30.72,30.72,0,0,1,164,26,30.34,30.34,0,0,1,190.93,59.4c-.08.73-.2,1.54-.38,2.47l-1.61,8.45,7.48,4.24a30.37,30.37,0,0,1,13,38.36l-2.91,6.81,4.78,5.66a30.33,30.33,0,0,1-23.1,49.92,31,31,0,0,1-3.31-.18,30,30,0,0,1-13.17-4.66L164.79,166l-6.64,4.79a30.06,30.06,0,0,1-17.68,5.73,30.9,30.9,0,0,1-3.3-.18,30.29,30.29,0,0,1-14.8-5.78l-10.71-8-6.78,11.48a30.44,30.44,0,0,1-26.09,14.94,30.93,30.93,0,0,1-3.3-.18,30.37,30.37,0,0,1-26.91-33.41c.11-1,.27-2,.48-3l2.69-12.82-13-1.55A30.32,30.32,0,0,1,27.48,81.52l7.74-4.37L33.3,68.47a30.34,30.34,0,0,1,29.56-36.9,30.94,30.94,0,0,1,3.31.18A30.52,30.52,0,0,1,73,33.31l9.54,3.35,4.92-8.83a30.34,30.34,0,0,1,26.46-15.58h0m0-12A42.37,42.37,0,0,0,77,22,42.33,42.33,0,0,0,21.58,71.06,42.32,42.32,0,0,0,37.31,150q-.43,2.06-.67,4.2A42.34,42.34,0,0,0,74.2,200.81a42.28,42.28,0,0,0,41-20.59,42.13,42.13,0,0,0,20.67,8.08,42.8,42.8,0,0,0,4.59.25,42.17,42.17,0,0,0,24.7-8,42.14,42.14,0,0,0,18.39,6.51,42.81,42.81,0,0,0,4.59.25,42.33,42.33,0,0,0,32.26-69.67,42.37,42.37,0,0,0-18.07-53.52c.21-1.13.4-2.27.52-3.43A42.33,42.33,0,0,0,147,16.11,42.2,42.2,0,0,0,118.51.49a42.84,42.84,0,0,0-4.59-.25Z"/><polygon class="cls-2" points="94.05 285 94.05 161.88 81.33 136.51 26.24 110.95 27.18 108.58 71.25 114.93 46.65 67.16 56.27 61.74 77.91 85.3 103.17 39.68 105.11 40.9 89.62 105.09 113.45 144.82 140.74 126.62 139.79 65.18 142.55 64.57 160.64 113.11 187.22 96.44 193.07 103.61 174.23 124.64 199.16 128.03 199.45 140.25 155.09 142.14 128.79 171.12 128.79 285 94.05 285"/><path class="cls-1" d="M55.07,69.31,67.86,83.23,79.12,95.5l8.07-14.57,3.7-6.68-6.53,27-1.15,4.78,2.53,4.21,19.33,32.22,6.47,10.79,10.47-7,19.33-12.89,5.44-3.63-.1-6.54-.49-31.73,6.25,16.77,5.14,13.8,12.48-7.82,12.31-7.72-5.07,5.66-15.1,16.85,22.42,3,8.65,1.17,0,1.22-36,1.53-5,.21L149,140l-23.06,25.41-3.11,3.43V279H100V160.46l-1.27-2.54L87.63,135.7l-1.88-3.75L82,130.19,58,119.09l.82.12,23,3.32L71.25,101.84,54.63,69.55l.44-.25M101,31.22,76.69,75.11,57.47,54.18,38.67,64.77l21.91,42.56L23.34,102l-4.76,12,58.32,27.06L88,163.3V291h46.75V173.44L157.85,148l47.73-2L205,122.78l-18.79-2.55L201,103.8,188.53,88.54l-24.83,15.57L146.36,57.59l-12.64,2.78,1,63.07-19.33,12.89L96,104.11l15.92-66L101,31.22Z"/><line class="cls-3" x1="148" y1="285" x2="550" y2="285"/><text class="cls-4" transform="translate(161.72 231.66)">20 inches</text><text class="cls-4" transform="translate(312.52 340.66)">10 <tspan class="cls-5" x="33.11" y="0">f</tspan><tspan x="41.38" y="0">eet</tspan></text><text class="cls-4" transform="translate(220.32 340.66)">5 <tspan class="cls-5" x="19.51" y="0">f</tspan><tspan x="27.79" y="0">eet</tspan></text><text class="cls-4" transform="translate(506.18 340.66)">20 <tspan class="cls-5" x="33.11" y="0">f</tspan><tspan x="41.38" y="0">eet</tspan></text><line class="cls-3" x1="544" y1="279" x2="544" y2="309"/><line class="cls-3" x1="349" y1="279" x2="349" y2="309"/><line class="cls-3" x1="251.5" y1="279" x2="251.5" y2="309"/><line class="cls-3" x1="141" y1="207.89" x2="141" y2="237.89"/><line class="cls-3" x1="82" y1="207.89" x2="82" y2="237.89"/><line class="cls-3" x1="86.5" y1="222.89" x2="137.5" y2="222.89"/></svg>