<?xml version="1.0" encoding="utf-8"?>
<!-- Generator: Adobe Illustrator 22.1.0, SVG Export Plug-In . SVG Version: 6.00 Build 0)  -->
<svg version="1.1" id="Layer_1" xmlns="http://www.w3.org/2000/svg" xmlns:xlink="http://www.w3.org/1999/xlink" x="0px" y="0px"
	 viewBox="0 0 180 90" style="enable-background:new 0 0 180 90;" xml:space="preserve">
<g>
	<path d="M49,7.5H37H21v24h28V7.5z M33,27.5h-8v-6h8V27.5z M33,17.5h-8v-6h8V17.5z M45,27.5h-8v-6h8V27.5z M45,17.5h-8v-6h8V17.5z"
		/>
	<path d="M93,7.5H81H65v24h28V7.5z M77,27.5h-8v-6h8V27.5z M77,17.5h-8v-6h8V17.5z M89,27.5h-8v-6h8V27.5z M89,17.5h-8v-6h8V17.5z"
		/>
	<path d="M174.7,86v-3.9h-4V86h-4.3v-3.9H162V86h-4.3v-3.9h-4.3V86h-4.3v-3.9h-4.3V86h-4.3v-3.9h-4.3V86h-4.3v-3.9h-4.3V86h-4.3
		v-3.9h-4.3V86h-4.3v-3.9h-4.3V86H106v-3.9h-4v-4h4v-4h-4v-4h4v-4h-4v-4h4v-4h-4v-4h4v-4h-4v-4h4v-4h-4v-4h4v-4h-4v-4h4v-4h-4v-4h4
		v-4h-4V0H12v86H0v4h180v-4H174.7z M70,86H46V43h24V86z M98,86H79h-5.1V39H42v47H31H16V4h82V86z"/>
	<rect x="63" y="63.5" width="4" height="10"/>
	<rect x="110.3" y="18.7" width="4.3" height="4"/>
	<rect x="144.8" y="18.7" width="4.3" height="4"/>
	<rect x="162" y="18.7" width="4.3" height="4"/>
	<rect x="153.4" y="18.7" width="4.3" height="4"/>
	<rect x="136.2" y="18.7" width="4.3" height="4"/>
	<rect x="118.9" y="18.7" width="4.3" height="4"/>
	<rect x="127.6" y="18.7" width="4.3" height="4"/>
	<rect x="170.7" y="18.7" width="4" height="4"/>
	<rect x="170.7" y="26.6" width="4" height="4"/>
	<rect x="170.7" y="34.6" width="4" height="4"/>
	<rect x="170.7" y="58.3" width="4" height="4"/>
	<rect x="170.7" y="74.1" width="4" height="4"/>
	<rect x="170.7" y="66.2" width="4" height="4"/>
	<rect x="170.7" y="42.5" width="4" height="4"/>
	<rect x="170.7" y="50.4" width="4" height="4"/>
</g>
</svg>
