<svg xmlns="http://www.w3.org/2000/svg" viewBox="0 0 180 90"><path  d="M135,86V70h-8l-6.09-12.18A6,6,0,0,0,119.5,46H93.19L87.51,33.29A6,6,0,0,0,82,29.74a5.94,5.94,0,0,0-2.43.52,6,6,0,0,0-3,7.93S84,54.72,84.4,55.14a6,6,0,0,0,3.69,2.68L82,70H77a9.89,9.89,0,0,0-6.48-5.75V23.2l8-3.2h0l10,4,10-4L68.5,0l-30,20,10,4,10-4h0l8,3.2V64.25A9.89,9.89,0,0,0,60,70H45V86H0v4H180V86Zm-4-12V86H120.67V74H131Zm-28.67,0V86H92V74Zm4,0h10.33V86H106.33ZM89.5,54a2,2,0,0,1-1.7-1h0c-.63-1.21-4.35-9.32-7.6-16.47a2,2,0,0,1,1-2.64,2,2,0,0,1,.8-.17,2,2,0,0,1,1.84,1.18l5.68,12.71A4,4,0,0,0,93.19,50H119.5a2,2,0,0,1,0,4h-30Zm3,4h24.06l6,12H86.47ZM80,74h8V86H77.67V74H80Zm-6.33,0V86H63.33V74ZM60,16.29a4,4,0,0,0-3,0l-5,2L48.5,19.69,47,19.11l8.67-5.78L68.5,4.81l12.78,8.52L90,19.11l-1.45.58L85,18.29l-5-2a4,4,0,0,0-3,0l-5,2L68.5,19.69,65,18.29ZM68.5,68a5,5,0,0,1,3.83,2H64.67A5,5,0,0,1,68.5,68ZM49,74H59.33V86H49Z"/></svg>
