<svg id="Layer_1" data-name="Layer 1" xmlns="http://www.w3.org/2000/svg" viewBox="0 0 180 90"><defs><style>.cls-1{fill:#0f0035;}</style></defs><title>general-process</title><rect class="cls-1" x="58" y="73" width="24" height="4"/><rect class="cls-1" x="58" y="61" width="24" height="4"/><rect class="cls-1" x="58" y="49" width="24" height="4"/><path class="cls-1" d="M58,45H82V29H58Zm4-12H78v8H62Z"/><path class="cls-1" d="M95,86V80h20V70h20V0H85V10H65V20H45V86H0v4H180V86ZM89,4h42V66H115V55h7V51h-7V43h7V39h-7V31h7V27h-7V19h7V15h-7V10H89ZM69,14h42V76H95V65h7V61H95V53h7V49H95V41h7V37H95V29h7V25H95V20H69ZM49,86V24H91V86Z"/></svg>