<svg id="Layer_1" data-name="Layer 1" xmlns="http://www.w3.org/2000/svg" viewBox="0 0 180 90"><defs><style>.cls-1{fill:#fff;}.cls-2{fill:#0f0035;}</style></defs><title>general-process</title><rect class="cls-1" x="85" width="50" height="70"/><path class="cls-2" d="M131,4V66H89V4h42m4-4H85V70h50V0Z"/><rect class="cls-2" x="98" y="15" width="24" height="4"/><rect class="cls-2" x="98" y="27" width="24" height="4"/><rect class="cls-2" x="98" y="39" width="24" height="4"/><rect class="cls-2" x="98" y="51" width="24" height="4"/><polygon class="cls-1" points="115 80 65 80 65 26.38 65 10 115 10 115 80"/><path class="cls-2" d="M111,14V76H69V14h42m4-4H65V80h50V10Z"/><rect class="cls-2" x="78" y="25" width="24" height="4"/><rect class="cls-2" x="78" y="37" width="24" height="4"/><rect class="cls-2" x="78" y="49" width="24" height="4"/><rect class="cls-2" x="78" y="61" width="24" height="4"/><polygon class="cls-1" points="95 90 45 90 45 20 83 20 95 20 95 32 95 90"/><path class="cls-2" d="M91,24V86H49V24H91m4-4H45V90H95V20Z"/><rect class="cls-2" x="58" y="49" width="24" height="4"/><rect class="cls-2" x="58" y="61" width="24" height="4"/><rect class="cls-2" x="58" y="73" width="24" height="4"/><rect class="cls-1" x="58" y="29" width="24" height="16"/><path class="cls-2" d="M78,33v8H62V33H78m4-4H58V45H82V29Z"/></svg>