<svg xmlns="http://www.w3.org/2000/svg" viewBox="0 0 180 90"><path d="M136,86V0H46V86H0v4H180V86ZM50,86V4h82V86ZM77,51H61V75H89V51Zm8,4v6H77V55ZM73,55v6H65V55ZM65,65h8v6H65Zm12,6V65h8v6Zm32-20H93V75h28V51Zm8,4v6h-8V55Zm-12,0v6H97V55ZM97,65h8v6H97Zm12,6V65h8v6ZM65,19H61V15h4Zm8,0H69V15h4Zm8,0H77V15h4Zm8,0H85V15h4Zm8,0H93V15h4Zm8,0h-4V15h4Zm8,0h-4V15h4ZM73,43H69V39h4Zm8,0H77V39h4Zm8,0H85V39h4Zm8,0H93V39h4Zm8,0h-4V39h4Zm8,0h-4V39h4ZM65,27H61V23h4Zm0,8H61V31h4Zm0,8H61V39h4Zm56-24h-4V15h4Zm0,8h-4V23h4Zm0,8h-4V31h4Zm0,8h-4V39h4Z"/></svg>
