<svg id="Layer_1" data-name="Layer 1" xmlns="http://www.w3.org/2000/svg" viewBox="0 0 100 100"><defs><style>.cls-1,.cls-2{fill:#fff;}.cls-1{fill-rule:evenodd;}</style></defs><title>coa-austin-seal-white</title><path class="cls-1" d="M54.52,43.14c.31.31.63-.1,1.09-.42.62-.62.62-1.3.52-2.4,0-.1-.47-.36-.47-.36a3.65,3.65,0,0,1-.47,1.56,2.75,2.75,0,0,1-1.09,1.09c-.21.05.26.36.42.52"/><path class="cls-2" d="M53.6,29.33a.45.45,0,0,0,.44-.11.41.41,0,0,0,.14-.37c0-.11-.12-.09-.15,0a.79.79,0,0,1-.17.24.5.5,0,0,1-.26.12.08.08,0,0,0,0,.17"/><path class="cls-2" d="M52.13,30.76a.58.58,0,0,0,.55-.24c.14-.23.09-.32.17-.37s.34-.09.41-.4-.09-.53-.2-.27-.19.37-.37.42-.12.21-.21.39a.55.55,0,0,1-.36.29c-.13,0-.09.18,0,.18"/><path class="cls-2" d="M55.11,24.64a.59.59,0,0,0,.55-.49c0-.25-.05-.54-.15-.31a1.51,1.51,0,0,1-.19.4.61.61,0,0,1-.3.23c-.12.06-.12.18.09.16"/><path class="cls-2" d="M77,34.45H74.14V30l1.09-1V26.94H72.81l-3.38-2.36-.19.12-3.67,2.24H63.77v.78H58.91l-.06,0a1.74,1.74,0,0,0,.77-.5c.19-.31-.39-.46-.39-.46l.42-.19c.42-.19.48-.54.29-.66s-.36-.24-.36-.24a1.43,1.43,0,0,0,.3-.33,1.3,1.3,0,0,0,.3-.65c0-.19-.41-.32-.41-.32A11,11,0,0,0,61,22.81c.46-.73.31-.93,0-.93s-.31-.12-.31-.12l.19-.5c.19-.5-.23-.39-.46-.31a1.7,1.7,0,0,1-.58.12c-.12,0,.27-.51.43-.93s.21-.92,0-.84a1.73,1.73,0,0,1-.54.12c-.17,0,.16-.38.27-1s.1-1.06-.17-.82-.29.24-.43.25-.06-.49,0-1.07-.19-.53-.36-.31h0l-.26.39c-.55.8-1.49,1.54-2,2.2a8.83,8.83,0,0,0-1.66,2.47,6.29,6.29,0,0,1-.82,1.25.34.34,0,0,0-.19-.06.46.46,0,0,1-.3-.09.25.25,0,0,1-.06-.2,1,1,0,0,1,.1-.53,1,1,0,0,0,.12-.5,1.43,1.43,0,0,0-.21-.67,1.07,1.07,0,0,1-.17-.49,4,4,0,0,0-.62-2.4A3.81,3.81,0,0,0,52.1,17a1.67,1.67,0,0,1-.22-.19,1.77,1.77,0,0,0-.13-.51,1.15,1.15,0,0,1-.09-.32,1.05,1.05,0,0,0-.21-.57.73.73,0,0,1-.15-.36.7.7,0,0,1,.05-.29,1.2,1.2,0,0,0,.08-.46,1.49,1.49,0,0,0-.13-.54,1.17,1.17,0,0,1-.11-.43,1.27,1.27,0,0,0-.29-.8l-.06-.09a.87.87,0,1,0-1.71,0l-.06.09a1.27,1.27,0,0,0-.29.8,1.17,1.17,0,0,1-.11.43,1.49,1.49,0,0,0-.13.54,1.2,1.2,0,0,0,.08.46.7.7,0,0,1,.05.29.73.73,0,0,1-.15.36,1.05,1.05,0,0,0-.21.57,1.14,1.14,0,0,1-.09.32,1.77,1.77,0,0,0-.13.51,1.67,1.67,0,0,1-.22.19,3.81,3.81,0,0,0-.86.87,4,4,0,0,0-.62,2.4,1.07,1.07,0,0,1-.17.49,1.42,1.42,0,0,0-.21.67,1,1,0,0,0,.12.5,1,1,0,0,1,.1.53.25.25,0,0,1-.06.2.48.48,0,0,1-.31.09.34.34,0,0,0-.19.06,6.3,6.3,0,0,1-.82-1.25,8.82,8.82,0,0,0-1.66-2.47,28.23,28.23,0,0,1-2-2.2c-.62-.93-.66-.27-.69.15a3.33,3.33,0,0,0,0,.69l-.27-.19c-.27-.19-.31.23-.27.62s.08.77.08.77l-.31-.27c-.31-.27-.27.62-.15,1a5,5,0,0,0,.35.81s-.31,0-.5,0-.39.08-.35.31.15.77.15.77l-.42-.08c-.19,0-.19.39,0,.82a6.56,6.56,0,0,0,.49.77.93.93,0,0,1-.31.12c-.19,0-.35.15-.23.35a2.38,2.38,0,0,0,.85.93,9.36,9.36,0,0,0,1.12.77,2.28,2.28,0,0,0-.31.19c-.15.12-.15.23.19.54s.39.46.39.46l-.35.27a.32.32,0,0,0,0,.46,5,5,0,0,0,.46.46L41,27.7l0,0H36.14v-1.3H34.5l-3.9-2.62-.19.12-3.93,2.5H24.37v2.12l1.51,1.25c0,.25,0,3.56,0,4.65H22.43V37L23.8,39c0,.2,0,29.72,0,29.72L50,88.49l26.21-19.7V39l1.1-2.11V34.45Zm-17.81-6h5.3v-.78h1.32l3.64-2.22,3.19,2.22h2v1.12l-1.09,1v4.71H57.66v-.9l-.47-.71H55.34l0-.16s.55.12.74-.07.07-.66.07-.66a2.76,2.76,0,0,0,.69-.19c.19-.12-.12-.35-.12-.35l.35,0a.76.76,0,0,0,.62-.35c0-.12-.23-.35-.23-.35l.42-.12c.42-.12.54-.19.58-.31s-.27-.42-.27-.42l.35-.08a.93.93,0,0,0,.66-.5c0-.15-.42-.62-.42-.62A3.7,3.7,0,0,0,59.15,28.4ZM44.5,26a1.26,1.26,0,0,1-.67.06.9.9,0,0,1-.54-.6c0-.13.24-.13.69,0S44.64,26,44.5,26Zm.06.54c.15.11,0,.28.24.37s0,.28-.43.24a2.11,2.11,0,0,1-.62-.22c-.13,0,.11-.24.26-.3S44.42,26.47,44.57,26.57Zm-1,1.23c0,.08-.19.19-.17.27s.2.16.2.22a2.77,2.77,0,0,1-1,.16c-.43,0-1.26-.26-1.24-.4s.49-.22,1-.24S43.46,27.69,43.52,27.8Zm-1,1.14c.34-.09.72-.16,1.12-.27s.65-.19.73-.09,0,.27-.27.52a2.19,2.19,0,0,1-1.29.45c-.46,0-.93-.13-.93-.24S42.16,29,42.5,28.94Zm.26,1a2.1,2.1,0,0,0,.86-.13c.33-.13.52-.27.75-.19s.49.06.52.13,0,.23-.27.36a3.7,3.7,0,0,1-1.38.49,1.75,1.75,0,0,1-1-.32A.69.69,0,0,1,42.76,29.93Zm.63,1a2.89,2.89,0,0,0,.79-.26,1.25,1.25,0,0,1,.95-.09c.27.1.33,0,.39.1s-.22.37-.62.53a5.52,5.52,0,0,1-1.38.07c-.42,0-.62.15-.63.09C42.84,31.21,43.18,31,43.39,31Zm1.06.83c.39-.17.55-.06.79-.22s.24-.22.4-.2a.24.24,0,0,1,.2.1,1.59,1.59,0,0,1-.59.59,2.88,2.88,0,0,1-1.29.17A.9.9,0,0,1,44.45,31.81Zm2.4-1.34a1.07,1.07,0,0,1-.5.37c-.19.09-.43.15-.39-.06s.24-.28.37-.47.28-.26.37-.24A.29.29,0,0,1,46.85,30.47Zm.3,1.54a1.89,1.89,0,0,1,.39,0s0,.13-.17.3-.49.47-.68.5-.23,0-.23,0a1.09,1.09,0,0,1,.2-.39C46.78,32.28,47,32.05,47.16,32ZM46,31.91c.23-.3.27-.39.4-.43s.13,0,.13,0a.7.7,0,0,1-.1.5,3.36,3.36,0,0,1-.93.86,1.85,1.85,0,0,1-.73,0s.07-.23.5-.43S45.82,32.21,46,31.91ZM45,33.53h1.21l-.91.91H44.06Zm-1.37.91h-.35v-.69l.15-.23h1.09Zm3.06-.91h1.23l-.8.91H45.73Zm.93-.74s.16-.29.22-.3l.27,0a.78.78,0,0,1-.22.32A.29.29,0,0,1,47.57,32.79Zm.76.74H49.5l-.78.91H47.53Zm1.29-.7c0-2.43,0-8.4,0-8.4H48.49v.88h-.61v-.88h-.71v-1h.71s0-.37,0-.52h.6v.52h1.13V21.88h-.88v-.75h.89v-1h.78v1h.88v.75h-.88v1.59h1.13V23h.6c0,.15,0,.52,0,.52h.71v1h-.71v.88h-.61v-.88H50.39s0,6,0,8.41ZM51.16,32c.1.15.28.32.15.36s-.1,0-.21,0A.27.27,0,0,1,51,32C51,31.9,51.06,31.83,51.16,32Zm-1.92-.2c0,.31-.5.46-.5.46a1.11,1.11,0,0,1,.15-.42C49,31.67,49.24,31.79,49.24,31.79Zm-.23.73a.67.67,0,0,1-.06.32c-.07.14-.46.13-.46.13a1.17,1.17,0,0,1,.17-.34A.39.39,0,0,1,49,32.52Zm.94,1h.11l.78.91H49.16Zm.56,0h1.17l.8.91H51.28Zm1-.77a.17.17,0,0,1,.22.19c0,.15-.12.07-.17,0S51.42,32.78,51.51,32.76Zm.62.77h1.23l.91.91H52.93Zm.12-.85c0-.05.05,0,.15,0s.05.12.17.28-.17.05-.26,0A.26.26,0,0,1,52.24,32.68Zm.5-.55c0-.1.36,0,.53.09s.05.17.05.48-.12.14-.34-.09A.61.61,0,0,1,52.74,32.13Zm4.07-5.61a.74.74,0,0,1-.57.22c-.09,0-.12-.11-.13-.21S56,26.37,56,26.3s.13-.06.33-.05a1,1,0,0,0,.47-.09C57,26.09,57,26.33,56.81,26.52Zm.52,1.36a3,3,0,0,1,.74.05c.36.07.69.17.67.24a1.61,1.61,0,0,1-1,.26.82.82,0,0,1-.84-.55C56.9,27.79,57.09,27.88,57.33,27.88Zm.07.89a3.45,3.45,0,0,1,1,.22c.19.1.26.1.14.22a1.82,1.82,0,0,1-1.19.17,3,3,0,0,1-.93-.53C56.42,28.72,56.9,28.71,57.4,28.77Zm-.09,1c.4.17.58.24.45.33a1.27,1.27,0,0,1-1.22,0,.87.87,0,0,1-.52-.58c0-.07.07-.1.21-.12s.09-.22.19-.12A4.07,4.07,0,0,0,57.31,29.82Zm-2,1.34c-.19-.14-.36-.47-.29-.58s.19,0,.29,0,.31.4.52.6.34.29.33.34-.1.1-.29.05S55.53,31.3,55.34,31.16Zm.34,1.12a1.42,1.42,0,0,1-.62-.24,2.75,2.75,0,0,1-.45-.34c-.14-.14-.12-.28,0-.33s0-.21.1-.24.27.27.57.46S55.73,32.21,55.68,32.28Zm.21-1.67c-.21-.21-.22-.4-.15-.52s.14,0,.38.22a1.59,1.59,0,0,0,.64.33c.17,0,.38.12.34.21s-.07.1-.48.12S56.09,30.82,55.89,30.61Zm.38-2.29a.65.65,0,0,1-.49.23c-.27,0-.37,0-.45,0s-.06-.18.07-.26.37,0,.68-.08S56.37,28.2,56.27,28.32Zm-.66.8c.22,0,0,.17-.22.22s-.36,0-.42-.06.06-.19.17-.23S55.4,29.11,55.61,29.12Zm-.39.75c.34.07,0,.22-.32.29a.65.65,0,0,1-.52,0,.13.13,0,0,1,0-.24c.14-.07,0-.17.16-.22S54.88,29.8,55.22,29.87Zm-.54,2.41c.19.31.19.5.12.55s-.29-.05-.58-.21a1.54,1.54,0,0,1-.58-.58c-.05-.12.05-.21.1-.33s-.11-.26,0-.26A2.91,2.91,0,0,1,54.69,32.28ZM54.06,31a.89.89,0,0,1-.6-.28c-.09-.08,0-.21.18-.2s.07-.11.23-.16.17.22.34.34S54.3,31,54.06,31Zm-.22,2.52H55l.89.91H54.75Zm1.68,0h1.3l.15.23v.69h-.56Zm2.48-6a1.19,1.19,0,0,1-.89-.31c-.12-.12.22-.21.5-.29s.43.1.74.07.6.05.58.17S58.54,27.47,58,27.49Zm.53-.91c-.43,0-1.16-.16-1.13-.29s.19-.17.6-.17.53-.09.81-.09.58.09.58.17A1.13,1.13,0,0,1,58.54,26.57Zm.79-1.34a2.63,2.63,0,0,1-1.1.46c-.41.09-.88.07-.88,0s0-.19.4-.41a2.91,2.91,0,0,1,.95-.31,1.71,1.71,0,0,1,.83-.12C59.62,24.87,59.64,25,59.33,25.23Zm1.38-2.77c.05.09-.15.43-.55.91a5.06,5.06,0,0,1-1.75,1.17,2.48,2.48,0,0,1-1.19.17c-.09-.05,0-.26.17-.4s.69-.31,1.22-.58,1.27-.93,1.5-1S60.65,22.38,60.7,22.47Zm-.43-1c.07,0-.14.77-1.29,1.62s-1.89.79-1.87.67.64-.52,1.08-.81.88-.84,1.24-1S60.2,21.44,60.27,21.47ZM59.72,20c.24-.05-.29,1-.83,1.74a3.68,3.68,0,0,1-1.46,1.22c-.05,0,0-.09,0-.17s-.12-.12-.1-.22.77-.81,1-1.12S59.48,20,59.72,20Zm-.34-1.41a6.9,6.9,0,0,1-.86,2.08,7.94,7.94,0,0,1-1.27,1.46c-.14.07-.17,0-.14-.19s.07-.27-.12-.36.43-.5.76-.91a9.13,9.13,0,0,0,.86-1.22C59,18.85,59.27,18.6,59.38,18.58Zm-2.48,1.2a9.21,9.21,0,0,1,1.21-1.37c.29-.28.75-.79.79-.78a1.74,1.74,0,0,1-.28.95,13.43,13.43,0,0,1-1.19,1.82c-.22.24-.77.78-.86.84s-.1-.14-.17-.4S56.52,20.32,56.9,19.79ZM54.36,27.3c0-1.19-.58-1.65-.31-2.71.18-.73.85-1.49,1-1.35s.06.21,0,.39.11.31.19.12a3.73,3.73,0,0,1,.56-1c.22-.23.81-.92.93-.69a1.35,1.35,0,0,1-.33.7c-.2.18-.67.63-.29.7.07,0,.22-.09.36-.19s.45-.26.55-.21,0,.22-.14.46a.76.76,0,0,1-.55.33c-.17,0-.4.34-.08.32s.65-.09.71,0-.2.39-.4.58-.42.26-.57.1-.28,0-.29.12-.43.5-.31.59.21-.07.33-.15a.73.73,0,0,1,.42-.19,4.47,4.47,0,0,0,.82-.12c.2-.06.28.07.1.28s-.41.48-.7.43-.23-.26-.34-.25-.12.21-.3.43-.33.46-.18.49.36,0,.28.18a2.77,2.77,0,0,1-.35.56c-.07.09.2.14.35,0s.24-.29.52-.21.56,0,.35.27a1,1,0,0,1-.72.47c-.23,0-.1-.34-.32-.29s-.13.17-.35.39-.14.6-.35.74-.34.27-.34.5-.17.22-.33.29,0,.37-.2.46-.45,0-.56.14,0,.37-.21.48-.47.21-.58.26,0,.24.19.24.49.32.49.44-.06.19-.36.19-.37-.57-.68-.57-.29.08-.17.34,0,.33,0,.52-.06.36-.24.24a1.74,1.74,0,0,1-.64-1.26,1.68,1.68,0,0,1,1-1.58C53,29,54.36,28.48,54.36,27.3Zm-8.23-3.84.28-.12a.91.91,0,0,0,.28-.18.93.93,0,0,0,.27-.69,1.67,1.67,0,0,0-.17-.82.38.38,0,0,1-.05-.2.9.9,0,0,1,.13-.35,1.68,1.68,0,0,0,.24-.81,3.36,3.36,0,0,1,.49-2,3.17,3.17,0,0,1,.72-.72c.24-.19.48-.37.48-.68a1.15,1.15,0,0,1,.09-.32A1.61,1.61,0,0,0,49,16a.83.83,0,0,1,.11-.2,1.33,1.33,0,0,0,.26-.73,1.38,1.38,0,0,0-.09-.53.53.53,0,0,1,0-.22.94.94,0,0,1,.08-.3,1.81,1.81,0,0,0,.15-.67.61.61,0,0,1,.16-.4.78.78,0,0,0,.19-.47c0-.08,0-.34.17-.34s.17.27.17.34a.78.78,0,0,0,.19.47.61.61,0,0,1,.16.4,1.81,1.81,0,0,0,.15.67.94.94,0,0,1,.08.3.54.54,0,0,1,0,.22,1.38,1.38,0,0,0-.09.53,1.33,1.33,0,0,0,.26.73A.83.83,0,0,1,51,16a1.61,1.61,0,0,0,.14.57,1.14,1.14,0,0,1,.09.32c0,.31.23.49.48.68a3.17,3.17,0,0,1,.72.72,3.36,3.36,0,0,1,.49,2,1.68,1.68,0,0,0,.24.81.9.9,0,0,1,.13.35.38.38,0,0,1-.05.2,1.67,1.67,0,0,0-.17.82.93.93,0,0,0,.26.69.9.9,0,0,0,.27.18,2.06,2.06,0,0,0,.38.12s-.28.5-.33.62c-.74,1.58.63,2.6-.07,3.79-.51.88-2.26.84-2.83,2.05,0,0,0-5,0-5.15h.44v.89h1.3v-.89h.71V23.13h-.71c0-.15,0-.52,0-.52H51.17v.52h-.44v-.9h.88V20.78h-.88v-1H49.27v1h-.89v1.44h.88v.9h-.44v-.52H47.53s0,.37,0,.52h-.71v1.65h.71v.89h1.3v-.89h.44c0,.18,0,5.15,0,5.15-.59-1.18-2.25-1.18-2.75-2-.7-1.19.66-2.21-.07-3.79A3.64,3.64,0,0,0,46.13,23.46Zm-.06,1.07c.27,1.05-.31,1.52-.31,2.71S47.07,29,47.83,29.3a1.67,1.67,0,0,1,1,1.58c0,.52-.58,1-.75,1s-.06-.15,0-.45.17-.28.34-.43-.09-.17-.22-.19-.17-.06-.34-.19-.26,0-.19.17.26.28.09.34-.22.22-.32.37-.32.19-.39.13a1.4,1.4,0,0,1,0-.71c.06-.26.22-.5.43-.47s.24,0,.22-.13-.26-.13-.5-.15S47,30,47,29.81s-.47-.09-.62-.15-.28,0-.26.11,0,.11-.15.32a.63.63,0,0,1-.69.13c-.09-.09,0-.3.13-.45a.92.92,0,0,1,.47-.37c.19-.06.24-.17.09-.24s-.19-.19-.3-.32a.14.14,0,0,0-.26.09.35.35,0,0,1-.26.39c-.24.09-.65-.09-.65-.19s.24-.19.39-.41.39-.11.58-.11.15-.17,0-.24-.15-.13-.28-.34S45,27.82,45,28s-.11.17-.34.19-.41,0-.49-.11.19-.34.49-.43a.59.59,0,0,1,.52.06c.11,0,.19.11.28,0s-.06-.26-.19-.34a.27.27,0,0,1-.06-.37c.06-.13,0-.24-.11-.26s-.19-.15-.28-.32,0-.13.13-.28,0-.28-.13-.32-.17-.24-.19-.37,0-.32-.24-.32a.89.89,0,0,1-.65-.26c-.19-.19-.34-.52-.28-.62s.17,0,.45,0a.52.52,0,0,1,.52.34c.11.22.15.34.28.37s.11-.17.11-.28-.06-.17-.13-.28.06-.3,0-.41-.39-.06-.54-.19a.93.93,0,0,1-.24-.58c0-.09.19-.09.34,0s.11.17.28.22.17.22.26.41.06.41.22.41.13.13.15.3,0,.19-.13.3,0,.37.09.56.26.19.34.15,0-.22,0-.34,0-.13.13-.13.19-.22.09-.26-.15-.17-.11-.37-.17-.26-.28-.43-.19-.39-.11-.5S45.88,23.81,46.07,24.53Zm-1.45-2.1c.09-.06.24.06.39.22s.32.39.22.37-.16.08-.19.17-.11,0-.24-.22S44.53,22.5,44.61,22.44Zm-2.46-3.79c.62.66,1,1.08,1.51,1.7s1,1.49.83,1.57-.55-.39-.93-1A13.23,13.23,0,0,0,42,19.12a2.93,2.93,0,0,1-.83-1.54C41.13,17.39,41.54,18,42.16,18.65Zm-1.58-.1c0-.14.24.06,1,.66A10.51,10.51,0,0,1,43.23,21c.59.75,1.06,1.6.95,1.65s-.59-.55-1.14-1.16a10.15,10.15,0,0,0-1.51-1.39A2.54,2.54,0,0,1,40.57,18.55Zm.13,1.54c.37.27.47.26,1.22.75a3.9,3.9,0,0,1,1.35,1.48c.24.45.35.71.27.79s-.23-.11-.7-.68a7.42,7.42,0,0,0-1.74-1.34,3.86,3.86,0,0,1-1-1.37C40.06,19.6,40.33,19.81,40.7,20.09Zm-1.11.85c.1,0,.3-.11.86.19a8,8,0,0,1,2.1,1.51c.73.75.88,1.13.78,1.15s-.62-.47-1.24-.91-1.39-.68-1.84-.95S39.5,21,39.6,20.93ZM39.35,22a10.28,10.28,0,0,1,1.25.55,9.38,9.38,0,0,1,1.84,1,1.83,1.83,0,0,1,.69,1.14c-.07.06-.85-.68-1.38-1s-1.19-.46-1.68-.73S39.24,22,39.35,22Zm3.75,4.15c0,.09-.37.13-1,0s-1-.36-1-.46.63-.17,1-.09.55,0,.66.13.06.22.14.27S43.12,26.11,43.1,26.16Zm-2-1.47a2.92,2.92,0,0,1-1.59-1.12,2.54,2.54,0,0,1,1.82.39c1,.52,1.46,1,1.39,1.09S42.08,25.06,41.08,24.7Zm.09,2.24c0-.14.49-.32.92-.32s1.09,0,1.11.11-.12.16-.09.26.16.23.13.3-.37.07-.91,0S41.16,27.08,41.16,26.94ZM25.05,28.22V27.11h1.63l3.9-2.49,3.7,2.49h1.17v1.3H41a4.75,4.75,0,0,0,.69.3,2.25,2.25,0,0,1-.39.42c-.23.19,0,.42.19.46s.35.31.35.31l-.12.15c-.12.15-.19.35,0,.5a6.17,6.17,0,0,0,.85.39,5,5,0,0,1-.15.5c-.08.19,0,.39.35.39a6.23,6.23,0,0,0,.93-.12,2.79,2.79,0,0,0-.27.58c0,.19.12.35.39.35h.46l-.06.2H43l-.47.71v.9h-16v-5Zm51.57,8.53-1.1,2.11V68.45L50,87.63,24.52,68.42c0-.34,0-29.58,0-29.58l-1.37-2.09V35.14h53.5Z"/><path class="cls-2" d="M73.81,36.52H25.86V67.74L50,86,74.15,67.74V36.52ZM40,41.21h.57c.26-.21-.36-.52-.16-1.41.1-.42.82-1.61.94-1.09,0,0,.62.73.26,1.2-.52.68-1,1.35-.42,1.35a7,7,0,0,0,1,0l1.09,1c.21.57,1.41.63,2.14.36.52-.16.47-.89,1-1.35a5.46,5.46,0,0,1,1.35-.57c.31-.16.16,0,.78-.57,0,0,.65,0,.78-.31.23-.09.26-.52.26-.57.21-.52.52-.57.52-.57a2.43,2.43,0,0,1,.47.57c.1.21.05.52.16.57,0,.31.63.12.94.36s.26.42.42.52c.31.26.94.21,1.15.52s.42.89.42.89a12.15,12.15,0,0,0,1-1.25A5.15,5.15,0,0,0,55.51,39a1.81,1.81,0,0,1,1.35.52,1.85,1.85,0,0,1,.57,1.25,2.77,2.77,0,0,1-.16,1.3,2.61,2.61,0,0,1-.31.83,2.31,2.31,0,0,1-1.61,1c-.57.1-.57.42-.42.78s-.62.21-.62-.05a2.54,2.54,0,0,0-.36.16,6.26,6.26,0,0,1-1.25.94c-.73.31-2.08-.16-1.72,0,.1.05-.05.42,0,.42a9.91,9.91,0,0,1,1.25.52c.42.21.52.47.36.73s-1.72.62-2.4.68-2.4-.36-2.66-.78.36-.57.57-.68.94-.31.94-.42a2.2,2.2,0,0,1,0-.43c-1.8.64-3.05-1-3.78-1.34s-1.09.21-1.82-.16a4.26,4.26,0,0,1-1-.88c-.42-.42-.4-1-.94-1.3s-.93,0-1.25-.36A.72.72,0,0,1,40,41.21Zm.31,36.64L26.55,67.39V37.21h.2L40.36,47.64Zm18.59.53L50,85.16l-9-6.78V48.17l8.87,6.29,9-6.65Zm14.52-11L59.64,77.86V47.32h0L73.33,37.21h.13Z"/><path class="cls-2" d="M14.77,14.77A49.83,49.83,0,1,0,85.23,85.23,49.83,49.83,0,1,0,14.77,14.77M15.5,84.5a48.79,48.79,0,0,1,69-69,48.79,48.79,0,0,1-69,69"/><path class="cls-2" d="M10.86,50A39.14,39.14,0,1,0,50,10.86,39.18,39.18,0,0,0,10.86,50m.69,0A38.45,38.45,0,1,1,50,88.45,38.49,38.49,0,0,1,11.55,50"/><path class="cls-2" d="M5.11,56.72a1.67,1.67,0,1,1,1.67,1.67,1.67,1.67,0,0,1-1.67-1.67"/><path class="cls-2" d="M91.9,56.72a1.67,1.67,0,1,1,1.67,1.67,1.67,1.67,0,0,1-1.67-1.67"/><path class="cls-2" d="M11.34,38.61a3.6,3.6,0,0,1,0,2.09,5.41,5.41,0,0,1-1.54,2.85,3.81,3.81,0,0,1-3.07,1,3.92,3.92,0,0,1-3.11-2.11,6.29,6.29,0,0,1-.1-3.6,7.17,7.17,0,0,1,.65-1.69c.16-.29.25-.38.58-.37l1,.44c.17.07.13.34.05.44-.26.39-.42,0-.81.19A1.45,1.45,0,0,0,4.34,39a2.31,2.31,0,0,0,.39,2.1,4,4,0,0,0,2.09,1.12A3.57,3.57,0,0,0,8.92,42a2.29,2.29,0,0,0,1.5-1.7,3.74,3.74,0,0,0-.05-1.82c-.21-.41.85-.26,1,.14"/><path class="cls-2" d="M12.25,32.41c.64.28.92.47,1.16.07.08-.13.24-.29.43-.21a.3.3,0,0,1,.17.39c-.25.56-.46.95-.7,1.51s-.36.9-.58,1.42a.34.34,0,0,1-.43.16c-.17-.08-.15-.31-.12-.45.1-.45-.06-.66-.94-1L7.42,32.66c-.47-.3-.8-.32-1.08,0-.09.11-.3.31-.48.23a.3.3,0,0,1-.14-.41c.25-.56.46-.93.7-1.49s.41-1.05.63-1.56a.29.29,0,0,1,.41-.13.37.37,0,0,1,.16.43c-.14.67.09.69.81,1Z"/><path class="cls-2" d="M88.15,33c-.62.3-1,.4-.8.84a.36.36,0,0,1-.12.46.3.3,0,0,1-.41-.12c-.27-.55-.43-1-.69-1.51s-.46-.86-.7-1.36a.34.34,0,0,1,.16-.43c.17-.08.34.09.42.2.28.36.54.39,1.33-.1l3.75-1.83c.54-.16.76-.4.7-.82,0-.14,0-.42.14-.51a.3.3,0,0,1,.4.15c.27.55.41.95.68,1.5s.54,1,.78,1.49a.29.29,0,0,1-.17.39.37.37,0,0,1-.43-.15c-.42-.54-.58-.38-1.29,0Z"/><path class="cls-2" d="M16.41,25.46c.57.39.78.44,1.15,0,.11-.11.34-.36.57-.13a.55.55,0,0,1,0,.72c-.35.5-.68.84-1,1.34s-.58.89-.89,1.36a.51.51,0,0,1-.67.24.34.34,0,0,1-.15-.52c.29-.56.39-.74-.24-1.17l-3.71-2.73c-.28-.18-.41-.28-.6,0-.45.66-.59.69-.44,1s.46.35.19.73a.4.4,0,0,1-.6,0l-.86-.63c-.35-.31.29-.85.47-1.12l2.78-3.79c.21-.3.34-.81.65-.59L14,21a.43.43,0,0,1,.08.57.34.34,0,0,1-.43.13c-.47-.19-.62-.12-1.11.61-.17.25,0,.36.2.53Z"/><path class="cls-2" d="M84,25.8c-.55.43-.65.61-.39,1.08.08.13.25.43,0,.58a.55.55,0,0,1-.68-.22c-.38-.48-.59-.9-1-1.38s-.68-.82-1-1.26a.51.51,0,0,1,0-.71.34.34,0,0,1,.54,0c.45.44.58.59,1.19.12l3.72-2.71c.25-.21.39-.31.19-.57C86,20.11,86,20,85.67,20c-.17,0-.48.33-.76,0a.4.4,0,0,1,.15-.58l.86-.63c.4-.24.72.53.92.79l1.28,1.89,1.48,1.84c.22.29.63.67.33.91l-.93.67a.43.43,0,0,1-.56-.1.34.34,0,0,1,0-.45c.32-.39.3-.55-.24-1.24-.19-.24-.33-.15-.57,0Z"/><path class="cls-2" d="M20.35,14.47c-.08-.47-.18-.9-.25-1.48,0-.23.41-.61.46-.65.26-.24.63-.21.66.24s.14,1.74.2,2.12a8.56,8.56,0,0,0,.35,1.85c.18.22,1.42,1.63,1.42,1.63.47.51.63.57,1,.36.13-.08.4-.25.6,0a.39.39,0,0,1,0,.55c-.45.41-.83.72-1.28,1.13s-.8.79-1.22,1.17a.44.44,0,0,1-.53-.06.47.47,0,0,1,0-.53c.49-.62.33-.74-.19-1.31l-1.23-1.31-2.48-.65a13.2,13.2,0,0,0-1.51-.18c-.19,0-.34.36-.62.12s-.07-.36,0-.49c.3-.35.35-.45.69-.84a8.72,8.72,0,0,1,.62-.69c.13-.12.67-.06,1.43.08s2.22.6,2.22.6Z"/><path class="cls-2" d="M44.85,5.26c0,.35.08.53.49.49a5.37,5.37,0,0,0,.87-.13c.32-.09.85-.24,1-.14s.2.83-.1,1-.38.11-1,.16l-.75.07c-.38.06-.35.27-.33.58l.14,1.35c.06.69.15.74.43.88s.38.08.41.36-.1.38-.46.43c-.6.09-.73,0-1.34.08s-.87.14-1.43.19a.35.35,0,0,1-.43-.34c0-.23.21-.37.34-.41.4-.13.4-.35.33-1.11l-.38-4c-.06-.7,0-1.19-.59-1.21a.32.32,0,0,1-.32-.3.43.43,0,0,1,.38-.47c1.08-.07,1.66,0,2.73-.15.75-.07,1.14-.22,1.89-.29.3,0,.42.27.45.6v.82c0,.15,0,.32-.21.34-.35,0-.33-.32-.45-.48s-.53-.21-.9-.18a2.36,2.36,0,0,0-.79.17c-.11.09-.09.29-.08.42Z"/><path class="cls-2" d="M73.08,13.61a2.67,2.67,0,0,1-2,1.62,3.27,3.27,0,0,1-2.28-.51A4,4,0,0,1,67,13.18c-.5-1.06-.1-1.63.33-2.43l1.53-2.82c.34-.63.49-.87.19-1.17a.58.58,0,0,1-.22-.6c.08-.24.38-.28.62-.13.52.32.75.47,1.29.76s.85.43,1.34.69a.39.39,0,0,1-.32.71c-.35-.15-.47-.06-.85.63l-1.42,2.47a5.08,5.08,0,0,0-.69,1.54c0,.58.17.85.78,1.18a1.65,1.65,0,0,0,1.52.18,2.11,2.11,0,0,0,1-1.12l1.59-3c.12-.23.33-.62.12-.77a.47.47,0,0,1-.14-.6.33.33,0,0,1,.46-.15c.31.17.45.29.76.46s.46.2.77.36a.44.44,0,0,1,.13.49.37.37,0,0,1-.42.22.6.6,0,0,0-.61.28Z"/><path class="cls-2" d="M81.92,16.69c-.12.14-.32.15-.51,0a.36.36,0,0,1,0-.47c.42-.62.43-.83-.15-1.35a1,1,0,0,0-1.43.09,1.2,1.2,0,0,0-.08,1.47l.32.55c.64,1.06,1,1.92.07,2.94a2.38,2.38,0,0,1-1.91.73,3.71,3.71,0,0,1-2.21-1,5.28,5.28,0,0,1-1.24-1.56c-.16-.39-.27-.57,0-.86l.93-.8c.12-.14.24-.21.49,0s.15.37,0,.53c-.26.31-.42.39-.4.78a1.62,1.62,0,0,0,.7,1c.51.44,1,.41,1.65-.14s0-1.52-.41-2.2A2.16,2.16,0,0,1,78,13.61c1-1.12,2.61-.6,3.78.6a4.79,4.79,0,0,1,.89,1.22.6.6,0,0,1-.12.63Z"/><path class="cls-2" d="M92.71,42.83l3-.68a.64.64,0,0,0,.48-.6c0-.2.07-.34.33-.37a.34.34,0,0,1,.43.28c.08.34.09.59.17.94s.12.46.19.79a.32.32,0,0,1-.26.39.39.39,0,0,1-.51-.28c-.12-.31-.51-.24-1-.15L90,44.4c-.32.07-.48-.07-.57-.46s-.11-.67,0-.8,4-4.91,4.1-5.06.08-.33-.19-.28l-3.71.87a.44.44,0,0,0-.38.55.37.37,0,0,1-.29.44.41.41,0,0,1-.47-.23l-.19-.86c-.08-.37-.16-.56-.23-.91a.46.46,0,0,1,.29-.46.43.43,0,0,1,.57.32c.07.25.31.35.7.26l4.58-1c.45-.1.9-.12.81-.7,0-.19,0-.29.3-.35a.34.34,0,0,1,.43.22l.37,1.69c.1.46-.31.87-.41,1s-3,3.82-3.09,3.92,0,.3.1.28"/><path class="cls-2" d="M38.86,7.16c-1.23-3.07-3.51-2.91-5.79-2.09a4.84,4.84,0,0,0-2.75,2.29,4,4,0,0,0-.12,3.18,4.38,4.38,0,0,0,2.5,2.57,5.65,5.65,0,0,0,3.38-.31,4.26,4.26,0,0,0,2.78-5.65m-2.93,4.89c-1.15.5-2.1.51-3.28-2.2-.8-1.82-.87-3.53.62-4.07,1.72-.62,2.61.53,3.43,2.54.68,1.67.6,3.13-.77,3.72"/><path class="cls-2" d="M63.1,11a3.52,3.52,0,0,1-.14-.65l-.86-6.13a.63.63,0,0,0-.56-.61c-.46-.12-.55-.1-.8.24,0,0-3.64,5.1-3.86,5.34s-.36.47-.63.48-.41,0-.45.3.28.36.45.4c.35.09.39.07.75.16l.7.19a.37.37,0,0,0,.51-.28c.1-.4-.47-.36-.42-.67A2.17,2.17,0,0,1,58.16,9c.23-.33.41-.34.81-.24l1.2.27c.41.1.38.07.43.51a3.91,3.91,0,0,1,.1.8c-.1.41-.76-.07-.81.5s.31.47.47.51c.55.14.88.18,1.45.32L63,12a.45.45,0,0,0,.62-.24c.17-.43-.41-.55-.5-.78M60.48,8.08c0,.14-.32,0-.4,0L59.35,8c-.1,0-.35,0-.31-.2a1.63,1.63,0,0,1,.19-.3L60,6.39c.07-.1.28-.09.3,0s.19,1.37.19,1.37a1.7,1.7,0,0,1,0,.31"/><path class="cls-2" d="M50.48,96c-.34,0-.87-.05-1.21-.07s-1.08,0-1.39,0c-.09,0-.21,0-.21-.22s.14-.18.22-.2.24-.16.26-.58l.09-2.19c0-.39.1-.65-.23-.7a.18.18,0,0,1-.15-.19.24.24,0,0,1,.24-.23c.59,0,.91.1,1.5.13.41,0,.64,0,1,0,.17,0,.21.18.2.36l-.07.45c0,.08,0,.17-.14.17s-.16-.2-.21-.29-.27-.16-.48-.17a1.31,1.31,0,0,0-.44,0c-.07,0-.07.15-.08.22l0,.66c0,.19,0,.3.23.31a2.91,2.91,0,0,0,.48,0c.18,0,.48-.06.56,0s0,.47-.13.55-.21,0-.55,0l-.42,0c-.21,0-.21.12-.22.29l0,.75c0,.38.11.34.25.33a4.86,4.86,0,0,0,.68,0c.24-.08.2-.41.45-.39s.1.15.07.47-.1.53-.3.54"/><path class="cls-2" d="M20.35,81.4c-.13.14-.19.23,0,.38a2.92,2.92,0,0,0,.37.31c.15.1.41.26.43.36s-.26.39-.45.33-.18-.11-.43-.34l-.31-.28c-.17-.14-.24,0-.36.08l-.5.56c-.26.28-.25.33-.2.5s.11.18,0,.3-.19.1-.34,0-.28-.29-.53-.51-.38-.3-.61-.51a.19.19,0,0,1,0-.3c.08-.1.23-.05.29,0s.29,0,.57-.28l1.47-1.62c.26-.29.49-.43.27-.69a.18.18,0,0,1,0-.24.24.24,0,0,1,.33,0c.43.41.63.66,1.07,1.06s.51.38.81.66c.12.11,0,.27-.08.4l-.34.3c-.06.06-.14.11-.21,0s0-.25,0-.36-.11-.29-.26-.43A1.3,1.3,0,0,0,21,80.8c-.08,0-.15.07-.2.12Z"/><path class="cls-2" d="M31.89,90.49a1.47,1.47,0,0,1-1.09.92,1.8,1.8,0,0,1-1.26-.25,2.22,2.22,0,0,1-1-.82c-.29-.57-.08-.9.15-1.34l.8-1.57c.18-.35.26-.49.09-.65a.32.32,0,0,1-.13-.33c0-.14.2-.16.34-.08.29.17.42.25.72.4l.75.36a.22.22,0,0,1-.16.4c-.19-.08-.26,0-.45.36l-.74,1.38a2.79,2.79,0,0,0-.36.86c0,.32.11.46.45.63a.91.91,0,0,0,.84.08,1.16,1.16,0,0,0,.55-.63l.83-1.66c.06-.13.17-.35.05-.43a.26.26,0,0,1-.09-.33.18.18,0,0,1,.25-.09c.17.09.25.15.42.24s.26.1.43.19a.24.24,0,0,1,.08.27.2.2,0,0,1-.23.13.33.33,0,0,0-.33.16Z"/><path class="cls-2" d="M37.85,92.42l.5-1.62a.35.35,0,0,0-.15-.39.18.18,0,0,1-.09-.26.19.19,0,0,1,.25-.13l.49.18.43.13a.18.18,0,0,1,.12.23.22.22,0,0,1-.27.17c-.18,0-.26.18-.33.42l-.94,3c-.05.17-.17.21-.38.15s-.35-.13-.37-.24-1.25-3.24-1.29-3.34-.14-.13-.18,0-.6,2-.6,2a.24.24,0,0,0,.16.33.21.21,0,0,1,.13.26.23.23,0,0,1-.24.16l-.46-.14-.5-.14a.25.25,0,0,1-.14-.26.24.24,0,0,1,.31-.18c.14,0,.25-.05.32-.26L35.36,90c.07-.24.19-.46-.11-.58-.1,0-.13-.1-.09-.24a.19.19,0,0,1,.22-.14l.91.29c.25.08.33.38.38.48s1,2.48,1,2.55.14.1.16,0"/><path class="cls-2" d="M67.52,91.69c0,.12.09.24.23.23a2,2,0,0,0,.43-.12c.19-.06.31,0,.36.13s0,.21-.16.3-1.05.4-1.26.47-.84.39-1,.44-.31.12-.4-.08a.26.26,0,0,1,.08-.31l.37-.22c.16-.09.22-.18.16-.33l-.83-2.32c-.05-.15-.13-.22-.24-.14s-.46.42-.46.42a.22.22,0,0,1-.38,0c-.12-.25-.06-.43,0-.5.38-.25.86-.5,1.29-.81.23-.17.45-.33.49-.35s.16.2.19.28Z"/><path class="cls-2" d="M76.51,84.45a1,1,0,0,1,1.17.33,1.86,1.86,0,0,1,0,1.78,1.82,1.82,0,0,1-1.43,1.16c-.29.08-.74.07-.77-.19s-.06-.57-.06-.78.41-.08.6,0a1.48,1.48,0,0,0,.91-.16.51.51,0,0,0,.19-.74.61.61,0,0,0-.92-.14,3.9,3.9,0,0,0-.36.23s-.19-.11-.23-.16a.71.71,0,0,1,0-.47c.22-.44.25-.73.07-.94s-.47-.09-.61.08a1,1,0,0,0-.2.48c0,.07-.17.21-.31.31s-.18-.12-.23-.22a1.08,1.08,0,0,1,0-.73,1.66,1.66,0,0,1,.67-.78c.19-.13.89-.55,1.31-.07a.77.77,0,0,1,.14.92c0,.11,0,.15.08.13"/><path class="cls-2" d="M81.31,80.17a1.46,1.46,0,0,0-2.3-.11,1.87,1.87,0,0,0-.15,2.52,1.37,1.37,0,0,0,1.83,0c.11-.1.42-.59.46-.34a3,3,0,0,1-.36,1.52c0,.08-.14.2-.06.28a.23.23,0,0,0,.28,0c.17-.07.78-.34.91-1.55a3.12,3.12,0,0,0-.61-2.35m-.69,1.63c-.21.24-.69.13-1,0s-.68-.5-.57-.88.72-.63,1.43.07c.33.32.28.6.09.81"/><path class="cls-2" d="M25.72,83.62a2.66,2.66,0,0,0-1.94-.35,2.23,2.23,0,0,0-1.38,1.08,2.4,2.4,0,0,0-.19,2,3.11,3.11,0,0,0,1.33,1.31,2.34,2.34,0,0,0,3.36-.83c.86-1.6,0-2.51-1.17-3.17m-.09,2.68c-.46.88-1.1,1.36-1.84,1s-1-.7-.24-2.16c.49-1,1.18-1.61,1.93-1.18s.7,1.29.15,2.34"/><path class="cls-2" d="M45.09,91.81a3.29,3.29,0,0,0-1.73-.61c-.49-.06-1.05-.15-1.59-.24-.28,0-.41-.05-.43.1s.06.22.15.24.2.24.15.55l-.48,2.59c0,.18-.08.2-.19.23a.19.19,0,0,0-.17.19.22.22,0,0,0,.19.26l.35,0c.52.08,1.3.23,1.82.31a2.2,2.2,0,0,0,2.45-1.94,1.84,1.84,0,0,0-.52-1.71m-.7,1.58A1.91,1.91,0,0,1,44,94.46a1.5,1.5,0,0,1-1.37.36c-.26,0-.26-.11-.22-.37l.45-2.5c.08-.33.14-.31.58-.24.91.14,1.12.86,1,1.68"/><path class="cls-2" d="M57.74,93.34a1.84,1.84,0,0,0-.86-1.57,3.29,3.29,0,0,0-1.82-.24c-.49,0-1.06.07-1.6.09-.28,0-.43.06-.42.21s.06.19.2.22.25.15.27.47l.07,2.63c0,.18,0,.21-.14.27a.19.19,0,0,0-.13.22.22.22,0,0,0,.24.22l.35,0,1.84-.07a2.2,2.2,0,0,0,2-2.4M56.31,94.6a1.5,1.5,0,0,1-1.27.64c-.26,0-.27-.06-.29-.32l-.07-2.54c0-.34.07-.33.52-.36.92-.05,1.27.61,1.32,1.44a1.91,1.91,0,0,1-.21,1.14"/><path class="cls-2" d="M73.15,88A1.09,1.09,0,0,0,72,87.42s-.12,0-.14,0,0-.1,0-.12a.79.79,0,0,0,0-.83A1,1,0,0,0,71,86a1.58,1.58,0,0,0-.85.34,2.38,2.38,0,0,0-.71,1,1,1,0,0,0,.08,1,.94.94,0,0,0,.93.45s.08,0,.09,0,0,.07,0,.09a.88.88,0,0,0-.24.51,1.27,1.27,0,0,0,.12.74c.43.68,1.25.45,1.79.11a2.68,2.68,0,0,0,.87-1A1.4,1.4,0,0,0,73.15,88m-2.91-.5a.49.49,0,0,1,.2-.67.59.59,0,0,1,.83.25.6.6,0,0,1,.08.39s0,.1,0,.13l-.08,0c-.29.05-.79.2-1-.11m1.84,2.1c-.35.22-.74.23-1-.11A.74.74,0,0,1,71,89a.79.79,0,0,1,.13-.28,1.25,1.25,0,0,1,.33-.11.73.73,0,0,1,.79.25.55.55,0,0,1-.22.72"/></svg>