<svg xmlns="http://www.w3.org/2000/svg" width="32" height="32" viewBox="0 0 32 32" preserveAspectRatio="xMinYMin">
  <path fill="#005eff" d="M24.27,22.72a3.23,3.23,0,0,1-1.5,1.3,4.7,4.7,0,0,1-2.29.63,9.47,9.47,0,0,1-3.22-.85,11.45,11.45,0,0,1-2.15-1,20.72,20.72,0,0,1-5.9-5.9,11.42,11.42,0,0,1-1-2.15,9.46,9.46,0,0,1-.85-3.22A4.69,4.69,0,0,1,8,9.23a3.23,3.23,0,0,1,1.3-1.5A5.47,5.47,0,0,1,11,7.35a.64.64,0,0,1,.26,0c.26.09.53.69.65.93.39.7.77,1.41,1.18,2.1.2.32.56.71.56,1.09,0,.75-2.22,1.84-2.22,2.51a2.64,2.64,0,0,0,.48,1.06,12.22,12.22,0,0,0,5,5,2.64,2.64,0,0,0,1.06.48c.66,0,1.76-2.22,2.51-2.22.38,0,.77.37,1.09.56.69.41,1.4.79,2.1,1.18.25.12.85.39.93.65a.63.63,0,0,1,0,.26A5.46,5.46,0,0,1,24.27,22.72Z"/></svg>
