<?xml version="1.0" encoding="UTF-8"?>
<svg width="16px" height="17px" viewBox="0 0 16 17" version="1.1" xmlns="http://www.w3.org/2000/svg" xmlns:xlink="http://www.w3.org/1999/xlink">
    <g id="Wires" stroke="none" stroke-width="1" fill="none" fill-rule="evenodd">
        <g id="WBT_L_8.0_Contact" transform="translate(-527.000000, -674.000000)" fill="#474454">
            <path d="M536,679.035714 L536,683.535714 C536,683.629465 535.969866,683.706473 535.909598,683.766741 C535.84933,683.827009 535.772322,683.857143 535.678571,683.857143 L532.464286,683.857143 C532.370535,683.857143 532.293527,683.827009 532.233259,683.766741 C532.172991,683.706473 532.142857,683.629465 532.142857,683.535714 L532.142857,682.892857 C532.142857,682.799107 532.172991,682.722099 532.233259,682.66183 C532.293527,682.601562 532.370535,682.571429 532.464286,682.571429 L534.714286,682.571429 L534.714286,679.035714 C534.714286,678.941964 534.744419,678.864956 534.804688,678.804688 C534.864956,678.744419 534.941964,678.714286 535.035714,678.714286 L535.678571,678.714286 C535.772322,678.714286 535.84933,678.744419 535.909598,678.804688 C535.969866,678.864956 536,678.941964 536,679.035714 Z M540.178571,682.571429 C540.178571,681.580352 539.934154,680.666299 539.445312,679.829241 C538.956471,678.992183 538.293531,678.329244 537.456473,677.840402 C536.619415,677.35156 535.705362,677.107143 534.714286,677.107143 C533.723209,677.107143 532.809156,677.35156 531.972098,677.840402 C531.13504,678.329244 530.472101,678.992183 529.983259,679.829241 C529.494417,680.666299 529.25,681.580352 529.25,682.571429 C529.25,683.562505 529.494417,684.476558 529.983259,685.313616 C530.472101,686.150674 531.13504,686.813614 531.972098,687.302455 C532.809156,687.791297 533.723209,688.035714 534.714286,688.035714 C535.705362,688.035714 536.619415,687.791297 537.456473,687.302455 C538.293531,686.813614 538.956471,686.150674 539.445312,685.313616 C539.934154,684.476558 540.178571,683.562505 540.178571,682.571429 Z M542.428571,682.571429 C542.428571,683.970989 542.083709,685.261713 541.393973,686.443638 C540.704238,687.625564 539.768421,688.56138 538.586496,689.251116 C537.40457,689.940852 536.113846,690.285714 534.714286,690.285714 C533.314725,690.285714 532.024001,689.940852 530.842076,689.251116 C529.66015,688.56138 528.724334,687.625564 528.034598,686.443638 C527.344863,685.261713 527,683.970989 527,682.571429 C527,681.171868 527.344863,679.881144 528.034598,678.699219 C528.724334,677.517293 529.66015,676.581477 530.842076,675.891741 C532.024001,675.202005 533.314725,674.857143 534.714286,674.857143 C536.113846,674.857143 537.40457,675.202005 538.586496,675.891741 C539.768421,676.581477 540.704238,677.517293 541.393973,678.699219 C542.083709,679.881144 542.428571,681.171868 542.428571,682.571429 Z"></path>
        </g>
    </g>
</svg>
