<?xml version="1.0" encoding="UTF-8"?>
<svg width="11px" height="17px" viewBox="0 0 11 17" version="1.1" xmlns="http://www.w3.org/2000/svg" xmlns:xlink="http://www.w3.org/1999/xlink">
    <g id="Wires" stroke="none" stroke-width="1" fill="none" fill-rule="evenodd">
        <g id="WBT_L_8.0_Contact" transform="translate(-527.000000, -578.000000)" fill="#474454">
            <path d="M534.714286,584 C534.714286,583.290175 534.463172,582.684154 533.960938,582.18192 C533.458703,581.679685 532.852682,581.428571 532.142857,581.428571 C531.433032,581.428571 530.827011,581.679685 530.324777,582.18192 C529.822542,582.684154 529.571429,583.290175 529.571429,584 C529.571429,584.709825 529.822542,585.315846 530.324777,585.81808 C530.827011,586.320315 531.433032,586.571429 532.142857,586.571429 C532.852682,586.571429 533.458703,586.320315 533.960938,585.81808 C534.463172,585.315846 534.714286,584.709825 534.714286,584 Z M537.285714,584 C537.285714,584.729914 537.175224,585.329239 536.954241,585.797991 L533.297991,593.572545 C533.190848,593.793528 533.031809,593.967633 532.820871,594.094866 C532.609932,594.222099 532.38393,594.285714 532.142857,594.285714 C531.901785,594.285714 531.675782,594.222099 531.464844,594.094866 C531.253905,593.967633 531.098215,593.793528 530.997768,593.572545 L527.331473,585.797991 C527.11049,585.329239 527,584.729914 527,584 C527,582.58035 527.502227,581.368309 528.506696,580.363839 C529.511166,579.35937 530.723207,578.857143 532.142857,578.857143 C533.562507,578.857143 534.774549,579.35937 535.779018,580.363839 C536.783487,581.368309 537.285714,582.58035 537.285714,584 Z" id="ï"></path>
        </g>
    </g>
</svg>
