<?xml version="1.0" encoding="UTF-8"?>
<svg width="15px" height="15px" viewBox="0 0 15 15" version="1.1" xmlns="http://www.w3.org/2000/svg" xmlns:xlink="http://www.w3.org/1999/xlink">
    <g id="Wires" stroke="none" stroke-width="1" fill="none" fill-rule="evenodd">
        <g id="WBT_L_8.0_Contact" transform="translate(-527.000000, -529.000000)" fill="#474454">
            <path d="M541.142857,541.026786 C541.142857,541.20759 541.109375,541.443637 541.042411,541.734933 C540.975446,542.026229 540.905134,542.25558 540.831473,542.422991 C540.690848,542.757814 540.282369,543.112721 539.606027,543.487723 C538.976559,543.829243 538.353798,544 537.737723,544 C537.556919,544 537.379465,543.988281 537.205357,543.964844 C537.031249,543.941406 536.838729,543.899554 536.62779,543.839286 C536.416852,543.779018 536.259487,543.730469 536.155692,543.693638 C536.051897,543.656808 535.866073,543.58817 535.598214,543.487723 C535.330356,543.387276 535.166295,543.327009 535.106027,543.30692 C534.449774,543.072543 533.863842,542.794644 533.348214,542.473214 C532.497764,541.944194 531.613844,541.220987 530.696429,540.303571 C529.779013,539.386156 529.055806,538.502236 528.526786,537.651786 C528.205356,537.136158 527.927457,536.550226 527.69308,535.893973 C527.672991,535.833705 527.612724,535.669644 527.512277,535.401786 C527.41183,535.133927 527.343192,534.948103 527.306362,534.844308 C527.269531,534.740513 527.220982,534.583148 527.160714,534.37221 C527.100446,534.161271 527.058594,533.968751 527.035156,533.794643 C527.011719,533.620535 527,533.443081 527,533.262277 C527,532.646202 527.170757,532.023441 527.512277,531.393973 C527.887279,530.717631 528.242186,530.309152 528.577009,530.168527 C528.74442,530.094866 528.973771,530.024554 529.265067,529.957589 C529.556363,529.890625 529.79241,529.857143 529.973214,529.857143 C530.066965,529.857143 530.137277,529.867187 530.184152,529.887277 C530.304688,529.927456 530.482142,530.181917 530.716518,530.65067 C530.790179,530.777902 530.890624,530.958704 531.017857,531.19308 C531.14509,531.427457 531.262276,531.640066 531.36942,531.830915 C531.476563,532.021764 531.580357,532.200892 531.680804,532.368304 C531.700893,532.395089 531.759486,532.478794 531.856585,532.61942 C531.953684,532.760045 532.025669,532.878906 532.072545,532.976004 C532.11942,533.073103 532.142857,533.168526 532.142857,533.262277 C532.142857,533.396206 532.047434,533.563615 531.856585,533.764509 C531.665736,533.965403 531.458148,534.149553 531.233817,534.316964 C531.009485,534.484376 530.801898,534.661829 530.611049,534.84933 C530.4202,535.036831 530.324777,535.190848 530.324777,535.311384 C530.324777,535.371652 530.341518,535.446986 530.375,535.537388 C530.408482,535.627791 530.436942,535.696428 530.460379,535.743304 C530.483817,535.790179 530.530692,535.870535 530.601004,535.984375 C530.671317,536.098215 530.709821,536.16183 530.716518,536.175223 C531.225449,537.092639 531.808032,537.879461 532.464286,538.535714 C533.120539,539.191968 533.907361,539.774551 534.824777,540.283482 C534.83817,540.290179 534.901785,540.328683 535.015625,540.398996 C535.129465,540.469308 535.209821,540.516183 535.256696,540.539621 C535.303572,540.563058 535.372209,540.591518 535.462612,540.625 C535.553014,540.658482 535.628348,540.675223 535.688616,540.675223 C535.809152,540.675223 535.963169,540.5798 536.15067,540.388951 C536.338171,540.198102 536.515624,539.990515 536.683036,539.766183 C536.850447,539.541852 537.034597,539.334264 537.235491,539.143415 C537.436385,538.952566 537.603794,538.857143 537.737723,538.857143 C537.831474,538.857143 537.926897,538.88058 538.023996,538.927455 C538.121094,538.974331 538.239955,539.046316 538.38058,539.143415 C538.521206,539.240514 538.604911,539.299107 538.631696,539.319196 C538.799108,539.419643 538.978236,539.523437 539.169085,539.63058 C539.359934,539.737724 539.572543,539.85491 539.80692,539.982143 C540.041296,540.109376 540.222098,540.209821 540.34933,540.283482 C540.818083,540.517858 541.072544,540.695312 541.112723,540.815848 C541.132813,540.862723 541.142857,540.933035 541.142857,541.026786 Z" id=""></path>
        </g>
    </g>
</svg>
