<svg id="Layer_1" data-name="Layer 1" xmlns="http://www.w3.org/2000/svg" viewBox="0 0 683 399"><defs><style>.cls-1{fill:#fff;}.cls-2{fill:#716c87;}.cls-3{fill:none;stroke:#716c87;stroke-miterlimit:10;stroke-width:3px;}.cls-4{font-size:20px;fill:#474454;font-family:DroidSerif-Italic, Droid Serif;font-style:italic;}</style></defs><title>easement-setback-impervious-cover</title><rect class="cls-1" x="74.27" y="74.86" width="535.12" height="178.72"/><path class="cls-2" d="M607.9,76.36V252.08H75.77V76.36H607.9m3-3H72.77V255.08H610.9V73.36Z"/><line class="cls-3" x1="-2.5" y1="315.5" x2="684.5" y2="315.5"/><polygon class="cls-1" points="233.79 402.5 233.79 217.37 131.72 217.37 131.72 111.34 363.2 111.34 363.2 217.37 261.13 217.37 261.13 402.5 233.79 402.5"/><path class="cls-2" d="M361.7,112.84v103H259.63V401H235.29V215.87H133.22v-103H361.7m3-3H130.22v109H232.29V404h30.34V218.87H364.7v-109Z"/><text class="cls-4" transform="translate(194.98 157.22)">Impervious<tspan x="27.21" y="24">cover</tspan></text><text class="cls-4" transform="translate(449.76 45.86)">Setback</text><text class="cls-4" transform="translate(418.21 171.62)">Buildable area</text><text class="cls-4" transform="translate(440.63 364.86)">Easement</text></svg>